<?xml version="1.0" encoding="utf-8"?>
<!-- Generator: Adobe Illustrator 28.1.0, SVG Export Plug-In . SVG Version: 6.00 Build 0)  -->
<svg version="1.1" id="Layer_1" xmlns="http://www.w3.org/2000/svg" xmlns:xlink="http://www.w3.org/1999/xlink" x="0px" y="0px"
	 viewBox="0 0 1920 1080" style="enable-background:new 0 0 1920 1080;" xml:space="preserve">
<style type="text/css">
	.st0{fill:#263238;}
	.st1{fill:#262D38;stroke:#000000;stroke-width:3;stroke-miterlimit:10;}
	.st2{stroke:#000000;stroke-width:2.469940e-03;stroke-miterlimit:1.9297;}
	.st3{fill:#515151;stroke:#000000;stroke-width:2.469940e-03;stroke-miterlimit:1.9297;}
	.st4{fill:#FFFFFF;stroke:#000000;stroke-width:2.469940e-03;stroke-miterlimit:1.9297;}
	.st5{fill:#5562F6;stroke:#000000;stroke-width:2.469940e-03;stroke-miterlimit:1.9297;}
	.st6{fill:#2F2F2F;stroke:#000000;stroke-width:2.469940e-03;stroke-miterlimit:1.9297;}
	.st7{fill:#38454F;}
	.st8{fill:#546A79;}
	.st9{fill:#5562F6;}
	.st10{fill:#333E48;}
	.st11{fill:#3E4A57;}
	.st12{fill:#2F2F2F;}
	.st13{fill:#656D78;}
	.st14{fill:#CCD1D9;}
	.st15{fill:#AAB2BC;}
	.st16{fill:#FFCE54;}
	.st17{fill:#A0D468;}
	.st18{fill:#ED5564;}
	.st19{fill:#5D9CEC;}
	.st20{fill:#434A54;}
</style>
<g>
	<g>
		
			<rect x="698.7" y="4.7" transform="matrix(9.370004e-02 -0.9956 0.9956 9.370004e-02 374.2258 1407.5687)" class="st0" width="523" height="987"/>
		<path d="M494.7,193.3l979.7,92.2l-48.7,517.7L446,711L494.7,193.3 M492,190l-49.3,523.7l985.7,92.7l49.3-523.7L492,190L492,190z"
			/>
	</g>
	<g>
		<polygon class="st0" points="806.1,847.3 878.9,753 993.7,763.8 1047.6,870.1 		"/>
		<path d="M879.6,754.6l113.1,10.6l52.4,103.1l-236.1-22.2L879.6,754.6 M878.2,751.5l-75,97.1l247,23.2l-55.6-109.4L878.2,751.5
			L878.2,751.5z"/>
	</g>
	<path class="st1" d="M1347.4,273.1l128.4,12.1l-10.9,115.9c0,0-442.9-75.7-466.6,106S483.1,717.5,483.1,717.5l-40.4-3.8L457.9,552
		c0,0,398.4,6.6,481.3-93S1347.4,273.1,1347.4,273.1z"/>
</g>
<g id="SVGRepo_iconCarrier">
	
		<rect x="433.7" y="454.4" transform="matrix(0.2442 -0.9697 0.9697 0.2442 -352.1714 1150.4833)" class="st2" width="256.5" height="693.5"/>
	<g>
		
			<rect x="298.5" y="638" transform="matrix(0.2442 -0.9697 0.9697 0.2442 -403.7823 803.1881)" class="st3" width="29.8" height="45.2"/>
		
			<rect x="357.8" y="653" transform="matrix(0.2442 -0.9697 0.9697 0.2442 -373.4119 872.0235)" class="st3" width="29.8" height="45.2"/>
		
			<rect x="417.2" y="667.9" transform="matrix(0.2442 -0.9697 0.9697 0.2442 -343.0493 940.8733)" class="st3" width="29.8" height="45.2"/>
		
			<rect x="476.5" y="682.8" transform="matrix(0.2442 -0.9697 0.9697 0.2442 -312.6899 1009.7135)" class="st3" width="29.8" height="45.2"/>
		
			<rect x="535.9" y="697.8" transform="matrix(0.2442 -0.9697 0.9697 0.2442 -282.3273 1078.5632)" class="st3" width="29.8" height="45.2"/>
		
			<rect x="595.2" y="712.7" transform="matrix(0.2442 -0.9697 0.9697 0.2442 -251.9632 1147.4147)" class="st3" width="29.8" height="45.2"/>
		
			<rect x="654.5" y="727.7" transform="matrix(0.2442 -0.9697 0.9697 0.2442 -221.6228 1216.2059)" class="st3" width="29.8" height="45.2"/>
		
			<rect x="713.9" y="742.6" transform="matrix(0.2442 -0.9697 0.9697 0.2442 -191.2532 1285.0746)" class="st3" width="29.8" height="45.2"/>
		
			<rect x="773.2" y="757.6" transform="matrix(0.2442 -0.9697 0.9697 0.2442 -160.882 1353.9451)" class="st3" width="29.8" height="45.2"/>
		
			<rect x="832.6" y="772.5" transform="matrix(0.2442 -0.9697 0.9697 0.2442 -130.4927 1422.8295)" class="st3" width="29.8" height="45.2"/>
		
			<rect x="289" y="675.7" transform="matrix(0.2442 -0.9697 0.9697 0.2442 -447.5411 822.4875)" class="st3" width="29.8" height="45.2"/>
		
			<rect x="348.3" y="690.7" transform="matrix(0.2442 -0.9697 0.9697 0.2442 -417.1819 891.3278)" class="st3" width="29.8" height="45.2"/>
		
			<rect x="407.7" y="705.6" transform="matrix(0.2442 -0.9697 0.9697 0.2442 -386.8192 960.1776)" class="st3" width="29.8" height="45.2"/>
		
			<rect x="467" y="720.6" transform="matrix(0.2442 -0.9697 0.9697 0.2442 -356.46 1029.0178)" class="st3" width="29.8" height="45.2"/>
		
			<rect x="526.4" y="735.5" transform="matrix(0.2442 -0.9697 0.9697 0.2442 -326.0973 1097.8676)" class="st3" width="29.8" height="45.2"/>
		
			<rect x="585.7" y="750.5" transform="matrix(0.2442 -0.9697 0.9697 0.2442 -295.7382 1166.7079)" class="st3" width="29.8" height="45.2"/>
		
			<rect x="645" y="765.4" transform="matrix(0.2442 -0.9697 0.9697 0.2442 -265.3979 1235.499)" class="st3" width="29.8" height="45.2"/>
		
			<rect x="704.4" y="780.3" transform="matrix(0.2442 -0.9697 0.9697 0.2442 -235.0233 1304.3789)" class="st3" width="29.8" height="45.2"/>
		
			<rect x="763.7" y="795.3" transform="matrix(0.2442 -0.9697 0.9697 0.2442 -204.6522 1373.2494)" class="st3" width="29.8" height="45.2"/>
		
			<rect x="823.1" y="810.2" transform="matrix(0.2442 -0.9697 0.9697 0.2442 -174.2628 1442.1338)" class="st3" width="29.8" height="45.2"/>
		
			<rect x="279.5" y="713.5" transform="matrix(0.2442 -0.9697 0.9697 0.2442 -491.3412 841.7953)" class="st3" width="29.8" height="45.2"/>
		
			<rect x="338.8" y="728.4" transform="matrix(0.2442 -0.9697 0.9697 0.2442 -460.9819 910.6356)" class="st3" width="29.8" height="45.2"/>
		
			<rect x="398.2" y="743.4" transform="matrix(0.2442 -0.9697 0.9697 0.2442 -430.6143 979.4966)" class="st3" width="29.8" height="45.2"/>
		
			<rect x="457.5" y="758.3" transform="matrix(0.2442 -0.9697 0.9697 0.2442 -400.2551 1048.3369)" class="st3" width="29.8" height="45.2"/>
		
			<rect x="516.9" y="773.3" transform="matrix(0.2442 -0.9697 0.9697 0.2442 -369.8812 1117.1815)" class="st3" width="29.8" height="45.2"/>
		
			<rect x="576.2" y="788.2" transform="matrix(0.2442 -0.9697 0.9697 0.2442 -339.522 1186.0217)" class="st3" width="29.8" height="45.2"/>
		
			<rect x="635.5" y="803.1" transform="matrix(0.2442 -0.9697 0.9697 0.2442 -309.1816 1254.813)" class="st3" width="29.8" height="45.2"/>
		
			<rect x="694.9" y="818.1" transform="matrix(0.2442 -0.9697 0.9697 0.2442 -278.807 1323.6929)" class="st3" width="29.8" height="45.2"/>
		
			<rect x="754.2" y="833" transform="matrix(0.2442 -0.9697 0.9697 0.2442 -248.4359 1392.5634)" class="st3" width="29.8" height="45.2"/>
		
			<rect x="813.6" y="848" transform="matrix(0.2442 -0.9697 0.9697 0.2442 -218.0578 1461.4528)" class="st3" width="29.8" height="45.2"/>
		
			<rect x="359" y="773.6" transform="matrix(0.2442 -0.9697 0.9697 0.2442 -489.5461 964.3876)" class="st3" width="29.8" height="45.2"/>
		
			<rect x="418.3" y="788.6" transform="matrix(0.2442 -0.9697 0.9697 0.2442 -459.1869 1033.2279)" class="st3" width="29.8" height="45.2"/>
		
			<rect x="477.7" y="803.5" transform="matrix(0.2442 -0.9697 0.9697 0.2442 -428.8193 1102.0887)" class="st3" width="29.8" height="45.2"/>
		
			<rect x="537" y="818.5" transform="matrix(0.2442 -0.9697 0.9697 0.2442 -398.4489 1170.9242)" class="st3" width="29.8" height="45.2"/>
		
			<rect x="596.4" y="833.4" transform="matrix(0.2442 -0.9697 0.9697 0.2442 -368.0897 1239.7644)" class="st3" width="29.8" height="45.2"/>
		
			<rect x="655.7" y="848.4" transform="matrix(0.2442 -0.9697 0.9697 0.2442 -337.7269 1308.6141)" class="st3" width="29.8" height="45.2"/>
		
			<rect x="715.1" y="863.3" transform="matrix(0.2442 -0.9697 0.9697 0.2442 -307.3678 1377.4543)" class="st3" width="29.8" height="45.2"/>
		
			<rect x="284.8" y="739.6" transform="matrix(0.2442 -0.9697 0.9697 0.2442 -527.5048 878.321)" class="st3" width="29.8" height="75.8"/>
		
			<rect x="789.2" y="866.7" transform="matrix(0.2442 -0.9697 0.9697 0.2442 -269.4393 1463.4769)" class="st3" width="29.8" height="75.8"/>
		
			<rect x="260.5" y="789" transform="matrix(0.2442 -0.9697 0.9697 0.2442 -578.9019 880.4185)" class="st3" width="29.8" height="45.2"/>
		
			<rect x="319.8" y="803.9" transform="matrix(0.2442 -0.9697 0.9697 0.2442 -548.5427 949.2588)" class="st3" width="29.8" height="45.2"/>
		
			<rect x="379.1" y="818.9" transform="matrix(0.2442 -0.9697 0.9697 0.2442 -518.1801 1018.1086)" class="st3" width="29.8" height="45.2"/>
		
			<rect x="527.5" y="764.4" transform="matrix(0.2442 -0.9697 0.9697 0.2442 -442.2651 1190.2361)" class="st3" width="29.8" height="228.9"/>
		
			<rect x="675.9" y="893.6" transform="matrix(0.2442 -0.9697 0.9697 0.2442 -366.3839 1362.3098)" class="st3" width="29.8" height="45.2"/>
		
			<rect x="735.2" y="908.5" transform="matrix(0.2442 -0.9697 0.9697 0.2442 -336.0129 1431.1804)" class="st3" width="29.8" height="45.2"/>
		
			<rect x="794.6" y="923.5" transform="matrix(0.2442 -0.9697 0.9697 0.2442 -305.6235 1500.0648)" class="st3" width="29.8" height="45.2"/>
	</g>
	<g>
		
			<rect x="299.6" y="633.6" transform="matrix(0.2442 -0.9697 0.9697 0.2442 -398.689 800.9458)" class="st4" width="29.8" height="45.2"/>
		
			<rect x="358.9" y="648.6" transform="matrix(0.2442 -0.9697 0.9697 0.2442 -368.3298 869.7861)" class="st4" width="29.8" height="45.2"/>
		
			<rect x="418.3" y="663.5" transform="matrix(0.2442 -0.9697 0.9697 0.2442 -337.9671 938.6359)" class="st4" width="29.8" height="45.2"/>
		
			<rect x="477.6" y="678.5" transform="matrix(0.2442 -0.9697 0.9697 0.2442 -307.6079 1007.4761)" class="st4" width="29.8" height="45.2"/>
		
			<rect x="537" y="693.4" transform="matrix(0.2442 -0.9697 0.9697 0.2442 -277.2453 1076.3259)" class="st4" width="29.8" height="45.2"/>
		
			<rect x="596.3" y="708.4" transform="matrix(0.2442 -0.9697 0.9697 0.2442 -246.886 1145.1661)" class="st4" width="29.8" height="45.2"/>
		
			<rect x="655.6" y="723.3" transform="matrix(0.2442 -0.9697 0.9697 0.2442 -216.5458 1213.9573)" class="st4" width="29.8" height="45.2"/>
		
			<rect x="715" y="738.2" transform="matrix(0.2442 -0.9697 0.9697 0.2442 -186.1712 1282.8373)" class="st4" width="29.8" height="45.2"/>
		
			<rect x="774.4" y="753.2" transform="matrix(0.2442 -0.9697 0.9697 0.2442 -155.7887 1351.7028)" class="st4" width="29.8" height="45.2"/>
		
			<rect x="833.7" y="768.1" transform="matrix(0.2442 -0.9697 0.9697 0.2442 -125.4106 1420.5922)" class="st4" width="29.8" height="45.2"/>
		
			<rect x="290.1" y="671.4" transform="matrix(0.2442 -0.9697 0.9697 0.2442 -442.5097 820.2684)" class="st4" width="29.8" height="45.2"/>
		
			<rect x="349.4" y="686.3" transform="matrix(0.2442 -0.9697 0.9697 0.2442 -412.1504 889.1085)" class="st4" width="29.8" height="45.2"/>
		
			<rect x="408.8" y="701.3" transform="matrix(0.2442 -0.9697 0.9697 0.2442 -381.7878 957.9583)" class="st4" width="29.8" height="45.2"/>
		
			<rect x="468.1" y="716.2" transform="matrix(0.2442 -0.9697 0.9697 0.2442 -351.4286 1026.7986)" class="st4" width="29.8" height="45.2"/>
		
			<rect x="527.4" y="731.2" transform="matrix(0.2442 -0.9697 0.9697 0.2442 -321.0659 1095.6483)" class="st4" width="29.8" height="45.2"/>
		
			<rect x="586.8" y="746.1" transform="matrix(0.2442 -0.9697 0.9697 0.2442 -290.7017 1164.4999)" class="st4" width="29.8" height="45.2"/>
		
			<rect x="646.1" y="761.1" transform="matrix(0.2442 -0.9697 0.9697 0.2442 -260.3664 1233.2798)" class="st4" width="29.8" height="45.2"/>
		
			<rect x="705.5" y="776" transform="matrix(0.2442 -0.9697 0.9697 0.2442 -229.9918 1302.1597)" class="st4" width="29.8" height="45.2"/>
		
			<rect x="764.8" y="791" transform="matrix(0.2442 -0.9697 0.9697 0.2442 -199.6094 1371.0251)" class="st4" width="29.8" height="45.2"/>
		
			<rect x="824.2" y="805.9" transform="matrix(0.2442 -0.9697 0.9697 0.2442 -169.2313 1439.9144)" class="st4" width="29.8" height="45.2"/>
		
			<rect x="280.6" y="709.1" transform="matrix(0.2442 -0.9697 0.9697 0.2442 -486.2728 839.5677)" class="st4" width="29.8" height="45.2"/>
		
			<rect x="339.9" y="724.1" transform="matrix(0.2442 -0.9697 0.9697 0.2442 -455.9137 908.4081)" class="st4" width="29.8" height="45.2"/>
		
			<rect x="399.3" y="739" transform="matrix(0.2442 -0.9697 0.9697 0.2442 -425.5509 977.2577)" class="st4" width="29.8" height="45.2"/>
		
			<rect x="458.6" y="754" transform="matrix(0.2442 -0.9697 0.9697 0.2442 -395.1917 1046.098)" class="st4" width="29.8" height="45.2"/>
		
			<rect x="518" y="768.9" transform="matrix(0.2442 -0.9697 0.9697 0.2442 -364.8128 1114.954)" class="st4" width="29.8" height="45.2"/>
		
			<rect x="577.3" y="783.8" transform="matrix(0.2442 -0.9697 0.9697 0.2442 -334.4536 1183.7942)" class="st4" width="29.8" height="45.2"/>
		
			<rect x="636.6" y="798.8" transform="matrix(0.2442 -0.9697 0.9697 0.2442 -304.1246 1252.5903)" class="st4" width="29.8" height="45.2"/>
		
			<rect x="696" y="813.7" transform="matrix(0.2442 -0.9697 0.9697 0.2442 -273.7437 1321.4541)" class="st4" width="29.8" height="45.2"/>
		
			<rect x="755.3" y="828.7" transform="matrix(0.2442 -0.9697 0.9697 0.2442 -243.3725 1390.3246)" class="st4" width="29.8" height="45.2"/>
		
			<rect x="814.7" y="843.6" transform="matrix(0.2442 -0.9697 0.9697 0.2442 -212.9944 1459.214)" class="st4" width="29.8" height="45.2"/>
		
			<rect x="360.1" y="769.3" transform="matrix(0.2442 -0.9697 0.9697 0.2442 -484.4965 962.1584)" class="st4" width="29.8" height="45.2"/>
		
			<rect x="419.4" y="784.2" transform="matrix(0.2442 -0.9697 0.9697 0.2442 -454.1374 1030.9988)" class="st4" width="29.8" height="45.2"/>
		
			<rect x="478.8" y="799.2" transform="matrix(0.2442 -0.9697 0.9697 0.2442 -423.7698 1099.8597)" class="st4" width="29.8" height="45.2"/>
		
			<rect x="538.1" y="814.1" transform="matrix(0.2442 -0.9697 0.9697 0.2442 -393.4106 1168.7)" class="st4" width="29.8" height="45.2"/>
		
			<rect x="597.5" y="829.1" transform="matrix(0.2442 -0.9697 0.9697 0.2442 -363.0513 1237.5402)" class="st4" width="29.8" height="45.2"/>
		
			<rect x="656.8" y="844" transform="matrix(0.2442 -0.9697 0.9697 0.2442 -332.6887 1306.39)" class="st4" width="29.8" height="45.2"/>
		
			<rect x="716.2" y="859" transform="matrix(0.2442 -0.9697 0.9697 0.2442 -302.3294 1375.2303)" class="st4" width="29.8" height="45.2"/>
		
			<rect x="285.9" y="735.3" transform="matrix(0.2442 -0.9697 0.9697 0.2442 -522.4551 876.0919)" class="st4" width="29.8" height="75.8"/>
		
			<rect x="790.3" y="862.3" transform="matrix(0.2442 -0.9697 0.9697 0.2442 -264.3897 1461.2478)" class="st4" width="29.8" height="75.8"/>
		
			<rect x="261.6" y="784.6" transform="matrix(0.2442 -0.9697 0.9697 0.2442 -573.8316 878.1748)" class="st4" width="29.8" height="45.2"/>
		
			<rect x="320.9" y="799.5" transform="matrix(0.2442 -0.9697 0.9697 0.2442 -543.4675 947.0263)" class="st4" width="29.8" height="45.2"/>
		
			<rect x="380.3" y="814.5" transform="matrix(0.2442 -0.9697 0.9697 0.2442 -513.1047 1015.8761)" class="st4" width="29.8" height="45.2"/>
		
			<rect x="528.6" y="760" transform="matrix(0.2442 -0.9697 0.9697 0.2442 -437.19 1188.0035)" class="st4" width="29.8" height="228.9"/>
		
			<rect x="677" y="889.2" transform="matrix(0.2442 -0.9697 0.9697 0.2442 -361.3088 1360.0774)" class="st4" width="29.8" height="45.2"/>
		
			<rect x="736.3" y="904.2" transform="matrix(0.2442 -0.9697 0.9697 0.2442 -330.9265 1428.943)" class="st4" width="29.8" height="45.2"/>
		
			<rect x="795.7" y="919.1" transform="matrix(0.2442 -0.9697 0.9697 0.2442 -300.5482 1497.8323)" class="st4" width="29.8" height="45.2"/>
	</g>
	
		<rect x="517.3" y="589.2" transform="matrix(0.2442 -0.9697 0.9697 0.2442 -508.5593 1219.4524)" class="st5" width="21.5" height="693.5"/>
	
		<rect x="562.8" y="632.2" transform="matrix(0.2442 -0.9697 0.9697 0.2442 -162.4191 1066.8009)" class="st6" width="80.7" height="10.8"/>
</g>
<g transform="translate(0 1)">
	<path class="st7" d="M1642.7,209.7l-43.2-95.9c-1.6-2-3.5-4.5-5.1-6.5c-10.2-16.3-31.6-23-51.7-16.8l0,0
		c-41.3,6.8-81.7,24-120.4,53.3l0,0c-18.2,10.7-27,30.8-22.3,49.6c3.5,24.7,27.1,51.2,39.7,78c8.3,17.2,14.2,35.4,16.1,54.8
		c2,17.9-2.7,42.2,5.2,60.2c29.6,66.9,89.9,81.3,152.9,53.4s90.3-104.6,60.7-171.5c-7-15.8-16.8-29.6-27.9-41.4L1642.7,209.7z"/>
	<path class="st8" d="M1459.9,384.1c-7.1-17.7-2.5-40.6-4.5-58.5c-2.5-19.1-7.8-37.6-16.1-54.8c-0.2-0.6-0.5-1.1-0.5-1.1
		C1478.5,316,1532.4,384.3,1459.9,384.1"/>
	<path class="st7" d="M1528.5,221.9L1528.5,221.9c6.8-3,10.1-10.5,7.4-16.7l-19.9-45c-2.7-6.2-10.5-8.8-17.3-5.8
		c-6.8,3-10.1,10.5-7.4,16.7l19.9,45C1513.9,222.3,1521.7,224.9,1528.5,221.9"/>
	<path class="st8" d="M1530.9,227.6c-10.5,4.6-21.8,0.9-26-8.7l-19.9-45c-4.2-9.6,0.6-20.4,11.1-25.1s21.8-0.9,26,8.7l19.9,45
		C1546.2,212,1541.4,222.9,1530.9,227.6z M1501.1,160.1c-3.7,1.6-5.2,5-3.7,8.4l19.9,45c1.5,3.4,5,4.5,8.7,2.9
		c3.7-1.6,5.2-5,3.7-8.4l-19.9-45C1508.2,159.6,1504.8,158.4,1501.1,160.1z"/>
	<g transform="translate(19)">
		<path class="st7" d="M1479.6,154.4l-19.9-45"/>
		<path class="st8" d="M1482.1,160.1c-3.7,1.6-7.2,0.5-8.7-2.9l-19.9-45c-1.5-3.4,0-6.7,3.7-8.4c3.7-1.6,7.2-0.5,8.7,2.9l19.9,45
			C1487.2,155.1,1485.8,158.4,1482.1,160.1z"/>
	</g>
	<g transform="translate(19 20)">
		<path class="st7" d="M1509.5,201.9l14.9,33.8"/>
		<path class="st8" d="M1526.9,241.3c-3.7,1.6-7.2,0.5-8.7-2.9l-14.9-33.8c-1.5-3.4,0-6.7,3.7-8.4c3.7-1.6,7.2-0.5,8.7,2.9
			l14.9,33.8C1532.1,236.3,1530.6,239.7,1526.9,241.3z"/>
	</g>
	<path class="st9" d="M1554.9,365c5.5,12.4,21.1,17.6,34.7,11.6c13.6-6,20.2-21.1,14.7-33.4s-21.1-17.6-34.7-11.6
		C1556,337.6,1549.4,352.6,1554.9,365"/>
	<path class="st8" d="M1642.7,209.7l-1.7-0.6c-2.2,46.7-13,162.5,45.7,111.6c-0.3-17.4-4.4-35-11.9-51.9
		c-7-15.8-16.8-29.6-27.9-41.4L1642.7,209.7z"/>
</g>
<path class="st9" d="M1667.1,659.5c-14.7,10-34.8,6.2-44.8-8.5c-30.9-45.3-92.8-57-138.2-26.2c-45.3,30.9-57,92.8-26.2,138.1
	c10,14.7,6.2,34.8-8.5,44.8c-14.7,10-34.8,6.2-44.8-8.5c-50.9-74.7-31.6-176.9,43.1-227.8c74.7-50.9,176.9-31.6,227.8,43.1
	C1685.6,629.3,1681.8,649.4,1667.1,659.5z"/>
<path class="st9" d="M1584.1,549.1c-28-0.1-56.4,7.9-81.2,24.8c-44,30-66,80.3-62.1,129.9c1-30.7,16.1-60.5,43.3-79
	c45.3-30.9,107.3-19.1,138.2,26.2c10,14.7,30.1,18.5,44.8,8.5s18.5-30.1,8.5-44.8C1652.9,581.4,1620.1,559.1,1584.1,549.1z"/>
<path class="st10" d="M1632.4,644.1c-39.9,27.2-50.2,81.5-23,121.4l39.6,58.1c27.2,39.9,81.6,50.2,121.4,23l27-18.4
	c39.9-27.2,50.2-81.5,23-121.4l-39.6-58.1c-27.2-39.9-81.6-50.2-121.4-23L1632.4,644.1L1632.4,644.1z"/>
<path class="st11" d="M1793.4,725.1c27.2,39.9,16.9,94.2-23,121.4c-39.9,27.2-94.2,16.9-121.4-23l-39.6-58.1
	c-27.2-39.9-16.9-94.2,23-121.4c39.9-27.2,94.2-16.9,121.4,23L1793.4,725.1L1793.4,725.1z"/>
<g>
	<path class="st10" d="M1764.2,733.1c19.6,28.7,12.2,67.8-16.5,87.4s-67.8,12.2-87.4-16.5l-28.5-41.8
		c-19.6-28.7-12.2-67.8,16.5-87.3c28.7-19.6,67.8-12.2,87.4,16.5L1764.2,733.1L1764.2,733.1z"/>
	<path class="st10" d="M1421.9,787.5c-39.9,27.2-50.2,81.5-23,121.4l39.6,58.1c27.2,39.9,81.6,50.2,121.4,23l27-18.4
		c39.9-27.2,50.2-81.5,23-121.4l-39.6-58.1c-27.2-39.9-81.6-50.2-121.4-23L1421.9,787.5L1421.9,787.5z"/>
</g>
<path class="st11" d="M1582.9,868.5c27.2,39.9,16.9,94.2-23,121.4c-39.9,27.2-94.2,16.9-121.4-23l-39.6-58.1
	c-27.2-39.9-16.9-94.2,23-121.4s94.2-16.9,121.4,23L1582.9,868.5z"/>
<path class="st9" d="M1553.7,876.5c19.6,28.7,12.2,67.8-16.5,87.4c-28.7,19.6-67.8,12.2-87.4-16.5l-28.5-41.8
	c-19.6-28.7-12.2-67.8,16.5-87.3c28.7-19.6,67.8-12.2,87.4,16.5L1553.7,876.5z"/>
<circle class="st12" cx="1487.5" cy="891.1" r="38"/>
<rect x="1663.4" y="875.3" transform="matrix(0.8263 -0.5632 0.5632 0.8263 -217.9491 1099.5568)" class="st10" width="20.8" height="55.7"/>
<g>
	
		<rect x="1653.3" y="885.4" transform="matrix(0.8263 -0.5632 0.5632 0.8263 -211.3661 1091.3123)" class="st11" width="20.8" height="6"/>
	
		<rect x="1659.8" y="894.9" transform="matrix(0.8263 -0.5632 0.5632 0.8263 -215.5981 1096.6135)" class="st11" width="20.8" height="6"/>
</g>
<path d="M1679.9,606.8c-54.2-75.6-159.5-94.6-236.7-42c-77.4,52.8-98.2,158-47.2,236c-24.9,31.9-27.7,77.5-3.7,112.6l39.6,58.1
	c27.3,40,79.9,52.8,122,31.4l3.3,4.8c25.4,37.3,76.4,46.9,113.7,21.5c16.9-11.5,28.8-28.8,33.5-48.8c4.1-17.4,2.4-35.4-4.6-51.5
	l2.9-2c3.7-2.5,4.6-7.5,2.1-11.2l-31.4-46.1c-2.5-3.7-7.5-4.6-11.2-2.1l-2.1,1.4l-6.1-9c-2.5-3.7-7.5-4.6-11.2-2.1
	s-4.6,7.5-2.1,11.2l6.1,9l-1.7,1.2c-3.7,2.5-4.6,7.5-2.1,11.2l31.4,46.1c2.5,3.7,7.5,4.6,11.2,2.1l0.6-0.4
	c4.7,12.2,5.6,25.6,2.5,38.5c-3.8,16-13.3,29.9-26.9,39.1c-29.9,20.4-70.8,12.6-91.2-17.3l-2.8-4.2l23.9-16.3
	c43.5-29.7,54.8-89.2,25.1-132.7l-39.6-58.1c-25.9-38.1-74.8-51.5-115.7-34.3c-24.1-41-12.6-94.5,27.3-121.7
	c40-27.3,94.1-18.3,123.4,19.3c-30.1,31.9-35.1,81.6-9.4,119.2l39.6,58.1c29.7,43.5,89.2,54.8,132.7,25.1l27-18.4
	c43.5-29.7,54.8-89.2,25.1-132.7l-39.6-58.1C1763.3,608.5,1719.1,594.5,1679.9,606.8z M1660.8,888.1l3.8-2.6l22.3,32.7l-3.8,2.6
	L1660.8,888.1z M1532.6,957.2c-25,17-59.1,10.5-76.1-14.4l-28.5-41.8c-17-25-10.6-59.1,14.4-76.1c25-17,59.1-10.5,76.1,14.4
	l28.5,41.8C1564,906.1,1557.6,940.2,1532.6,957.2z M1563.7,796.6l39.6,58.1c19.3,28.4,17.7,65-1.4,91.3c8.3-26.8,4.7-57-12.3-82
	l-39.6-58.1c-17-25-43.8-39.3-71.8-41.4C1509.7,756.4,1544.4,768.2,1563.7,796.6z M1536.7,815l39.6,58.1
	c23.9,35.1,15.8,82.7-17.8,108l-10.5-15.3c27-23.2,32.9-63.6,12.4-93.7l-28.5-41.8c-22-32.3-66.3-40.7-98.6-18.7
	c-32.3,22-40.7,66.3-18.7,98.6l28.5,41.8c20.5,30,60.1,39.4,91.5,22.9l10,14.7c-34.7,16.4-77.2,5.6-99.4-27l-39.6-58.1
	c-24.6-36.1-15.3-85.6,20.9-110.2C1462.6,769.5,1512.1,778.9,1536.7,815z M1432.7,704c-0.6,19.4,4.1,39,14.3,56.8
	c-0.9,0.5-1.7,1.1-2.6,1.7l-27,18.4c-3.6,2.4-6.9,5-10,7.8c-43.4-70.4-24.1-163.5,44.9-210.5c23.2-15.8,49.2-24.5,75.5-26.5
	c-10.3,4.1-20.2,9.3-29.5,15.6C1453.7,597.7,1428.6,650,1432.7,704z M1479.6,618.1c-6.3,4.3-12.1,9.2-17.2,14.6
	c10.1-20.7,25.5-38.7,45.1-52.1c22.4-15.3,48.6-23.3,75.6-23.4c31.6,9,60.5,28,81.5,55.9c-3.3,1.7-6.6,3.7-9.7,5.8l-27,18.4
	c-1.2,0.8-2.4,1.7-3.6,2.6C1589.5,596.4,1526.3,586.2,1479.6,618.1z M1765.8,839.9c-36.1,24.6-85.6,15.3-110.2-20.9l-39.6-58.1
	c-24.6-36.1-15.3-85.6,20.9-110.2s85.6-15.3,110.2,20.9l39.6,58.1C1811.3,765.8,1802,815.2,1765.8,839.9z M1813.7,711.2
	c19.3,28.4,17.7,65-1.4,91.3c8.3-26.8,4.7-57-12.3-82l-39.6-58.1c-17-25-43.8-39.3-71.8-41.4c31.5-8.2,66.2,3.7,85.5,32.1
	L1813.7,711.2L1813.7,711.2z M1643.8,668.1c-32.3,22-40.7,66.3-18.7,98.6l28.5,41.8c22,32.3,66.3,40.7,98.6,18.7
	s40.7-66.3,18.7-98.6l-28.5-41.8C1720.3,654.5,1676.1,646.1,1643.8,668.1z M1757.5,737.7c17,25,10.6,59.1-14.4,76.1
	c-25,17-59.1,10.5-76.1-14.4l-28.5-41.8c-17-25-10.6-59.1,14.4-76.1c25-17,59.1-10.5,76.1,14.4L1757.5,737.7L1757.5,737.7z"/>
<g id="SVGRepo_iconCarrier_00000003064907949745592870000009880671527525734788_">
	<path class="st13" d="M652.2,218C623.6,174.5,526.8,97.1,522.7,93.8c-1.4-1.1-3.1-1.8-4.9-1.8L507,91.6l-4.7-7.8
		c-2-3.3-5.8-4.9-9.4-3.9l-62.6,17.3c-2.4,0.7-4.4,2.5-5.5,4.9l-9.9,23.3l-81.4,52.8l-24.4-1c-2.5-0.1-5,1-6.6,2.9l-42.5,50.8
		c-2.5,2.9-2.7,7.2-0.7,10.6l4.7,7.8l-4.4,10.2c-0.7,1.7-0.9,3.5-0.6,5.4c1,5.3,25.3,129.7,50.2,175.6
		c14.6,26.8,34.3,33.8,48.2,34.9c15,1.2,26.5-4,27-4.2c2.4-1.1,4.1-3.3,4.7-6c0.1-0.2,5.3-24,12.3-48.8
		c12.9-45.9,19.3-52.6,20.1-53.3l114.2-74c1-0.5,9.6-3.6,54.9,4.7c24.5,4.4,47.3,9.9,47.5,10c2.2,0.5,4.5,0.1,6.3-1.1
		c0.3-0.2,0.6-0.4,0.9-0.7c0.4-0.4,10-8.8,15.5-23.3C666.3,264.8,668.9,243.4,652.2,218z"/>
	
		<ellipse transform="matrix(0.9849 -0.1732 0.1732 0.9849 -41.8623 62.3849)" class="st14" cx="336.5" cy="271.1" rx="25.4" ry="26.7"/>
	<path class="st15" d="M318.4,240.8c-15.8,10.2-20.4,32.1-10.4,48.8c10,16.7,31,22,46.8,11.8c15.8-10.2,20.4-32.1,10.4-48.8
		C355.1,235.8,334.1,230.5,318.4,240.8z M345.6,286.2c-7.9,5.1-18.4,2.5-23.4-5.9s-2.7-19.3,5.2-24.4c7.9-5.1,18.4-2.5,23.4,5.9
		C355.8,270.1,353.5,281.1,345.6,286.2z"/>
	
		<ellipse transform="matrix(0.9849 -0.1732 0.1732 0.9849 -35.9484 87.3835)" class="st14" cx="482.7" cy="249.7" rx="25.4" ry="26.7"/>
	<path class="st15" d="M500.9,280c-15.8,10.2-36.7,4.9-46.7-11.8c-10-16.7-5.4-38.6,10.4-48.8c15.8-10.2,36.7-4.9,46.8,11.8
		C521.3,247.8,516.7,269.7,500.9,280z M473.6,234.5c-7.9,5.1-10.2,16.1-5.2,24.4c5,8.4,15.5,11,23.4,5.9s10.2-16.1,5.2-24.4
		C492,232.1,481.5,229.4,473.6,234.5z"/>
	<g>
		<path class="st14" d="M424.9,318.7c-4,2.6-9.2,1.2-11.7-2.9L395,285.5c-2.5-4.2-1.3-9.6,2.6-12.2c4-2.6,9.2-1.2,11.7,2.9
			l18.2,30.3C430,310.7,428.9,316.2,424.9,318.7z"/>
		<path class="st14" d="M430.1,294.3l-28.6,18.5c-4,2.6-9.2,1.2-11.7-2.9c-2.5-4.2-1.4-9.6,2.6-12.2l28.6-18.5
			c4-2.6,9.2-1.2,11.7,2.9S434,291.7,430.1,294.3z"/>
	</g>
	<path class="st16" d="M470.5,134.8c4.6,1.1,7.5,5.9,6.4,10.7c-1,4.8-5.5,7.7-10.1,6.6c-4.6-1.1-7.4-5.9-6.4-10.7
		C461.4,136.6,465.9,133.7,470.5,134.8z"/>
	<path class="st17" d="M497.6,180.1c4.6,1.1,7.5,5.9,6.4,10.7c-1,4.8-5.5,7.7-10.1,6.6c-4.6-1.1-7.5-5.9-6.4-10.7
		C488.5,181.9,493.1,178.9,497.6,180.1z"/>
	<path class="st18" d="M505.5,143.5c4.6,1.1,7.4,5.9,6.4,10.7c-1,4.8-5.5,7.7-10.1,6.6c-4.6-1.1-7.5-5.9-6.4-10.7
		C496.4,145.3,500.9,142.3,505.5,143.5z"/>
	<path class="st19" d="M462.6,171.3c4.6,1.1,7.5,5.9,6.4,10.7c-1,4.8-5.5,7.7-10.1,6.6c-4.6-1.1-7.5-5.9-6.4-10.7
		C453.5,173.1,458,170.1,462.6,171.3z"/>
	<polygon class="st20" points="333.6,178.1 363.9,200.5 421.1,163.4 415,125.3 	"/>
</g>
</svg>
