<?xml version="1.0" encoding="utf-8"?>
<!-- Generator: Adobe Illustrator 28.1.0, SVG Export Plug-In . SVG Version: 6.00 Build 0)  -->
<svg version="1.1" id="freepik_stories-blog-post" xmlns:svgjs="http://svgjs.com/svgjs"
	 xmlns="http://www.w3.org/2000/svg" xmlns:xlink="http://www.w3.org/1999/xlink" x="0px" y="0px" viewBox="0 0 429.1 356.2"
	 style="enable-background:new 0 0 429.1 356.2;" xml:space="preserve">
<style type="text/css">
	.st0{display:none;}
	.st1{display:inline;}
	.st2{fill:#F0F0F0;}
	.st3{fill:#5562F6;}
	.st4{opacity:0.2;enable-background:new    ;}
	.st5{fill:#FAFAFA;}
	.st6{opacity:0.5;fill:#FAFAFA;enable-background:new    ;}
	.st7{opacity:0.1;enable-background:new    ;}
	.st8{fill:#E0E0E0;}
	.st9{fill:#37474F;}
	.st10{fill:#263238;}
	.st11{fill:#455A64;}
	.st12{fill:#272727;}
	.st13{fill:none;}
	.st14{fill:#2F2F2F;}
	.st15{fill:#F28F8F;}
	.st16{fill:#005700;}
	.st17{fill:#FFA8A7;}
</style>
<g id="freepik--Floor--inject-3" class="st0">
	<g id="elctjqwst0ybt" class="st1">
		<path class="st2" d="M98.3,395.3c83.8,43.8,219.6,43.8,303.4,0s83.8-114.7,0-158.5s-219.6-43.8-303.4,0S14.5,351.5,98.3,395.3z"/>
	</g>
</g>
<g id="freepik--Plants--inject-3">
	<g id="eluw3tblbwmy">
		<path class="st3" d="M419.5,309.6c0,0,1-5.3,9.6-9.4c8.3-4,13.1-3.1,18.8-5.4s1.6-13-14-8.3c-14.3,4.4-15.7,16.8-15.7,16.8
			L419.5,309.6z"/>
	</g>
	<g id="elp72443klc3">
		<path class="st4" d="M419.5,309.6c0,0,1-5.3,9.6-9.4c8.3-4,13.1-3.1,18.8-5.4s1.6-13-14-8.3c-14.3,4.4-15.7,16.8-15.7,16.8
			L419.5,309.6z"/>
	</g>
	<g id="elcx67snydse">
		<path class="st5" d="M418,307.6c-0.1,0-0.1,0-0.2,0c-0.3-0.1-0.4-0.4-0.3-0.7c0,0,0,0,0,0c2-5.7,7-11,13.5-14.2
			c8.4-4.1,14.3-2.8,14.6-2.7c0.3,0.1,0.5,0.4,0.4,0.6s-0.4,0.5-0.6,0.4l0,0c-0.1,0-5.9-1.3-13.8,2.6c-6.2,3.1-11.1,8.1-13,13.6
			C418.4,307.5,418.2,307.6,418,307.6z"/>
	</g>
	<g id="elapbgyk48iu7">
		<path class="st3" d="M418.3,303c0,0,1-3,4.9-8.9c6.6-10.2,17.5-14.6,22.2-20.5c5.1-6.3-3.7-10.2-11.6-8c-4.5,1.3-8.7,5.4-10.9,8.2
			c-4.6,6.1-7.2,13.4-7.5,21L418.3,303z"/>
	</g>
	<g id="el0keh1d1h0x7">
		<path class="st5" d="M416.8,303.2L416.8,303.2c-0.3,0-0.5-0.3-0.5-0.6c0.5-6.6,2.3-13,5.5-18.9c6-10.8,14.9-14.6,15.3-14.8
			c0.3-0.1,0.6,0.1,0.7,0.4c0.1,0.2,0,0.5-0.2,0.6c-6.3,3.1-11.4,8.1-14.8,14.3c-3.1,5.7-4.9,11.9-5.4,18.4
			C417.3,303,417.1,303.2,416.8,303.2C416.8,303.2,416.8,303.2,416.8,303.2z"/>
	</g>
	<g id="elaen0meyfxv">
		<path class="st3" d="M126,312c-7.2-4.8-7.5-17.8-6.5-26c1.7-13-5-16-8.4-10.3c-1.6,2.8-3.7,8.9-3.5,15.9
			c0.4,11.1,5.2,24.3,16.8,29.1L126,312z"/>
	</g>
	<g id="elx836he1emgp">
		<path class="st4" d="M126,312c-7.2-4.8-7.5-17.8-6.5-26c1.7-13-5-16-8.4-10.3c-1.6,2.8-3.7,8.9-3.5,15.9
			c0.4,11.1,5.2,24.3,16.8,29.1L126,312z"/>
	</g>
	<g id="ell7b0l0tqt7">
		<path class="st5" d="M124.5,320c-0.1,0-0.2,0-0.3-0.1c-12.2-10.4-14.1-29-10.7-41.9c0.1-0.3,0.3-0.4,0.6-0.4s0.4,0.3,0.4,0.6
			c-3.3,12.6-1.5,30.8,10.4,40.9c0.2,0.2,0.2,0.5,0.1,0.7c0,0,0,0,0,0C124.8,319.9,124.7,320,124.5,320z"/>
	</g>
	<g id="elnp4y0ou9mm">
		<path class="st3" d="M136.8,336c-6.3,4.5-20.7,8.4-25.3,0.7c-4.3-7.2-1.4-10.3-10.3-9.1s-10.9-5.6-8.8-11.4s-6.6-14.2-0.3-20.7
			s10,7.1,13.7,8.5s5.9-1.7,10.2,0.6s4.7,11.8,8.8,11.9c6.8,0.3,18.1,0.3,19,6.3S136.8,336,136.8,336z"/>
	</g>
	<g id="elostkkn7teeo">
		<path class="st5" d="M139.4,333.4L139.4,333.4c-32.8-3.4-45.5-32-46.2-36.2c0-0.3,0.1-0.5,0.4-0.6s0.5,0.1,0.6,0.4
			c0.8,4.1,13.2,32,45.3,35.4c0.3,0,0.5,0.3,0.5,0.5c0,0,0,0,0,0C139.9,333.2,139.7,333.4,139.4,333.4z"/>
	</g>
	<g id="elvc0qtbpeu3">
		<path class="st5" d="M103.6,320.6c-2.1,0-4.1-0.2-6.2-0.5c-0.3-0.1-0.4-0.3-0.4-0.6c0-0.3,0.3-0.4,0.6-0.4c0,0,0,0,0,0
			c3.7,0.6,7.5,0.6,11.3,0c0.3-0.1,0.5,0.1,0.6,0.4c0.1,0.3-0.1,0.5-0.4,0.6c0,0,0,0,0,0C107.3,320.4,105.4,320.6,103.6,320.6z"/>
	</g>
	<g id="elv9yldxx8ul">
		<path class="st5" d="M113.4,323.5h-0.1c-0.3-0.1-0.4-0.3-0.4-0.6c1-4.5,1.3-9,0.7-13.6c0-0.3,0.1-0.5,0.4-0.6
			c0.3,0,0.5,0.1,0.6,0.4c0.6,4.7,0.3,9.4-0.7,14C113.8,323.4,113.6,323.6,113.4,323.5z"/>
	</g>
</g>
<g id="freepik--Icons--inject-3">
	<g id="elsgwraqqr3yl">
		<path class="st3" d="M52.1,284.4l15.7-9.1c1.5-0.8,3.3-0.8,4.9,0l2,1.1c1.4,0.9,2.3,2.5,2.4,4.2v18.1c-0.1,1.7-1,3.3-2.4,4.2
			L59,312.1c-1.5,0.8-3.3,0.8-4.9,0l-2-1.1c-1.4-0.9-2.3-2.5-2.4-4.2v-18.1C49.7,286.9,50.6,285.4,52.1,284.4z"/>
	</g>
	<g id="elgpkc020ac6q">
		<path class="st6" d="M52.1,284.4l15.7-9.1c1.5-0.8,3.3-0.8,4.9,0l2,1.1c1.4,0.9,2.3,2.5,2.4,4.2v18.1c-0.1,1.7-1,3.3-2.4,4.2
			L59,312.1c-1.5,0.8-3.3,0.8-4.9,0l-2-1.1c-1.4-0.9-2.3-2.5-2.4-4.2v-18.1C49.7,286.9,50.6,285.4,52.1,284.4z"/>
	</g>
	<g id="elwe6aauwqlw">
		<path class="st3" d="M77.1,280.7c0-1.6-1.1-2.2-2.4-1.4l-15.7,9.1c-1.4,0.9-2.3,2.5-2.4,4.2v18.1c0,1.5,1.1,2.2,2.4,1.4l15.7-9.1
			c1.4-0.9,2.3-2.5,2.4-4.2V280.7z"/>
	</g>
	<g id="elz0vcxlu9p2">
		<path class="st3" d="M49.6,306.8c0.1,1.7,1,3.3,2.4,4.2l2,1.1c1.4,0.7,3,0.8,4.5,0.2c-1.2,0.4-2-0.2-2-1.6v-18.1
			c0-0.8,0.3-1.7,0.7-2.4l-6.9-4c-0.4,0.7-0.7,1.6-0.7,2.4L49.6,306.8z"/>
	</g>
	<g id="eloi8ixfx92or">
		<path class="st7" d="M49.6,306.8c0.1,1.7,1,3.3,2.4,4.2l2,1.1c1.4,0.7,3,0.8,4.5,0.2c-1.2,0.4-2-0.2-2-1.6v-18.1
			c0-0.8,0.3-1.7,0.7-2.4l-6.9-4c-0.4,0.7-0.7,1.6-0.7,2.4L49.6,306.8z"/>
	</g>
	<g id="elci53zws5baw">
		<path class="st5" d="M60.1,293.8l13.4-7.7c0.3-0.2,0.6,0,0.6,0.4v9c0,0.5-0.3,0.9-0.6,1.1l-13.4,7.8c-0.4,0.2-0.7,0-0.7-0.4v-9
			C59.5,294.5,59.7,294.1,60.1,293.8z"/>
	</g>
	<polygon id="elze4c87xtxc" class="st8" points="24,222.3 32,224.9 38.7,213.9 32.2,225.9 	"/>
	<g id="elt5ula2h8wfk">
		<path class="st3" d="M52.1,238.7l15.7-9.1c1.5-0.8,3.3-0.8,4.9,0l2,1.1c1.4,0.9,2.3,2.5,2.4,4.2v18.1c-0.1,1.7-1,3.3-2.4,4.2
			l-15.7,9.1c-1.5,0.8-3.3,0.8-4.9,0l-2-1.1c-1.4-0.9-2.3-2.5-2.4-4.2v-18.1C49.7,241.2,50.6,239.6,52.1,238.7z"/>
	</g>
	<g id="el04u2pipd4nyr">
		<path class="st6" d="M52.1,238.7l15.7-9.1c1.5-0.8,3.3-0.8,4.9,0l2,1.1c1.4,0.9,2.3,2.5,2.4,4.2v18.1c-0.1,1.7-1,3.3-2.4,4.2
			l-15.7,9.1c-1.5,0.8-3.3,0.8-4.9,0l-2-1.1c-1.4-0.9-2.3-2.5-2.4-4.2v-18.1C49.7,241.2,50.6,239.6,52.1,238.7z"/>
	</g>
	<g id="elokim76u6lpo">
		<path class="st3" d="M77.1,235c0-1.6-1.1-2.2-2.4-1.4l-15.7,9.1c-1.4,0.9-2.3,2.5-2.4,4.2V265c0,1.5,1.1,2.2,2.4,1.4l15.7-9.1
			c1.4-0.9,2.3-2.5,2.4-4.2V235z"/>
	</g>
	<g id="elxdjysreq12l">
		<path class="st3" d="M49.6,261c0.1,1.7,1,3.3,2.4,4.2l2,1.1c1.4,0.7,3,0.8,4.5,0.2c-1.2,0.4-2-0.2-2-1.6v-18.1
			c0-0.8,0.3-1.7,0.7-2.4l-6.9-4c-0.4,0.7-0.7,1.6-0.7,2.4L49.6,261z"/>
	</g>
	<g id="eln9rhd22kmg">
		<path class="st7" d="M49.6,261c0.1,1.7,1,3.3,2.4,4.2l2,1.1c1.4,0.7,3,0.8,4.5,0.2c-1.2,0.4-2-0.2-2-1.6v-18.1
			c0-0.8,0.3-1.7,0.7-2.4l-6.9-4c-0.4,0.7-0.7,1.6-0.7,2.4L49.6,261z"/>
	</g>
	<g id="elseb28j4uf0e">
		<path class="st5" d="M66.6,257l-1.6-0.2c-2.2-0.2-4.8-1-4.8-4.2c0.1-2.3,1.4-4.5,3.3-5.8c1.4-0.8,2.7-0.5,3.1,0.7
			c0.5-1.8,1.6-3.3,3.1-4.3c1.8-1.1,3.3-0.2,3.3,1.9c0,3.1-2.6,7-4.8,9.7L66.6,257z"/>
	</g>
	<g id="el10l4rinnelba">
		<path class="st3" d="M52.1,193l15.7-9.1c1.5-0.8,3.3-0.8,4.9,0l2,1.1c1.4,0.9,2.3,2.5,2.4,4.2v18.1c-0.1,1.7-1,3.3-2.4,4.2
			L59,220.7c-1.5,0.8-3.3,0.8-4.9,0l-2-1.1c-1.4-0.9-2.3-2.5-2.4-4.2v-18.1C49.8,195.5,50.6,193.9,52.1,193z"/>
	</g>
	<g id="elfnhklcb2fq">
		<path class="st6" d="M52.1,193l15.7-9.1c1.5-0.8,3.3-0.8,4.9,0l2,1.1c1.4,0.9,2.3,2.5,2.4,4.2v18.1c-0.1,1.7-1,3.3-2.4,4.2
			L59,220.7c-1.5,0.8-3.3,0.8-4.9,0l-2-1.1c-1.4-0.9-2.3-2.5-2.4-4.2v-18.1C49.8,195.5,50.6,193.9,52.1,193z"/>
	</g>
	<g id="elci0p8sh1o7s">
		<path class="st3" d="M58.9,220.7c-1.3,0.8-2.4,0.1-2.4-1.4v-18.1c0.1-1.7,1-3.3,2.4-4.2l15.7-9.1c1.3-0.8,2.4-0.1,2.4,1.4v18.1
			c-0.1,1.7-1,3.3-2.4,4.2"/>
	</g>
	<g id="elvejvqq4587p">
		<path class="st3" d="M49.6,215.3c0.1,1.7,1,3.3,2.4,4.2l2,1.1c1.4,0.7,3,0.8,4.5,0.2c-1.2,0.4-2-0.2-2-1.6v-18.1
			c0-0.8,0.3-1.7,0.7-2.4l-6.9-4c-0.4,0.7-0.7,1.6-0.7,2.4L49.6,215.3z"/>
	</g>
	<g id="el2dtgczxduzj">
		<path class="st7" d="M49.6,215.3c0.1,1.7,1,3.3,2.4,4.2l2,1.1c1.4,0.7,3,0.8,4.5,0.2c-1.2,0.4-2-0.2-2-1.6v-18.1
			c0-0.8,0.3-1.7,0.7-2.4l-6.9-4c-0.4,0.7-0.7,1.6-0.7,2.4L49.6,215.3z"/>
	</g>
	<g id="elehudxc8v7yh">
		<path class="st5" d="M63.9,204c0,0,1.8-4.2,2-4.8c0.1-1,0.1-2.1,0-3.1c0-0.4,1.7-1.5,2.2-0.4c0.5,1.2,0.6,2.6,0.3,3.9l4.1-2.4
			c0.9-0.5,1.2,0.2,1.2,0.8c0,0.6-0.3,1.3-0.7,1.8c0,0,0.8-0.2,0.8,0.9c0,0.8-0.4,1.5-1,2c0,0,0.3,0.2,0.3,1c-0.1,0.8-0.5,1.5-1.1,2
			c0.1,0.3,0.2,0.7,0.2,1c-0.1,1-0.7,1.8-1.5,2.3l-6.7,3.9L63.9,204z"/>
	</g>
	<polygon id="elh35ce301vli" class="st5" points="24.6,144.4 27.5,142.7 27.5,132.5 24.5,134.2 	"/>
	<g id="elpo7rheqbyse">
		<path class="st3" d="M43.5,139.5l24.1-13.9c2.3-1.2,5.1-1.2,7.5,0l3,1.8c2.2,1.4,3.6,3.8,3.7,6.5v27.8c-0.2,2.6-1.5,5-3.7,6.4
			l-24,13.9c-2.3,1.2-5.1,1.2-7.5,0l-3-1.8c-2.2-1.4-3.6-3.8-3.7-6.5v-27.8C39.9,143.3,41.3,140.9,43.5,139.5z"/>
	</g>
	<g id="elg1unt5sq6xq">
		<path class="st7" d="M43.5,139.5l24.1-13.9c2.3-1.2,5.1-1.2,7.5,0l3,1.8c2.2,1.4,3.6,3.8,3.7,6.5v27.8c-0.2,2.6-1.5,5-3.7,6.4
			l-24,13.9c-2.3,1.2-5.1,1.2-7.5,0l-3-1.8c-2.2-1.4-3.6-3.8-3.7-6.5v-27.8C39.9,143.3,41.3,140.9,43.5,139.5z"/>
	</g>
	<g id="el0dwlvq1u1l3a">
		<path class="st3" d="M81.8,133.6c0-1.4-0.7-4.9-4.2-2.7S56.4,143.1,54,144.5c-1.7,0.9-3,2.4-3.8,4.1l1.9,1.9L81.8,133.6z"/>
	</g>
	<g id="eljs4rxw9vgep">
		<path class="st4" d="M81.8,133.6c0-1.4-0.7-4.9-4.2-2.7S56.4,143.1,54,144.5c-1.7,0.9-3,2.4-3.8,4.1l1.9,1.9L81.8,133.6z"/>
	</g>
	<g id="el0far9tpxwsvp">
		<path class="st3" d="M54,181.9c-2.1,1.2-3.7,0.2-3.7-2.1V152c0.1-2.6,1.5-5,3.7-6.5l24-13.9c2.1-1.2,3.7-0.2,3.7,2.2v27.8
			c-0.2,2.6-1.5,5-3.7,6.4"/>
	</g>
	<g id="el7wm6rwobhaf">
		<path class="st7" d="M54,181.9c-2.1,1.2-3.7,0.2-3.7-2.1V152c0.1-2.6,1.5-5,3.7-6.5l24-13.9c2.1-1.2,3.7-0.2,3.7,2.2v27.8
			c-0.2,2.6-1.5,5-3.7,6.4"/>
	</g>
	<g id="elatvb6c5eh9">
		<path class="st3" d="M39.8,173.7c0.1,2.6,1.5,5,3.7,6.5l3,1.8c2.1,1.1,4.6,1.2,6.8,0.3c-1.8,0.7-3.1-0.3-3.1-2.4V152
			c0-1.3,0.4-2.6,1.1-3.7l-10.5-6.1c-0.7,1.1-1,2.4-1.1,3.7L39.8,173.7z"/>
	</g>
	<g id="elqhg1u3sjjp">
		<path class="st4" d="M39.8,173.7c0.1,2.6,1.5,5,3.7,6.5l3,1.8c2.1,1.1,4.6,1.2,6.8,0.3c-1.8,0.7-3.1-0.3-3.1-2.4V152
			c0-1.3,0.4-2.6,1.1-3.7l-10.5-6.1c-0.7,1.1-1,2.4-1.1,3.7L39.8,173.7z"/>
	</g>
	<g id="elm38zq205l5">
		<path class="st5" d="M66.7,142.3l3.1,5.5l7-2.9c0.7-0.3,0.9,0.5,0.4,1.3l-5.1,8.6l1.2,7.3c0.1,0.7-0.6,1.7-1.2,1.7l-6.3-0.2
			l-6.2,7.4c-0.6,0.7-1.3,0.5-1.2-0.3l1.2-8.8l-5-2.8c-0.5-0.3-0.2-1.4,0.5-1.8l7-5.2l3.1-9.1C65.6,142.2,66.4,141.8,66.7,142.3z"/>
	</g>
</g>
<g id="freepik--Shadow--inject-3">
	<g id="elanuar738tui">
		<path class="st8" d="M405,269.2c-12,5.7-31.4,5.7-43.4,0s-12-15,0-20.7s31.4-5.7,43.4,0S416.9,263.5,405,269.2z"/>
	</g>
</g>
<g id="freepik--Device--inject-3">
	<g id="eluipqaz55ap">
		<path class="st9" d="M132.2,335.5c0.2,2.9,1.8,5.6,4.3,7.2l121.3,70c2.7,1.4,5.9,1.4,8.7,0l166-95.9c4-2.1,5.5-7,3.4-11
			c-0.8-1.4-1.9-2.6-3.4-3.4l-121.3-70c-2.7-1.4-5.9-1.4-8.7,0l-166,95.9C134,329.8,132.4,332.5,132.2,335.5z"/>
	</g>
	<g id="el76ph99xp2px">
		<path class="st10" d="M182.3,301.9l-45.7,26.4c-4,2.1-5.5,7-3.4,11c0.8,1.4,1.9,2.6,3.4,3.4l121.3,70c1.3,0.7,2.8,1,4.3,1V301.9
			H182.3z"/>
	</g>
	<g id="elpl7g896w8jr">
		<path class="st11" d="M128.1,328.4c-2.4-1.7-4-4.4-4.1-7.3V176.3c0.2-3,1.8-5.8,4.3-7.5l166-95.8c3.8-2.4,8.8-1.2,11.2,2.6
			c0.9,1.4,1.3,3,1.2,4.6v144.7c-0.2,3-1.8,5.8-4.3,7.5l-166,95.9C133.9,329.7,130.8,329.7,128.1,328.4z"/>
	</g>
	<g id="elci1it9q9ab">
		<path class="st10" d="M144.4,183l-19-11c-0.8,1.3-1.2,2.8-1.3,4.3v144.8c-0.2,4.5,3.4,8.3,7.8,8.4c1.6,0.1,3.2-0.4,4.6-1.2
			l18.9-10.9L144.4,183z"/>
	</g>
	<g id="el7zttw6zx6m5">
		<path class="st9" d="M132.2,181v144.8c0,2.8,1.9,3.9,4.3,2.5l166-95.9c2.6-1.7,4.2-4.5,4.3-7.5V80.2c0-2.8-1.9-3.9-4.3-2.5
			l-166,95.8C134,175.2,132.4,177.9,132.2,181z"/>
	</g>
	<g id="eltmht9jrpy4">
		<path class="st11" d="M136.5,333.3l121.3,70.1c2.7,1.4,5.9,1.4,8.7,0l166-95.9c2.4-1.4,2.4-3.6,0-5l-121.3-70.1
			c-2.7-1.4-5.9-1.4-8.7,0l-166,95.9C134.1,329.7,134.1,331.9,136.5,333.3z"/>
	</g>
	<g id="ellnmmhqtaoqp">
		<path class="st12" d="M138.9,181.5l161.3-93.2c1.4-0.8,2.6-0.2,2.6,1.5v125.3c-0.1,1.8-1.1,3.5-2.6,4.5l-161.3,93.1
			c-1.4,0.8-2.6,0.2-2.6-1.5V186C136.4,184.2,137.3,182.5,138.9,181.5z"/>
	</g>
	<g id="elkmxeq9lx02b">
		<path class="st10" d="M150.6,329.5l154.1-89c1.4-0.7,3-0.7,4.3,0l7.9,4.6c0.7,0.2,1.1,1,0.8,1.7c-0.1,0.4-0.4,0.7-0.8,0.8
			l-154.1,89c-1.4,0.7-3,0.7-4.3,0l-7.9-4.6c-0.7-0.3-1-1-0.8-1.7C150,329.9,150.3,329.7,150.6,329.5z"/>
	</g>
	<g id="elv30m2dill2s">
		<path class="st10" d="M170.9,341.3l154.1-89c1.4-0.7,3-0.7,4.3,0l48.5,28c0.7,0.2,1.1,1,0.8,1.7c-0.1,0.4-0.4,0.7-0.8,0.8
			l-153.9,88.9c-1.4,0.7-3,0.7-4.3,0l-48.6-27.9c-0.7-0.2-1.1-1-0.8-1.7C170.2,341.7,170.5,341.4,170.9,341.3z"/>
	</g>
	<g id="el1rncw1c9q94">
		<path class="st8" d="M309,292.3l4.8-2.8c0.2-0.1,0.2-0.3,0-0.4l-5.6-3.2c-0.2-0.1-0.5-0.1-0.8,0l-4.8,2.8c-0.2,0.1-0.2,0.3,0,0.4
			l5.6,3.2C308.5,292.4,308.8,292.4,309,292.3z M299.5,281.2l-4.8,2.8c-0.2,0.1-0.2,0.3,0,0.5l5.6,3.2c0.2,0.1,0.5,0.1,0.8,0
			l4.8-2.8c0.2-0.1,0.2-0.3,0-0.4l-5.6-3.2C300.1,281.1,299.8,281.1,299.5,281.2z M283.9,290.2l-8.2,4.8c-0.2,0.1-0.2,0.3,0,0.5
			l5.6,3.2c0.2,0.1,0.5,0.1,0.8,0l8.2-4.7c0.2-0.1,0.2-0.3,0-0.4l-5.6-3.2C284.5,290.2,284.2,290.1,283.9,290.2z M292.5,285.3
			l-4.8,2.8c-0.2,0.1-0.2,0.3,0,0.4l5.6,3.2c0.2,0.1,0.5,0.1,0.8,0l4.8-2.8c0.2-0.1,0.2-0.3,0-0.4l-5.6-3.2
			C293,285.2,292.7,285.2,292.5,285.3z M273.6,296.2l-4.8,2.8c-0.2,0.1-0.2,0.3,0,0.5l5.6,3.2c0.2,0.1,0.5,0.1,0.8,0l4.8-2.8
			c0.2-0.1,0.2-0.3,0-0.4l-5.6-3.2C274.1,296.1,273.8,296.1,273.6,296.2L273.6,296.2z M266.5,300.3l-4.8,2.8c-0.2,0.1-0.2,0.3,0,0.5
			l5.6,3.2c0.2,0.1,0.5,0.1,0.8,0l4.8-2.8c0.2-0.1,0.2-0.3,0-0.4l-5.6-3.2C267,300.2,266.7,300.2,266.5,300.3L266.5,300.3z
			 M288.5,313.4l4.8-2.8c0.2-0.1,0.2-0.3,0-0.4l-5.6-3.2c-0.2-0.1-0.5-0.1-0.8,0l-4.8,2.8c-0.2,0.1-0.2,0.3,0,0.4l5.6,3.2
			C287.9,313.6,288.2,313.6,288.5,313.4L288.5,313.4z M281.4,317.5l4.8-2.8c0.2-0.1,0.2-0.3,0-0.4l-5.6-3.3c-0.2-0.1-0.5-0.1-0.8,0
			l-4.8,2.8c-0.2,0.1-0.2,0.3,0,0.4l5.6,3.2C280.8,317.6,281.1,317.6,281.4,317.5L281.4,317.5z M274.3,321.6l4.8-2.8
			c0.2-0.1,0.2-0.3,0-0.4l-5.6-3.2c-0.2-0.1-0.5-0.1-0.8,0l-4.8,2.8c-0.2,0.1-0.2,0.3,0,0.4l5.6,3.2
			C273.8,321.7,274.1,321.7,274.3,321.6L274.3,321.6z M267.3,325.6l4.8-2.8c0.2-0.1,0.2-0.3,0-0.4l-5.6-3.2c-0.2-0.1-0.5-0.1-0.8,0
			l-4.9,2.8c-0.2,0.1-0.2,0.3,0,0.4l5.6,3.2C266.8,325.8,267,325.8,267.3,325.6L267.3,325.6z M302,296.4l4.8-2.8
			c0.2-0.1,0.2-0.3,0-0.4l-5.6-3.2c-0.2-0.1-0.5-0.1-0.8,0l-4.8,2.8c-0.2,0.1-0.2,0.3,0,0.4l5.6,3.2
			C301.5,296.5,301.8,296.5,302,296.4z M295.5,309.4l10.8-6.2c0.2-0.1,0.2-0.3,0-0.4l-13.5-7.8c-0.2-0.1-0.5-0.1-0.8,0l-5.6,3.2
			c-0.2,0.1-0.2,0.3,0,0.5l7.2,4.1c0.2,0.1,0.2,0.3,0,0.4l-4.5,2.6c-0.2,0.1-0.2,0.3,0,0.4l5.6,3.2
			C295,309.5,295.3,309.5,295.5,309.4L295.5,309.4z M259.5,304.4l-4.8,2.8c-0.2,0.1-0.2,0.3,0,0.4l5.6,3.2c0.2,0.1,0.5,0.1,0.8,0
			l4.8-2.8c0.2-0.1,0.2-0.3,0-0.4l-5.6-3.2C260,304.3,259.7,304.3,259.5,304.4z M252.5,308.5l-4.8,2.8c-0.2,0.1-0.2,0.3,0,0.4
			l5.6,3.2c0.2,0.1,0.5,0.1,0.8,0l4.8-2.8c0.2-0.1,0.2-0.3,0-0.4l-5.6-3.2C253,308.3,252.7,308.3,252.5,308.5L252.5,308.5z
			 M217.2,354.1c0.2,0.1,0.5,0.1,0.8,0l4.8-2.8c0.2-0.1,0.2-0.3,0-0.4l-5.6-3.2c-0.2-0.1-0.5-0.1-0.8,0l-4.8,2.8
			c-0.2,0.1-0.2,0.3,0,0.4L217.2,354.1z M196,341l-4.8,2.8c-0.2,0.1-0.2,0.3,0,0.4l5.6,3.2c0.2,0.1,0.5,0.1,0.8,0l4.8-2.8
			c0.2-0.1,0.2-0.3,0-0.4l-5.6-3.2C196.5,340.9,196.2,340.9,196,341z M207.4,350.5c0.2,0.1,0.5,0.1,0.8,0l4.8-2.8
			c0.2-0.1,0.2-0.3,0-0.4l-5.6-3.2c-0.2-0.1-0.5-0.1-0.8,0l-4.8,2.8c-0.2,0.1-0.2,0.3,0,0.4L207.4,350.5z M229.6,356.5l4.8-2.8
			c0.2-0.1,0.2-0.3,0-0.4l-5.6-3.2c-0.2-0.1-0.5-0.1-0.8,0l-4.8,2.8c-0.2,0.1-0.2,0.3,0,0.4l5.6,3.2
			C229.1,356.7,229.4,356.7,229.6,356.5L229.6,356.5z M221.8,360.6c0.2,0.1,0.5,0.1,0.8,0l4.8-2.8c0.2-0.1,0.2-0.3,0-0.4l-5.6-3.2
			c-0.2-0.1-0.5-0.1-0.8,0l-4.9,2.9c-0.2,0.1-0.2,0.3,0,0.4L221.8,360.6z M203,337l-4.8,2.8c-0.2,0.1-0.2,0.3,0,0.5l5.6,3.2
			c0.2,0.1,0.5,0.1,0.8,0l4.8-2.8c0.2-0.1,0.2-0.3,0-0.4l-5.5-3.2C203.6,336.9,203.3,336.9,203,337z M238.3,316.6l-4.8,2.8
			c-0.2,0.1-0.2,0.3,0,0.4l5.6,3.2c0.2,0.1,0.5,0.1,0.8,0l4.8-2.8c0.2-0.1,0.2-0.3,0-0.4l-5.6-3.2
			C238.8,316.5,238.5,316.5,238.3,316.6z M210.1,332.9l-4.8,2.8c-0.2,0.1-0.2,0.3,0,0.5l5.6,3.2c0.2,0.1,0.5,0.1,0.8,0l4.8-2.8
			c0.2-0.1,0.2-0.3,0-0.5l-5.6-3.2C210.6,332.8,210.3,332.8,210.1,332.9z M245.3,312.5l-4.8,2.8c-0.2,0.1-0.2,0.3,0,0.4l5.6,3.2
			c0.2,0.1,0.5,0.1,0.8,0l4.8-2.8c0.2-0.1,0.2-0.3,0-0.4l-5.6-3.2C245.9,312.4,245.6,312.4,245.3,312.5L245.3,312.5z M231.2,320.7
			l-4.8,2.8c-0.2,0.1-0.2,0.3,0,0.4l5.6,3.2c0.2,0.1,0.5,0.1,0.8,0l4.8-2.8c0.2-0.1,0.2-0.3,0-0.5l-5.6-3.2
			C231.8,320.6,231.5,320.6,231.2,320.7L231.2,320.7z M224.2,324.8l-4.8,2.8c-0.2,0.1-0.2,0.3,0,0.4l5.6,3.2c0.2,0.1,0.5,0.1,0.8,0
			l4.8-2.8c0.2-0.1,0.2-0.3,0-0.5l-5.6-3.2C224.7,324.6,224.4,324.6,224.2,324.8L224.2,324.8z M217.1,328.8l-4.8,2.8
			c-0.2,0.1-0.2,0.3,0,0.5l5.6,3.2c0.2,0.1,0.5,0.1,0.8,0l4.8-2.8c0.2-0.1,0.2-0.3,0-0.5l-5.6-3.2
			C217.7,328.7,217.4,328.7,217.1,328.8L217.1,328.8z M253.2,333.8l4.8-2.8c0.2-0.1,0.2-0.3,0-0.5l-5.6-3.2c-0.2-0.1-0.5-0.1-0.8,0
			l-4.8,2.8c-0.2,0.1-0.2,0.3,0,0.5l5.6,3.2C252.6,333.9,252.9,333.9,253.2,333.8L253.2,333.8z M315.1,272.3l-4.8,2.7
			c-0.2,0.1-0.2,0.3,0,0.4l5.6,3.2c0.2,0.1,0.5,0.1,0.8,0l4.8-2.8c0.2-0.1,0.2-0.3,0-0.4l-5.6-3.2
			C315.6,272.1,315.4,272.1,315.1,272.3L315.1,272.3z M306.6,277.2l-4.8,2.8c-0.2,0.1-0.2,0.3,0,0.5l5.6,3.2c0.2,0.1,0.5,0.1,0.8,0
			l4.8-2.8c0.2-0.1,0.2-0.3,0-0.4l-5.6-3.2C307.1,277.1,306.8,277.1,306.6,277.2L306.6,277.2z M322.2,268.2l-4.8,2.8
			c-0.2,0.1-0.2,0.3,0,0.5l5.6,3.2c0.2,0.1,0.5,0.1,0.8,0l4.8-2.8c0.2-0.1,0.2-0.3,0-0.4l-5.6-3.2
			C322.7,268.1,322.4,268.1,322.2,268.2L322.2,268.2z M285.7,305.8l4.8-2.8c0.2-0.1,0.2-0.3,0-0.4l-5.6-3.2c-0.2-0.1-0.5-0.1-0.8,0
			l-4.8,2.8c-0.2,0.1-0.2,0.3,0,0.5l5.6,3.2C285.1,305.9,285.4,305.9,285.7,305.8L285.7,305.8z M330,264.1c-0.2-0.1-0.5-0.1-0.8,0
			l-4.8,2.8c-0.2,0.1-0.2,0.3,0,0.5l5.6,3.2c0.2,0.1,0.5,0.1,0.8,0l4.8-2.8c0.2-0.1,0.2-0.3,0-0.5L330,264.1z M260.2,329.7l4.8-2.8
			c0.2-0.1,0.2-0.3,0-0.5l-5.6-3.2c-0.2-0.1-0.5-0.1-0.8,0l-4.9,2.8c-0.2,0.1-0.2,0.3,0,0.4l5.6,3.2
			C259.7,329.8,260,329.8,260.2,329.7z M346.7,279.8l4.8-2.8c0.2-0.1,0.2-0.3,0-0.4l-5.6-3.2c-0.2-0.1-0.5-0.1-0.8,0l-4.8,2.8
			c-0.2,0.1-0.2,0.3,0,0.4l5.6,3.2C346.2,279.9,346.5,279.9,346.7,279.8L346.7,279.8z M331.7,279.3l4.8-2.8c0.2-0.1,0.2-0.3,0-0.4
			l-5.6-3.2c-0.2-0.1-0.5-0.1-0.8,0l-4.8,2.8c-0.2,0.1-0.2,0.3,0,0.4l5.6,3.2C331.2,279.4,331.5,279.4,331.7,279.3L331.7,279.3z
			 M338,268.7c-0.2-0.1-0.5-0.1-0.8,0l-4.8,2.8c-0.2,0.1-0.2,0.3,0,0.4l5.6,3.2c0.2,0.1,0.5,0.1,0.8,0l4.8-2.8
			c0.2-0.1,0.2-0.3,0-0.4L338,268.7z M339.5,267.9l13.5,7.8c0.2,0.1,0.5,0.1,0.8,0l4.8-2.8c0.2-0.1,0.2-0.3,0-0.4l-13.6-7.8
			c-0.2-0.1-0.5-0.1-0.8,0l-4.8,2.8C339.2,267.5,339.2,267.7,339.5,267.9L339.5,267.9z M323.1,276.9l-4.8,2.8
			c-0.2,0.1-0.2,0.3,0,0.4l5.6,3.2c0.2,0.1,0.5,0.1,0.8,0l4.8-2.8c0.2-0.1,0.2-0.3,0-0.4l-5.6-3.2
			C323.6,276.7,323.3,276.7,323.1,276.9L323.1,276.9z M270,307.5l-4.8,2.8c-0.2,0.1-0.2,0.3,0,0.4l5.6,3.2c0.2,0.1,0.5,0.1,0.8,0
			l4.8-2.8c0.2-0.1,0.2-0.3,0-0.4l-5.6-3.2C270.5,307.4,270.2,307.4,270,307.5z M338.9,283.8c0.2,0.1,0.5,0.1,0.8,0l4.8-2.8
			c0.2-0.1,0.2-0.3,0-0.4l-5.6-3.2c-0.2-0.1-0.5-0.1-0.8,0l-4.8,2.8c-0.2,0.1-0.2,0.3,0,0.4L338.9,283.8z M277,303.4l-4.8,2.8
			c-0.2,0.1-0.2,0.3,0,0.4l5.6,3.2c0.2,0.1,0.5,0.1,0.8,0l4.8-2.8c0.2-0.1,0.2-0.3,0-0.4l-5.6-3.2
			C277.6,303.3,277.3,303.3,277,303.4L277,303.4z M224.2,350c0.2,0.1,0.5,0.1,0.8,0l4.8-2.8c0.2-0.1,0.2-0.3,0-0.4l-5.6-3.2
			c-0.2-0.1-0.5-0.1-0.8,0l-4.8,2.8c-0.2,0.1-0.2,0.3,0,0.4L224.2,350z M213.6,340l-4.8,2.8c-0.2,0.1-0.2,0.3,0,0.4l5.6,3.2
			c0.2,0.1,0.5,0.1,0.8,0l4.8-2.8c0.2-0.1,0.2-0.3,0-0.4l-5.6-3.2C214.1,339.9,213.8,339.9,213.6,340L213.6,340z M232,346l4.8-2.8
			c0.2-0.1,0.2-0.3,0-0.4l-5.6-3.2c-0.2-0.1-0.5-0.1-0.8,0l-4.8,2.8c-0.2,0.1-0.2,0.3,0,0.5l5.6,3.2
			C231.5,346.1,231.8,346.1,232,346z M239.1,341.9l4.8-2.8c0.2-0.1,0.2-0.3,0-0.5l-5.6-3.2c-0.2-0.1-0.5-0.1-0.8,0l-4.8,2.8
			c-0.2,0.1-0.2,0.3,0,0.5l5.6,3.2C238.5,342,238.8,342,239.1,341.9L239.1,341.9z M246.1,337.9l4.8-2.8c0.2-0.1,0.2-0.3,0-0.5
			l-5.6-3.2c-0.2-0.1-0.5-0.1-0.8,0l-4.8,2.8c-0.2,0.1-0.2,0.3,0,0.5l5.6,3.2C245.6,338,245.9,338,246.1,337.9L246.1,337.9z
			 M220.7,336l-4.8,2.8c-0.2,0.1-0.2,0.3,0,0.5l5.6,3.2c0.2,0.1,0.5,0.1,0.8,0l4.8-2.8c0.2-0.1,0.2-0.3,0-0.4l-5.6-3.2
			C221.2,335.9,220.9,335.9,220.7,336z M227.7,331.9l-4.8,2.8c-0.2,0.1-0.2,0.3,0,0.5l5.6,3.2c0.2,0.1,0.5,0.1,0.8,0l4.8-2.8
			c0.2-0.1,0.2-0.3,0-0.5l-5.6-3.2C228.2,331.8,228,331.8,227.7,331.9L227.7,331.9z M255.9,315.6l-4.8,2.8c-0.2,0.1-0.2,0.3,0,0.4
			l5.6,3.2c0.2,0.1,0.5,0.1,0.8,0l4.8-2.8c0.2-0.1,0.2-0.3,0-0.4l-5.6-3.2C256.4,315.5,256.2,315.5,255.9,315.6L255.9,315.6z
			 M248.9,319.7l-4.9,2.8c-0.2,0.1-0.2,0.3,0,0.4l5.6,3.2c0.2,0.1,0.5,0.1,0.8,0l4.8-2.8c0.2-0.1,0.2-0.3,0-0.5l-5.6-3.2
			C249.4,319.6,249.1,319.6,248.9,319.7L248.9,319.7z M263,311.6l-4.8,2.8c-0.2,0.1-0.2,0.3,0,0.4l5.6,3.2c0.2,0.1,0.5,0.1,0.8,0
			l4.8-2.8c0.2-0.1,0.2-0.3,0-0.4l-5.6-3.2C263.5,311.4,263.2,311.4,263,311.6z M234.8,327.9l-4.8,2.8c-0.2,0.1-0.2,0.3,0,0.5
			l5.6,3.2c0.2,0.1,0.5,0.1,0.8,0l4.8-2.8c0.2-0.1,0.2-0.3,0-0.5l-5.6-3.2C235.3,327.7,235,327.7,234.8,327.9L234.8,327.9z
			 M241.8,323.8l-4.8,2.8c-0.2,0.1-0.2,0.3,0,0.5l5.6,3.2c0.2,0.1,0.5,0.1,0.8,0l4.8-2.8c0.2-0.1,0.2-0.3,0-0.5l-5.6-3.2
			C242.4,323.6,242.1,323.6,241.8,323.8L241.8,323.8z M236.7,352.5l4.8-2.8c0.2-0.1,0.2-0.3,0-0.4l-5.6-3.2c-0.2-0.1-0.5-0.1-0.8,0
			l-4.8,2.8c-0.2,0.1-0.2,0.3,0,0.5l5.6,3.2C236.2,352.6,236.4,352.6,236.7,352.5L236.7,352.5z M195.3,348.3l-5.6-3.2
			c-0.2-0.1-0.5-0.1-0.8,0l-4.8,2.8c-0.2,0.1-0.2,0.3,0,0.4l5.6,3.2c0.2,0.1,0.5,0.1,0.8,0l4.8-2.8
			C195.5,348.7,195.5,348.5,195.3,348.3L195.3,348.3z M205.9,351.4l-5.6-3.2c-0.2-0.1-0.5-0.1-0.8,0l-7.4,4.3
			c-0.2,0.1-0.2,0.3,0,0.4l5.6,3.2c0.2,0.1,0.5,0.1,0.8,0l7.4-4.3C206.1,351.8,206.1,351.6,205.9,351.4L205.9,351.4z M186.8,342.1
			l-5.6-3.2c-0.2-0.1-0.5-0.1-0.8,0l-5.9,3.4c-0.2,0.1-0.2,0.3,0,0.5l5.6,3.2c0.2,0.1,0.5,0.1,0.8,0l5.9-3.4
			C187,342.4,187,342.2,186.8,342.1L186.8,342.1z M191.3,339.5c0.2,0.1,0.5,0.1,0.8,0l4.8-2.8c0.2-0.1,0.2-0.3,0-0.4l-5.6-3.2
			c-0.2-0.1-0.5-0.1-0.8,0l-4.8,2.8c-0.2,0.1-0.2,0.3,0,0.4L191.3,339.5z M215.7,355l-5.6-3.2c-0.2-0.1-0.5-0.1-0.8,0l-9.3,5.4
			c-0.2,0.1-0.2,0.3,0,0.4l5.6,3.2c0.2,0.1,0.5,0.1,0.8,0l9.3-5.4C215.9,355.3,215.9,355.1,215.7,355z M220.3,361.5l-5.6-3.2
			c-0.2-0.1-0.5-0.1-0.8,0l-6,3.4c-0.2,0.1-0.2,0.3,0,0.4l5.6,3.2c0.2,0.1,0.5,0.1,0.8,0l5.9-3.4
			C220.5,361.8,220.5,361.6,220.3,361.5L220.3,361.5z M243.7,309.2c0.2,0.1,0.5,0.1,0.8,0l4.8-2.8c0.2-0.1,0.2-0.3,0-0.4l-5.6-3.2
			c-0.2-0.1-0.5-0.1-0.8,0l-4.8,2.8c-0.2,0.1-0.2,0.3,0,0.4L243.7,309.2z M229.6,317.4c0.2,0.1,0.5,0.1,0.8,0l4.8-2.8
			c0.2-0.1,0.2-0.3,0-0.4l-5.6-3.2c-0.2-0.1-0.5-0.1-0.8,0l-4.8,2.8c-0.2,0.1-0.2,0.3,0,0.4L229.6,317.4z M198.3,335.4
			c0.2,0.1,0.5,0.1,0.8,0l4.8-2.8c0.2-0.1,0.2-0.3,0-0.4l-5.6-3.2c-0.2-0.1-0.5-0.1-0.8,0l-4.8,2.8c-0.2,0.1-0.2,0.3,0,0.4
			L198.3,335.4z M236.6,313.3c0.2,0.1,0.5,0.1,0.8,0l4.8-2.8c0.2-0.1,0.2-0.3,0-0.4l-5.6-3.2c-0.2-0.1-0.5-0.1-0.8,0l-4.8,2.8
			c-0.2,0.1-0.2,0.3,0,0.4L236.6,313.3z M222.5,321.5c0.2,0.1,0.5,0.1,0.8,0l4.8-2.8c0.2-0.1,0.2-0.3,0-0.5l-5.6-3.2
			c-0.2-0.1-0.5-0.1-0.8,0l-4.8,2.8c-0.2,0.1-0.2,0.3,0,0.5L222.5,321.5z M224.2,362c-0.2-0.1-0.5-0.1-0.8,0l-7.4,4.3
			c-0.2,0.1-0.2,0.3,0,0.5l5.6,3.3c0.2,0.1,0.5,0.1,0.8,0l7.4-4.3c0.2-0.1,0.2-0.3,0-0.5L224.2,362z M212.4,327.2
			c0.2,0.1,0.5,0.1,0.8,0l4.8-2.8c0.2-0.1,0.2-0.3,0-0.5l-5.6-3.2c-0.2-0.1-0.5-0.1-0.8,0l-4.8,2.8c-0.2,0.1-0.2,0.3,0,0.5
			L212.4,327.2z M205.4,331.3c0.2,0.1,0.5,0.1,0.8,0l4.8-2.8c0.2-0.1,0.2-0.3,0-0.4l-5.6-3.2c-0.2-0.1-0.5-0.1-0.8,0l-4.8,2.8
			c-0.2,0.1-0.2,0.3,0,0.5L205.4,331.3z M354.8,286.6c-0.2-0.1-0.5-0.1-0.8,0l-11.9,6.9c-0.2,0.1-0.2,0.3,0,0.4l5.6,3.2
			c0.2,0.1,0.5,0.1,0.8,0l11.9-6.9c0.2-0.1,0.2-0.3,0-0.4L354.8,286.6z M339.2,295.6c-0.2-0.1-0.5-0.1-0.8,0l-4.8,2.8
			c-0.2,0.1-0.2,0.3,0,0.4l5.6,3.2c0.2,0.1,0.5,0.1,0.8,0l4.8-2.8c0.2-0.1,0.2-0.3,0-0.4L339.2,295.6z M243.7,348.4l4.8-2.8
			c0.2-0.1,0.2-0.3,0-0.5l-5.6-3.2c-0.2-0.1-0.5-0.1-0.8,0l-4.8,2.8c-0.2,0.1-0.2,0.3,0,0.5l5.6,3.2
			C243.2,348.6,243.5,348.6,243.7,348.4z M325.1,303.7c-0.2-0.1-0.5-0.1-0.8,0l-4.8,2.8c-0.2,0.1-0.2,0.3,0,0.5l5.6,3.2
			c0.2,0.1,0.5,0.1,0.8,0l4.8-2.8c0.2-0.1,0.2-0.3,0-0.5L325.1,303.7z M361.9,282.5c-0.2-0.1-0.5-0.1-0.8,0l-4.8,2.8
			c-0.2,0.1-0.2,0.3,0,0.4l5.6,3.2c0.2,0.1,0.5,0.1,0.8,0l4.8-2.8c0.2-0.1,0.2-0.3,0-0.4L361.9,282.5z M374.5,281.7l-13.5-7.8
			c-0.2-0.1-0.5-0.1-0.8,0l-4.8,2.8c-0.2,0.1-0.2,0.3,0,0.4l13.5,7.8c0.2,0.1,0.5,0.1,0.8,0l4.8-2.8
			C374.7,282,374.7,281.8,374.5,281.7z M298.8,319c-0.2-0.1-0.5-0.1-0.8,0l-5.9,3.4c-0.2,0.1-0.2,0.3,0,0.4l5.6,3.2
			c0.2,0.1,0.5,0.1,0.8,0l5.9-3.4c0.2-0.1,0.2-0.3,0-0.5L298.8,319z M316.6,308.7c-0.2-0.1-0.5-0.1-0.8,0l-7.4,4.3
			c-0.2,0.1-0.2,0.3,0,0.4l5.6,3.1c0.2,0.1,0.5,0.1,0.8,0l7.4-4.3c0.2-0.1,0.2-0.3,0-0.4L316.6,308.7z M282.5,328.4
			c-0.2-0.1-0.5-0.1-0.8,0L242,351.3c-0.2,0.1-0.2,0.3,0,0.5l5.6,3.2c0.2,0.1,0.5,0.1,0.8,0l39.7-22.9c0.2-0.1,0.2-0.3,0-0.5
			L282.5,328.4z M240.5,352.6c-0.2-0.1-0.5-0.1-0.8,0l-5.9,3.4c-0.2,0.1-0.2,0.3,0,0.4l5.6,3.2c0.2,0.1,0.5,0.1,0.8,0l5.9-3.4
			c0.2-0.1,0.2-0.3,0-0.4L240.5,352.6z M290.6,323.7c-0.2-0.1-0.5-0.1-0.8,0l-5.9,3.4c-0.2,0.1-0.2,0.3,0,0.5l5.6,3.2
			c0.2,0.1,0.5,0.1,0.8,0l5.9-3.4c0.2-0.1,0.2-0.3,0-0.4L290.6,323.7z M232.4,357.4c-0.2-0.1-0.5-0.1-0.8,0l-5.9,3.4
			c-0.2,0.1-0.2,0.3,0,0.5l5.6,3.2c0.2,0.1,0.5,0.1,0.8,0l6-3.5c0.2-0.1,0.2-0.3,0-0.4L232.4,357.4z M306.9,314.3
			c-0.2-0.1-0.5-0.1-0.8,0l-5.9,3.4c-0.2,0.1-0.2,0.3,0,0.5l5.6,3.2c0.2,0.1,0.5,0.1,0.8,0l5.9-3.4c0.2-0.1,0.2-0.3,0-0.5
			L306.9,314.3z M332.2,299.7c-0.2-0.1-0.5-0.1-0.8,0l-4.8,2.8c-0.2,0.1-0.2,0.3,0,0.4l5.6,3.2c0.2,0.1,0.5,0.1,0.8,0l4.8-2.8
			c0.2-0.1,0.2-0.3,0-0.5L332.2,299.7z M347.6,288.5l4.8-2.8c0.2-0.1,0.2-0.3,0-0.4l-5.6-3.3c-0.2-0.1-0.5-0.1-0.8,0l-4.8,2.8
			c-0.2,0.1-0.2,0.3,0,0.4l5.6,3.2C347.1,288.6,347.4,288.6,347.6,288.5L347.6,288.5z M316.1,288.3l4.8-2.8c0.2-0.1,0.2-0.3,0-0.4
			l-5.6-3.2c-0.2-0.1-0.5-0.1-0.8,0l-4.8,2.8c-0.2,0.1-0.2,0.3,0,0.4l5.6,3.2C315.6,288.4,315.9,288.4,316.1,288.3L316.1,288.3z
			 M300.1,315.9l14.1-8.1c0.2-0.1,0.2-0.3,0-0.4l-5.6-3.2c-0.2-0.1-0.5-0.1-0.8,0l-14.1,8.1c-0.2,0.1-0.2,0.3,0,0.5l5.6,3.2
			C299.6,316,299.9,316,300.1,315.9L300.1,315.9z M339.8,292.5c0.2,0.1,0.5,0.1,0.8,0l4.8-2.8c0.2-0.1,0.2-0.3,0-0.5l-5.6-3.2
			c-0.2-0.1-0.5-0.1-0.8,0l-4.8,2.8c-0.2,0.1-0.2,0.3,0,0.4L339.8,292.5z M332.6,288l4.8-2.8c0.2-0.1,0.2-0.3,0-0.4l-5.6-3.2
			c-0.2-0.1-0.5-0.1-0.8,0l-4.8,2.8c-0.2,0.1-0.2,0.3,0,0.4l5.6,3.2C332.1,288.1,332.4,288.1,332.6,288L332.6,288z M293,320l4.8-2.8
			c0.2-0.1,0.2-0.3,0-0.4l-5.6-3.2c-0.2-0.1-0.5-0.1-0.8,0l-4.8,2.8c-0.2,0.1-0.2,0.3,0,0.4l5.6,3.2
			C292.5,320.1,292.8,320.1,293,320L293,320z M324.2,301.5c0.2,0.1,0.5,0.1,0.8,0l4.8-2.8c0.2-0.1,0.2-0.3,0-0.4l-5.6-3.2
			c-0.2-0.1-0.5-0.1-0.8,0l-4.8,2.8c-0.2,0.1-0.2,0.3,0,0.4L324.2,301.5z M257.8,340.3l4.8-2.8c0.2-0.1,0.2-0.3,0-0.5l-5.6-3.2
			c-0.2-0.1-0.5-0.1-0.8,0l-4.8,2.8c-0.2,0.1-0.2,0.3,0,0.5l5.6,3.2C257.2,340.5,257.6,340.4,257.8,340.3L257.8,340.3z M264.8,336.2
			l4.8-2.8c0.2-0.1,0.2-0.3,0-0.5l-5.6-3.2c-0.2-0.1-0.5-0.1-0.8,0l-4.8,2.8c-0.2,0.1-0.2,0.3,0,0.4l5.6,3.2
			C264.3,336.4,264.6,336.4,264.8,336.2L264.8,336.2z M250.7,344.4l4.8-2.8c0.2-0.1,0.2-0.3,0-0.5l-5.6-3.2c-0.2-0.1-0.5-0.1-0.8,0
			l-4.8,2.8c-0.2,0.1-0.2,0.3,0,0.5l5.6,3.2C250.2,344.5,250.5,344.5,250.7,344.4L250.7,344.4z M279,328.1l4.8-2.8
			c0.2-0.1,0.2-0.3,0-0.4l-5.6-3.2c-0.2-0.1-0.5-0.1-0.8,0l-4.8,2.8c-0.2,0.1-0.2,0.3,0,0.4l5.6,3.2
			C278.5,328.2,278.8,328.2,279,328.1z M272,332.2l4.8-2.8c0.2-0.1,0.2-0.3,0-0.4l-5.6-3.2c-0.2-0.1-0.5-0.1-0.8,0l-4.8,2.8
			c-0.2,0.1-0.2,0.3,0,0.4l5.6,3.2C271.4,332.3,271.7,332.3,272,332.2L272,332.2z M286,324l4.8-2.8c0.2-0.1,0.2-0.3,0-0.4l-5.6-3.2
			c-0.2-0.1-0.5-0.1-0.8,0l-4.8,2.8c-0.2,0.1-0.2,0.3,0,0.4l5.6,3.2C285.5,324.1,285.8,324.1,286,324z M318.3,263.8
			c0.2,0.1,0.5,0.1,0.8,0l4.8-2.8c0.2-0.1,0.2-0.3,0-0.4l-1.5-0.9c-0.2-0.1-0.5-0.1-0.8,0l-4.8,2.8c-0.2,0.1-0.2,0.3,0,0.5
			L318.3,263.8z M283.6,286.2c0.2,0.1,0.5,0.1,0.8,0l4.8-2.8c0.2-0.1,0.2-0.3,0-0.5l-5.6-3.2c-0.2-0.1-0.5-0.1-0.8,0l-4.8,2.8
			c-0.2,0.1-0.2,0.3,0,0.5L283.6,286.2z M297.7,278c0.2,0.1,0.5,0.1,0.8,0l4.8-2.8c0.2-0.1,0.2-0.3,0-0.5l-5.6-3.2
			c-0.2-0.1-0.5-0.1-0.8,0l-4.8,2.8c-0.2,0.1-0.2,0.3,0,0.4L297.7,278z M275,291.2c0.2,0.1,0.5,0.1,0.8,0l4.8-2.8
			c0.2-0.1,0.2-0.3,0-0.5l-5.6-3.2c-0.2-0.1-0.5-0.1-0.8,0l-4.8,2.8c-0.2,0.1-0.2,0.3,0,0.5L275,291.2z M290.7,282.2
			c0.2,0.1,0.5,0.1,0.8,0l4.8-2.8c0.2-0.1,0.2-0.3,0-0.5l-5.6-3.2c-0.2-0.1-0.5-0.1-0.8,0l-4.9,2.7c-0.2,0.1-0.2,0.3,0,0.4
			L290.7,282.2z M260.9,299.3c0.2,0.1,0.5,0.1,0.8,0l4.8-2.8c0.2-0.1,0.2-0.3,0-0.4l-5.6-3.2c-0.2-0.1-0.5-0.1-0.8,0l-4.8,2.8
			c-0.2,0.1-0.2,0.3,0,0.5L260.9,299.3z M267.9,295.2c0.2,0.1,0.5,0.1,0.8,0l4.8-2.8c0.2-0.1,0.2-0.3,0-0.5l-5.6-3.2
			c-0.2-0.1-0.5-0.1-0.8,0l-4.8,2.8c-0.2,0.1-0.2,0.3,0,0.5L267.9,295.2z M304.2,271.9c0.2,0.1,0.5,0.1,0.8,0l4.8-2.8
			c0.2-0.1,0.2-0.3,0-0.5l-1.5-0.9c-0.2-0.1-0.5-0.1-0.8,0l-4.8,2.8c-0.2,0.1-0.2,0.3,0,0.5L304.2,271.9z M325.3,259.7
			c0.2,0.1,0.5,0.1,0.8,0l4.8-2.8c0.2-0.1,0.2-0.3,0-0.4l-1.5-0.9c-0.2-0.1-0.5-0.1-0.8,0l-4.8,2.8c-0.2,0.1-0.2,0.3,0,0.4
			L325.3,259.7z M337,266.5c0.2,0.1,0.5,0.1,0.8,0l4.8-2.8c0.2-0.1,0.2-0.3,0-0.5L337,260c-0.2-0.1-0.5-0.1-0.8,0l-4.8,2.8
			c-0.2,0.1-0.2,0.3,0,0.5L337,266.5z M354.7,284.4l4.8-2.8c0.2-0.1,0.2-0.3,0-0.4l-5.6-3.2c-0.2-0.1-0.5-0.1-0.8,0l-4.8,2.8
			c-0.2,0.1-0.2,0.3,0,0.4l5.6,3.2C354.1,284.5,354.4,284.5,354.7,284.4z M311.2,267.9c0.2,0.1,0.5,0.1,0.8,0l4.8-2.8
			c0.2-0.1,0.2-0.3,0-0.4l-1.5-0.9c-0.2-0.1-0.5-0.1-0.8,0l-4.8,2.8c-0.2,0.1-0.2,0.3,0,0.5L311.2,267.9z M253.8,303.4
			c0.2,0.1,0.5,0.1,0.8,0l4.8-2.8c0.2-0.1,0.2-0.3,0-0.4l-5.6-3.2c-0.2-0.1-0.5-0.1-0.8,0l-4.8,2.8c-0.2,0.1-0.2,0.3,0,0.4
			L253.8,303.4z"/>
	</g>
	<polygon id="elz6mpay36cko" class="st10" points="247,275.3 299.9,244.8 332.4,263.6 279.5,294.1 	"/>
</g>
<g id="freepik--Screen--inject-3">
	<g id="el44qjzxpn54k">
		<path class="st13" d="M176.4,166.4l157.3-90.8c3.1-1.8,5.6-0.3,5.6,3.2v121.9c-0.1,1.8-1.1,3.5-2.6,4.5l-161.3,93.1
			c-1.4,0.8-2.6,0.1-2.6-1.5V172.6C173,170.1,174.3,167.8,176.4,166.4z"/>
	</g>
	<g id="elaul89oxv8ob">
		<path class="st10" d="M339.4,81.7v-2.9c0-3.6-2.5-5-5.6-3.2l-157.3,90.9c-2.1,1.4-3.5,3.7-3.6,6.2v5.2L339.4,81.7z"/>
	</g>
	<g id="el71ulqiurvks">
		<path class="st8" d="M315.9,88.3c-1.1,0.8-1.8,2-1.9,3.3c0,1.2,0.9,1.7,1.9,1.1c1.1-0.7,1.9-2,1.9-3.3
			C317.8,88.2,317,87.7,315.9,88.3z"/>
	</g>
	<g id="ely3grxkevlc">
		<path class="st8" d="M323.5,83.9c-1.1,0.7-1.9,2-1.9,3.3c0,1.2,0.9,1.7,1.9,1.1c1.1-0.8,1.9-2,1.9-3.4
			C325.5,83.8,324.6,83.3,323.5,83.9z"/>
	</g>
	<g id="elxvkfpqbtil">
		<path class="st8" d="M331.2,79.5c-1.1,0.7-1.9,2-1.9,3.3c0,1.2,0.9,1.7,1.9,1.1c1.1-0.7,1.8-2,1.9-3.3
			C333.1,79.4,332.3,78.9,331.2,79.5z"/>
	</g>
	<polygon id="el1jtolvpzmkv" class="st3" points="137.4,106 137.4,129.4 303.9,33.3 303.9,9.8 	"/>
	<g id="el3b3n2tcvbgw">
		<polygon class="st7" points="137.4,106 137.4,129.4 303.9,33.3 303.9,9.8 		"/>
	</g>
	<g id="el4ol9ok6ycrs">
		<path class="st5" d="M183.7,189.1c-0.6,0.2-1.2,0.2-1.7,0.1v-11.5c0-0.2,0-0.4,0.1-0.6c0.1-0.2,0.3-0.3,0.5-0.4l0.9-0.5
			c0.2-0.1,0.4-0.2,0.5-0.1s0.1,0.2,0.1,0.5v3.8c0.3-0.5,0.7-0.9,1.1-1.3c0.5-0.4,1-0.8,1.5-1.1c1.3-0.7,2.2-0.9,2.9-0.5
			s1,1.3,1,2.8c0,1.6-0.4,3.2-1.2,4.6c-0.9,1.4-2.1,2.6-3.6,3.4C185.2,188.6,184.5,188.9,183.7,189.1z M187.9,184.4
			c0.5-0.9,0.7-2,0.7-3c0-1-0.2-1.6-0.5-1.9s-0.9-0.1-1.8,0.3c-0.6,0.3-1.1,0.8-1.5,1.4c-0.4,0.5-0.6,1.2-0.7,1.8v3.9
			c0.3,0,0.5,0,0.8-0.1c0.3-0.1,0.7-0.3,1-0.4C186.7,186,187.4,185.3,187.9,184.4L187.9,184.4z"/>
	</g>
	<g id="elv9n0re3qytq">
		<path class="st5" d="M192.5,183.9c-0.1-0.1-0.1-0.2-0.1-0.4v-11.8c0-0.2,0-0.4,0.1-0.6c0.1-0.2,0.3-0.3,0.5-0.4l0.9-0.5
			c0.2-0.1,0.4-0.2,0.5-0.1s0.1,0.2,0.1,0.5v11.8c0,0.2,0,0.4-0.1,0.6c-0.1,0.2-0.3,0.4-0.5,0.5l-0.9,0.5
			C192.8,183.9,192.6,184,192.5,183.9z"/>
	</g>
	<g id="elz2xt2ucameh">
		<path class="st5" d="M197.3,180.2c-0.8-0.4-1.2-1.4-1.2-2.9c0-1.5,0.4-3,1.2-4.3c0.8-1.4,2-2.5,3.4-3.3c1.4-0.8,2.6-1,3.4-0.6
			s1.2,1.4,1.2,2.9c0,1.5-0.4,3-1.2,4.3c-0.8,1.4-2,2.5-3.4,3.3C199.2,180.5,198.1,180.7,197.3,180.2z M202.5,176
			c0.4-0.8,0.6-1.7,0.6-2.7c0-1-0.2-1.6-0.6-1.9s-1-0.2-1.8,0.3c-0.8,0.4-1.4,1.1-1.8,1.8c-0.4,0.8-0.6,1.7-0.6,2.7
			c0,1,0.2,1.7,0.6,2c0.4,0.3,1,0.2,1.8-0.2C201.5,177.4,202.1,176.8,202.5,176L202.5,176z"/>
	</g>
	<g id="el3f8edsnpv7e">
		<path class="st5" d="M209.3,177.5c-0.4,0.2-0.9,0.3-1.4,0.2c-0.2,0-0.2-0.1-0.1-0.4l0.5-1.2c0-0.1,0.1-0.2,0.2-0.3
			c0.1,0,0.1,0,0.2,0c0.9-0.1,1.7-0.4,2.4-0.8c0.7-0.4,1.2-0.9,1.6-1.6c0.4-0.7,0.6-1.6,0.5-2.4c-0.3,0.5-0.7,1.1-1.1,1.5
			c-0.5,0.5-1,0.8-1.5,1.2c-1.2,0.7-2.2,0.9-2.9,0.5s-1.1-1.3-1.1-2.7c0-1.6,0.4-3.1,1.2-4.5c0.9-1.4,2.1-2.6,3.6-3.4
			c0.7-0.4,1.4-0.7,2.1-0.9c0.6-0.2,1.1-0.2,1.7-0.1v6.6c0,1.5-0.3,2.9-1,4.3c-0.7,1.3-1.8,2.4-3.1,3.1
			C210.6,177,209.9,177.2,209.3,177.5z M212.6,170.1c0.4-0.6,0.6-1.2,0.6-1.9v-3.5c-0.3,0-0.6,0.1-0.8,0.2c-0.3,0.1-0.7,0.3-1,0.5
			c-1.7,0.9-2.7,2.7-2.6,4.6c0,1,0.2,1.6,0.6,1.8s1,0.1,1.8-0.3C211.7,171.2,212.2,170.7,212.6,170.1L212.6,170.1z"/>
	</g>
	<g id="elj2n1ymm5yhf">
		<path class="st3" d="M201.2,195.3v82.4c0,0.5,0.3,0.8,0.6,0.6c0.4-0.3,0.6-0.9,0.6-1.4v-82.4c0-0.6-0.3-0.8-0.6-0.6
			C201.5,194.2,201.2,194.7,201.2,195.3z"/>
	</g>
	<g id="elgg5z63ppv06">
		<path class="st14" d="M152.5,227.2l36.3-21c1.2-0.7,2.2-0.1,2.2,1.2V233c-0.1,1.5-0.9,2.9-2.2,3.8l-36.3,20.9
			c-1.2,0.7-2.2,0.1-2.2-1.2V231C150.4,229.5,151.2,228.1,152.5,227.2z"/>
	</g>
	<g id="elrtyu1p99o2n">
		<path class="st3" d="M191,207.5c0-1.4-1-1.9-2.2-1.2l-36.3,21c-1.3,0.8-2.1,2.2-2.2,3.8v2.2l40.6-23.5V207.5z"/>
	</g>
	<g id="elzbro7ssoi5g">
		<path class="st3" d="M154.4,249.5l6.1-10.8c0.2-0.3,0.6-0.5,0.9-0.3c0.1,0,0.2,0.1,0.3,0.2l2.1,2.3l3.7-8.5c0.2-0.5,0.6-0.6,1-0.1
			l2.2,3.1v7l-16.2,9.4L154.4,249.5z"/>
	</g>
	<g id="elqqs3zoelaub">
		<path class="st5" d="M174.7,225.2c0,0.8,0.6,1.1,1.3,0.7l9.6-5.5c0.8-0.5,1.2-1.3,1.3-2.2c0-0.8-0.6-1.1-1.3-0.7L176,223
			C175.2,223.5,174.8,224.3,174.7,225.2z"/>
	</g>
	<g id="elyyp1tibesw">
		<path class="st5" d="M174.7,232c0,0.8,0.6,1.1,1.3,0.7l9.6-5.5c0.8-0.5,1.2-1.3,1.3-2.2c0-0.8-0.6-1.1-1.3-0.7l-9.6,5.5
			C175.2,230.3,174.8,231.1,174.7,232z"/>
	</g>
	<g id="el2dmt8nwr48w">
		<path class="st5" d="M174.7,238.7c0,0.8,0.6,1.1,1.3,0.7l9.6-5.5c0.8-0.5,1.2-1.3,1.3-2.2c0-0.8-0.6-1.1-1.3-0.7l-9.6,5.5
			C175.3,237,174.8,237.8,174.7,238.7z"/>
	</g>
	<g id="ela0a5kkqjyyt">
		<path class="st14" d="M152.5,266.8l36.3-20.9c1.2-0.7,2.2-0.1,2.2,1.2v25.5c-0.1,1.5-0.9,2.9-2.2,3.8l-36.3,21
			c-1.2,0.7-2.2,0.1-2.2-1.2v-25.6C150.4,269,151.2,267.6,152.5,266.8z"/>
	</g>
	<g id="el4qmji24rxjm">
		<path class="st3" d="M191,247.1c0-1.4-1-1.9-2.2-1.2l-36.3,21c-1.3,0.8-2.1,2.2-2.2,3.8v2.2l40.6-23.5V247.1z"/>
	</g>
	<g id="elylgzquxydq">
		<path class="st3" d="M154.4,289.1l6.1-10.8c0.2-0.3,0.6-0.5,0.9-0.3c0.1,0,0.2,0.1,0.3,0.2l2.1,2.3l3.7-8.5c0.2-0.5,0.6-0.5,1-0.1
			l2.2,3.1v7l-16.2,9.4L154.4,289.1z"/>
	</g>
	<g id="el7v38tdcnxsl">
		<path class="st5" d="M174.7,264.7c0,0.8,0.6,1.1,1.3,0.7l9.6-5.5c0.8-0.5,1.2-1.3,1.3-2.2c0-0.8-0.6-1.1-1.3-0.7l-9.6,5.5
			C175.3,263,174.8,263.8,174.7,264.7z"/>
	</g>
	<g id="elkfec0jyekop">
		<path class="st5" d="M174.7,271.4c0,0.8,0.6,1.1,1.3,0.7l9.6-5.7c0.8-0.5,1.2-1.3,1.3-2.2c0-0.8-0.6-1.1-1.3-0.7l-9.6,5.7
			C175.3,269.7,174.8,270.5,174.7,271.4z"/>
	</g>
	<g id="elmt1h54nvb0l">
		<path class="st5" d="M174.7,278.2c0,0.8,0.6,1.1,1.3,0.7l9.6-5.5c0.8-0.5,1.2-1.3,1.3-2.2c0-0.8-0.6-1.1-1.3-0.7l-9.6,5.5
			C175.3,276.5,174.8,277.3,174.7,278.2z"/>
	</g>
	<g id="eljnu47j29r3n">
		<path class="st14" d="M215.6,228.2l111.6-64.4c1.2-0.7,2.2-0.1,2.2,1.2v32.5c-0.1,1.5-0.9,2.9-2.2,3.8l-111.6,64.4
			c-1.2,0.7-2.2,0.1-2.2-1.2v-32.5C213.5,230.4,214.3,229,215.6,228.2z"/>
	</g>
	<g id="elgwrzqbsptse">
		<path class="st3" d="M329.3,165c0-1.4-1-1.9-2.2-1.2l-111.6,64.4c-1.3,0.8-2.1,2.2-2.2,3.8v2.2l115.9-66.9V165z"/>
	</g>
	<g id="elf3hzkggx6zf">
		<path class="st5" d="M241,221.4l-22.5,13c-1,0.7-1.7,1.8-1.7,3v22.3c0,1.1,0.8,1.5,1.7,1l22.5-13c1-0.7,1.7-1.8,1.7-3v-22.3
			C242.7,221.3,241.9,220.9,241,221.4z"/>
	</g>
	<g id="elk8yguz2b4c">
		<path class="st3" d="M224.6,241l-7.9,17v1.8c0,1.1,0.8,1.5,1.7,1l22.5-13c1-0.7,1.7-1.8,1.7-3V237l-4.3-8c-0.5-1-1.3-0.9-1.7,0.1
			l-6.7,15.8l-3.3-4.1c-0.3-0.6-1-0.8-1.5-0.5C224.9,240.5,224.7,240.7,224.6,241z"/>
	</g>
	<g id="elcvyfbs5rq4w">
		<path class="st3" d="M219.3,240.8c2.3-1.5,3.7-4,3.9-6.7c0-0.7-0.2-1.4-0.6-2l-4.2,2.4c-1,0.7-1.7,1.8-1.7,3v3.7
			C217.6,241.5,218.5,241.3,219.3,240.8z"/>
	</g>
	<g id="elx5af451qt5">
		<path class="st5" d="M252.9,216.5l69.7-40.2c1-0.6,1.7-0.2,1.7,0.8c-0.1,1.2-0.7,2.2-1.7,2.8l-69.7,40.2c-1,0.6-1.7,0.2-1.7-0.9
			C251.2,218.2,251.9,217.1,252.9,216.5z"/>
	</g>
	<g id="elq0uu8jan4yk">
		<path class="st5" d="M252.9,225.9l69.7-40.2c1-0.6,1.7-0.2,1.7,0.8c-0.1,1.2-0.7,2.2-1.7,2.8l-69.7,40.2c-1,0.6-1.7,0.2-1.7-0.9
			C251.2,227.6,251.9,226.5,252.9,225.9z"/>
	</g>
	<g id="elpr017b2l2f">
		<path class="st5" d="M252.9,235.3l69.7-40.2c1-0.6,1.7-0.2,1.7,0.8c-0.1,1.2-0.7,2.2-1.7,2.9L252.9,239c-1,0.6-1.7,0.2-1.7-0.9
			C251.2,237,251.9,235.9,252.9,235.3z"/>
	</g>
</g>
<g id="freepik--Character--inject-3">
	<g id="elwsv6opohp4">
		<path class="st15" d="M366.8,125.3l-10.2-0.3c-0.7-0.6-11.4-12.7-11.4-12.7s-3.9,6.1-3.9,6.5s10.5,11.7,11.6,12.9
			c0.6,0.8,1.5,1.2,2.5,1.2c2.8,0.2,13.1,0.9,13.1,0.9L366.8,125.3z"/>
	</g>
	<polygon id="elu2seupfgpga" class="st3" points="345.9,65.2 330.2,64 331.4,53.4 347.6,53.8 	"/>
	<g id="el9oeqz2w22e">
		<polygon class="st4" points="345.9,65.2 330.2,64 331.4,53.4 347.6,53.8 		"/>
	</g>
	<g id="eldbm78c078pu">
		<path class="st14" d="M235.9,171.9l111.6-64.4c1.2-0.7,2.2-0.1,2.2,1.2v32.5c-0.1,1.5-0.9,2.9-2.2,3.8l-111.6,64.4
			c-1.2,0.7-2.2,0.1-2.2-1.2v-32.5C233.8,174.1,234.6,172.7,235.9,171.9z"/>
	</g>
	<g id="elrxm5ibp8xd">
		<path class="st3" d="M349.6,108.7c0-1.4-1-1.9-2.2-1.2l-111.6,64.4c-1.3,0.8-2.1,2.2-2.2,3.8v2.2l115.9-66.9V108.7z"/>
	</g>
	<g id="elmx70nnkpfr">
		<path class="st16" d="M261.3,165.1l-22.5,13c-1,0.7-1.7,1.8-1.7,3v22.3c0,1.1,0.8,1.6,1.7,1l22.5-13c1-0.7,1.7-1.8,1.7-3v-22.3
			C263,165,262.2,164.6,261.3,165.1z"/>
	</g>
	<g id="elvpmxnzvt7am">
		<path class="st3" d="M245,184.7l-8,17v1.8c0,1.1,0.8,1.6,1.7,1l22.5-13c1-0.7,1.7-1.8,1.7-3v-7.7l-4.3-8c-0.5-1-1.3-0.9-1.7,0.1
			l-6.7,15.8l-3.3-4.1c-0.3-0.5-1-0.7-1.6-0.4C245.3,184.2,245.1,184.4,245,184.7z"/>
	</g>
	<g id="elm2z5tbt7pbh">
		<path class="st3" d="M239.6,184.5c2.3-1.5,3.7-4,3.9-6.8c0-0.7-0.2-1.4-0.6-2l-4.2,2.4c-1,0.7-1.7,1.8-1.7,3v3.7
			C237.9,185.2,238.9,185,239.6,184.5z"/>
	</g>
	<g id="elnmnolhh49d">
		<path class="st16" d="M273.2,160.2l69.7-40.2c1-0.6,1.7-0.2,1.7,0.8c-0.1,1.2-0.7,2.2-1.7,2.8l-69.7,40.2c-1,0.6-1.7,0.2-1.7-0.8
			C271.5,161.9,272.2,160.8,273.2,160.2z"/>
	</g>
	<g id="elsls0nkrapj">
		<path class="st16" d="M273.2,169.6l69.7-40.2c1-0.6,1.7-0.2,1.7,0.8c-0.1,1.2-0.7,2.2-1.7,2.9l-69.7,40.2c-1,0.6-1.7,0.2-1.7-0.8
			C271.5,171.3,272.2,170.2,273.2,169.6z"/>
	</g>
	<g id="el27pmlodacrr">
		<path class="st16" d="M273.2,179l69.7-40.2c1-0.6,1.7-0.2,1.7,0.8c-0.1,1.2-0.7,2.2-1.7,2.9l-69.7,40.2c-1,0.6-1.7,0.2-1.7-0.8
			C271.5,180.7,272.2,179.6,273.2,179z"/>
	</g>
	<rect id="el5pp4gj3coju" x="360.1" y="177" class="st17" width="5.9" height="8.6"/>
	<g id="elfgb616s98ks">
		<rect x="375" y="238.4" class="st17" width="5.9" height="8.6"/>
	</g>
	<g id="el34lo9bghnni">
		<path class="st11" d="M401.1,165c0,5.6,0.7,42.1,0.7,42.1c0.1,1.6,1.7,4.6,1.3,10.9c-0.4,8.5-1.2,32-1.2,32s-2.8,2.8-6.7,0
			c0,0-5.4-31.9-6.4-40.3c-0.9-7.3-2.5-27.2-2.5-27.2l-5.4,23.4c0,0,1,5.5,1.2,9.4s-1,26.3-1,26.3c-1.9,1.2-4.4,1.3-6.4,0.2
			c0,0-4.8-32.7-5.4-36.3s4.1-40.4,4.1-40.4H401.1z"/>
	</g>
	<g id="elyvvrntz4p1q">
		<path class="st3" d="M392.2,125.9L392.2,125.9c5.3,1.3,8.9,6,8.9,11.4V165c-4.1,4.5-18.6,6.6-27.6,0v-28.8
			c0-4.6,2.5-10.1,9.6-10.5L392.2,125.9z"/>
	</g>
	<g id="el4z97s80l1l2">
		<path class="st10" d="M394.2,102.4c1-0.1,1.9,0.2,2.6,0.9c1.1,1.1,0.9,3.3,0,8.1l-3.5,0.4L394.2,102.4z"/>
	</g>
	<g id="el76wt1f8hf7n">
		<path class="st10" d="M374.1,101c-0.7,0-1.5-0.1-2.2-0.4c-1.1-0.6-1.3,0.6-0.8,1.6c0.8,1.5,2.3,2.5,4,2.7c0-0.2,1-2.7,1-2.7
			L374.1,101z"/>
	</g>
	<g id="elccns11djqml">
		<path class="st17" d="M392.6,111.8c0.5,0.3,1.2-0.7,1.9-1.3c0.8-0.9,2.2-1,3.1-0.2c0.3,0.2,0.5,0.5,0.6,0.8c1,2.2-1.3,5.2-2.7,6.1
			c-0.8,0.7-2,0.8-2.9,0.2l-0.4,8.5c-1.3,2.8-3.8,4.7-6.8,5.2c-5,0.7-3.9-3.4-2.3-5.4v-3.1c-1.2,0.3-2.5,0.3-3.8,0.2
			c-0.6-0.2-2.2-2-3.2-4.1c-1.1-2.3-3-6.5-1.3-13.6c1.8-7.6,9.9-7.8,14.8-4.8S392.6,111.8,392.6,111.8z"/>
	</g>
	<g id="ele0qtelpn9bv">
		<path class="st10" d="M392.6,112.7c0.3,0,1.2-1.6,1.9-2.2c0.9-0.8-0.3-8.1-0.3-8.1s0.9-2.8-0.9-4.6s-5.1-1.5-7.6-1.6
			c-3,0-6.1-0.6-8.9-1.8c-3.5-1.5-3.8-1.7-4.2-0.2s-0.6,5.1,1.5,7.5l1.7,0.6c0,0,1,0.8,4.2,1.2c3,0.2,6.1,0.2,9.1-0.2
			c1-0.1,1.2,0.8,1.7,3.3C391.4,108.9,391.7,112.7,392.6,112.7z"/>
	</g>
	<g id="elfhaa23ze9h">
		<path class="st10" d="M394.2,103l3.1-1.7c-0.4-0.9-1.4-1.2-2.3-0.8c0,0,0,0-0.1,0C394.1,101,393.8,102.1,394.2,103z"/>
	</g>
	<g id="ellxqgu6p9ml">
		<path class="st15" d="M383.1,122.6c2.1-0.4,4.2-1,6.2-1.8c0.9-0.5,1.7-1.3,2.2-2.2c-0.2,0.9-0.7,1.8-1.3,2.6
			c-1.2,1.5-7.2,2.6-7.2,2.6L383.1,122.6z"/>
	</g>
	<g id="elncjbi2dfvj">
		<path class="st10" d="M384.2,110.7c0,0.5,0.5,0.9,1,0.9c0.5,0,0.9-0.5,0.9-1c0-0.5-0.4-0.9-0.9-0.9
			C384.6,109.7,384.2,110.1,384.2,110.7C384.2,110.7,384.2,110.7,384.2,110.7z"/>
	</g>
	<g id="el8jb403kuaa7">
		<path class="st10" d="M385.2,107.2l2,1.1c0.3-0.6,0.1-1.3-0.5-1.6C386.2,106.4,385.6,106.6,385.2,107.2
			C385.2,107.1,385.2,107.2,385.2,107.2z"/>
	</g>
	<g id="elmeu3s2x85w">
		<path class="st15" d="M384.3,116.9l-2.1,0.8c0.2,0.6,0.8,0.9,1.4,0.7c0,0,0,0,0,0C384.2,118.2,384.5,117.5,384.3,116.9z"/>
	</g>
	<g id="elfo3wj74hdtq">
		<path class="st10" d="M376,108l1.8-1.4c-0.3-0.5-1-0.6-1.5-0.3c0,0,0,0,0,0C375.7,106.8,375.6,107.5,376,108z"/>
	</g>
	<g id="elehdofm8bvg">
		<path class="st10" d="M376.6,110.4c0,0.5,0.3,1,0.8,1c0,0,0.1,0,0.1,0c0.6,0,1-0.4,1.1-0.9c0-0.6-0.4-1-0.9-1.1
			C377.1,109.4,376.6,109.8,376.6,110.4C376.6,110.4,376.6,110.4,376.6,110.4z"/>
	</g>
	<polygon id="elmbsdu6vhzse" class="st15" points="345.8,37.7 345.5,43.2 342.6,42.2 	"/>
	<g id="elc241388775g">
		<path class="st10" d="M395.6,254.6v-0.8c-0.6,0.2-1.9,5.2-4.2,7.4c-1.9,1.7-4.4,3.7-5,5.5s3.5,3.1,5.3,2.8c2-0.4,5.5-1.8,6.4-3.1
			s1.3-3.3,2-4.2s2.4-2,2.8-3.2c0.1-1,0-2.1-0.3-3.1c-0.3-1-0.6-2.2-0.9-2.1v0.6c-0.8,0.7-1.9,1-3,1
			C397.7,255.4,395.6,255.3,395.6,254.6z"/>
	</g>
	<g id="ele6uj23um6ev">
		<path class="st10" d="M375.1,245.2c-0.3,0-0.6,0.4-1.2,1.2c-1,1-2.2,1.9-3.5,2.5c-2.2,1.1-6.5,2.8-8.5,3.7c-1.2,0.6-1.2,2,0.1,2.9
			s4.3,1.4,7.9,0.6c2-0.4,4.6-2.3,6.2-2.2s4.7,0.1,5.9-0.8s0.7-2.6,0.4-4.1c-0.4-1.7-0.9-4.2-1.5-4.1v0.5c-0.7,1.1-4.3,1.5-5.9,0.7
			L375.1,245.2z"/>
	</g>
	<g id="eliydbl006cbi">
		<path class="st17" d="M394,129.8l-18.2,18.9c0,0-16-2.9-21.5-4.4c-1.7-0.5-2.9-3.1-3.3-5c-0.1-1-0.6-1.9-1.4-2.6
			c0,0,0,1.4-0.4,3.7c-0.1,1-1.7,1.1-3.1,1.4c-5,1.1-6.7,0-8.8,1.4c-1.6,1.1,0.4,4.1,4.1,5.1c5.1,1.4,8,0.7,11.1,1.5
			c2.4,0.6,19.8,6,23,6.8c1.7,0.4,3.1,0.3,5-1.6s16.3-14.4,16.3-14.4L394,129.8z"/>
	</g>
	<g id="eliihehs3lj6">
		<path class="st3" d="M394.8,129.1c-2-0.5-14.2,14-14.2,14l6.7,5.6c0,0,8.7-5.7,10.2-8S400.9,130.6,394.8,129.1z"/>
	</g>
	<g id="elepd3vepkq8d">
		<path class="st3" d="M387.8,149.1c0,0,9.2-8.2,9.6-9.1c0.8-1.7,0.6-4.9,0.6-4.9s1,2.8,0,4.9s-8,8.3-9.1,9.3l-1.1,1.1l-1.1-1
			l0.6-0.6L387.8,149.1z"/>
	</g>
	<g id="el97jajqv2th4">
		<path class="st4" d="M387.8,149.1c0,0,9.2-8.2,9.6-9.1c0.8-1.7,0.6-4.9,0.6-4.9s1,2.8,0,4.9s-8,8.3-9.1,9.3l-1.1,1.1l-1.1-1
			l0.6-0.6L387.8,149.1z"/>
	</g>
	<g id="el0q3r6xchszm">
		<path class="st15" d="M341.6,108.4c2-0.2,3.3-1.7,3.8-1.3c0.4,0.4,0.4,1,0.1,1.4c-0.9,0.7-1.9,1.3-3,1.7c-0.3,1-0.4,2-0.5,3.1
			c-0.2,1.5-0.1,4.6-1.4,5.6c-3.9,3.1-4.9-1.8-4.8-5.2C336,109.7,339.6,108.7,341.6,108.4z"/>
	</g>
</g>
</svg>
