<?xml version="1.0" encoding="utf-8"?>
<!-- Generator: Adobe Illustrator 28.1.0, SVG Export Plug-In . SVG Version: 6.00 Build 0)  -->
<svg version="1.1" id="Layer_1" xmlns="http://www.w3.org/2000/svg" xmlns:xlink="http://www.w3.org/1999/xlink" x="0px" y="0px"
	 viewBox="0 0 1920 1080" style="enable-background:new 0 0 1920 1080;" xml:space="preserve">
<style type="text/css">
	.st0{fill:#263238;stroke:#263238;stroke-linecap:round;stroke-linejoin:round;}
	.st1{fill:#FFFFFF;stroke:#263238;stroke-linecap:round;stroke-linejoin:round;}
	.st2{fill:#5562F6;stroke:#263238;stroke-linecap:round;stroke-linejoin:round;}
	.st3{fill:#263238;}
	.st4{fill:none;stroke:#263238;stroke-linecap:round;stroke-linejoin:round;}
</style>
<g id="freepik--Character_2--inject-217">
	<g id="el6sumlqpt2uc">
		<path id="eljlkz3xwk2z8" class="st0" d="M1538.9,652.2c0,0,12.1,96.8,20.2,121.3s12.3,83.2,18.2,102.5c6,19.4,5.7,67.2,5.7,68.9
			c0,1.7-11.7,16.5-20.9,20.5c-9.2,4-25.8,9.1-28.7,10.8c-2.9,1.7-4.8,7.2,1,7.4c5.9,0.2,22.2,2.3,26.2,2.3s22.4,1.9,26.9-2.7
			c4.5-4.7,12.2-20,12.9-25.7c0.7-5.7,1.3-45,1.3-45s5.9-44.4-4.7-126.5s-21.1-139-21.1-139L1538.9,652.2L1538.9,652.2z"/>
		<path id="el1awwbbnddvv" class="st1" d="M1544.4,650.1c0,0,9.7,86.3,19.6,118.3c9.9,32,11.5,69.2,17.2,85.5
			c5.7,16.4,6.8,86.3,6.7,90c-0.1,3.7-12.1,13.4-18.9,18.6c-6.8,5.2-13.5,9.7-20.3,12.6c-6.7,3-9.8,6-8.3,8.9c1.4,3,34.1,7.4,47.5,6
			c13.4-1.5,38-2.2,41-3c3-0.7,6.8-4.5,6.9-14.1c0.2-9.7-3.9-37.2-3.9-37.2s-1-26.8,2.6-65.5c3.6-38.7-3.4-66.9-6.9-79.6
			c-3.5-12.7,9.1-99.7,9.1-99.7s10.2-30.5,11.1-40.9c0.9-10.4,0.3-15.6,0.3-15.6L1544.4,650.1L1544.4,650.1z"/>
		<path id="elz2uamljyeh" class="st2" d="M1544.4,650.1c0,0,9.7,86.3,19.6,118.3c9.9,32,11.5,69.2,17.2,85.5
			c5.7,16.4,6.8,86.3,6.7,90c0,0,12.1,9.8,28.8,16.7c7.1,2.9,13.6,3.8,18.7,3.9c-1-11.9-3.4-28.7-3.4-28.7s-1-26.8,2.6-65.5
			c3.6-38.7-3.4-66.9-6.9-79.6c-3.5-12.6,9.1-99.7,9.1-99.7s10.2-30.5,11.1-40.9c0.9-10.4,0.3-15.6,0.3-15.6L1544.4,650.1
			L1544.4,650.1z"/>
		<path id="eleh941qk44w6" class="st1" d="M1587.9,990c13.4-1.5,38-2.2,41-3c2.2-0.5,4.8-2.7,6.1-7.6c-10.7,1.5-31.2,3.9-47.3,3.9
			c-17.3,0-37.4-2.6-46.1-3.8c-1.5,1.5-1.9,3-1.2,4.5C1541.8,987,1574.5,991.5,1587.9,990L1587.9,990z"/>
		<path id="elzjn3d64j8g" class="st0" d="M1546.7,393.7l-5,8.4l-1.6,13.4l6.1-7.3c0,0-9.3,13.8-8.9,20.6c0.4,6.9-0.8,22.7-0.8,22.7
			l-8.9,47l26.3-64l8.9-42.1L1546.7,393.7L1546.7,393.7z"/>
		<path id="elz5v5mk5pr6" class="st1" d="M1543.2,363.3l11.3,29.7l47.6-36.4l-10.5-20.1l-4.6-10c0,0,16.7-16.7,13.4-30.1
			s-24.2-20.1-31.8-15.9c-7.5,4.2-10,22.1-10,32.6s-1.3,23-2.5,29.7c-1.3,6.7-2.1,13.4-2.1,13.4L1543.2,363.3L1543.2,363.3z"/>
		<g id="elr3l4zy57icr">
			<path id="el42cnr86vald" class="st1" d="M1527.6,260.5c0,0-0.3,0.6-0.9,1.6c-2.7,4.9-10.7,19.4-9.8,22.3c1.1,3.6,3.2,6.8,1.8,9.3
				c-1.4,2.5-8.2,14.3-9.3,17.8c-1.1,3.6-0.4,5.7,1.8,6.4c2.1,0.7,4.6,2.8,4.6,2.8s-4.3,17.5-5.3,29.3c-1.1,11.8-3.2,19.3,5.7,21.1
				s35.7-3.2,46.4-10.4c10.7-7.1,11.1-10.7,9.6-19.3c-1.4-8.6-2.5-35.3-1.8-42.8c0.7-7.5,5.3-9.6,7.9-11.4
				c2.5-1.8,11.8,3.9,11.4,12.5c-0.3,8.6-4.6,14.3-9.6,17.1l-5,2.8c0,0-4.3,0.7,2.1,11.4c6.4,10.7,12.5,11.8,15.7,10
				s7.9-6.8,7.9-6.8s-8.6,0.4-5.7-3.2s13.6-2.8,18.9-19.6c5.3-16.8,2.1-26.8-5.7-44.2c-7.9-17.5-32.5-22.5-38.2-23.6s-15-3.2-15-3.2
				s-13.6-8.2-27.1-2.8c-13.6,5.3-12.1,13.9-8.6,18.5C1519.3,256.3,1522.2,261.3,1527.6,260.5L1527.6,260.5z"/>
			<path id="eleaid0oxu4h8" class="st0" d="M1570.1,243.8c-5.7-1.1-15-3.2-15-3.2s-13.6-8.2-27.1-2.8c-13.6,5.3-12.1,13.9-8.6,18.5
				c0,0,2.8,5,8.2,4.3c0,0,25.7-1.8,28.5,0.4c2.8,2.1-0.4,1.4-3.6,9.6c-3.2,8.2-4.6,8.6,2.1,12.1c6.8,3.6,8.6,8.6,8.6,8.6
				s-1.8,37.8-3.2,40.7s-7.1-2.5-15.3-6.4c-8.2-3.9-28.9-4.6-28.9-4.6s-4.3,17.5-5.3,29.3c-1.1,11.8-3.2,19.3,5.7,21.1
				s35.7-3.2,46.4-10.4c10.7-7.1,11.1-10.7,9.6-19.3c-1.4-8.6-2.5-35.3-1.8-42.8c0.7-7.5,5.3-9.6,7.9-11.4
				c2.5-1.8,11.8,3.9,11.4,12.5c-0.4,8.6-4.6,14.3-9.6,17.1l-5,2.8c0,0-4.3,0.7,2.1,11.4c6.4,10.7,12.5,11.8,15.7,10
				s7.9-6.8,7.9-6.8s-8.6,0.4-5.7-3.2s13.6-2.8,18.9-19.6c5.3-16.8,2.1-26.8-5.7-44.2C1600.4,249.8,1575.7,244.8,1570.1,243.8
				L1570.1,243.8z"/>
			<path id="eli9f25szews" class="st3" d="M1531.2,296.6c0,2.2-0.9,3.9-2.1,3.9c-1.2,0-2.1-1.8-2.1-3.9c0-2.2,0.9-3.9,2.1-3.9
				C1530.2,292.7,1531.2,294.4,1531.2,296.6z"/>
			<path id="elfc1c1a745zb" class="st4" d="M1519,289.5c0,0,12.1-4.6,23.2-1.1c0,0,0.7,11.1,0,15.7c-0.7,4.6-7.9,6.4-13.6,5
				c-5.7-1.4-7.1-7.5-8.2-10.4C1519.4,295.9,1519,289.5,1519,289.5L1519,289.5z"/>
			<path id="eljshxcqjz2ek" class="st4" d="M1519,289.5c0,0-6.1-0.7-9.3,0.4c0,0-2.5,5.7,3.2,11.4"/>
			<path id="elqqhhrn0386q" class="st3" d="M1522.9,284.1c0,0,4.6-2.8,8.9-2.5c4.3,0.3,8.9,3.6,5.7,3.9c-3.2,0.4-8.2-1.4-11.8,0
				C1522.2,286.9,1522.6,285.9,1522.9,284.1L1522.9,284.1z"/>
			<polygon id="el6ce9of0189" class="st0" points="1542.2,288.4 1572.2,291.6 1570.8,295.9 1552.9,293 1550.4,295.2 1542.4,294.6 
							"/>
			<path id="elhxupg2kzntc" class="st1" d="M1523.6,334.2l14.1-6.4c0,0,2.1,5.9-4.4,9.8C1526.9,341.4,1523.6,334.2,1523.6,334.2
				L1523.6,334.2z"/>
		</g>
		<polygon id="elzp8vth44i1" class="st1" points="1600,351.8 1546.7,393.7 1552.8,406.3 1605,360.2 		"/>
		<path id="elb4mcrc83i44" class="st1" d="M1511.6,538.6l14.5-3.6c0,0,0.6,18.4,0.6,21.2c0,2.8-18.7,0.3-18.7,0.3L1511.6,538.6
			L1511.6,538.6z"/>
		<path id="elpkc9ak6bisi" class="st0" d="M1518,575c0,0-4.5,72.8,0.4,77.7c4.9,4.9,21.6,1.8,21.6,1.8l-12.1-84
			C1527.8,570.5,1522,571.4,1518,575L1518,575z"/>
		<path id="elvogg25gob" class="st2" d="M1605,355.6l-56,52.5c0,0-22.1,88.7-24,95.2s-4.6,20.2-4.6,20.2s8.8,127.9,11.8,132.5
			c3,4.6,32.7,8.8,76.9,3.8c44.2-4.9,68.9-21,68.9-21s-16.4-59.8-23.6-83.4s-11.8-38.5-12.2-41.5c-0.4-3,0.8-77.7-1.2-89.5
			c-1.9-11.8-7.2-26.6-18.3-45.3C1611.8,360.6,1605,355.6,1605,355.6L1605,355.6z"/>
		<line id="el110w6orcs6hh" class="st4" x1="1593" y1="391.8" x2="1612.6" y2="369.9"/>
		<path id="el4o034nvz6fx" class="st4" d="M1534.6,507.9c7-9.3,16.3-23.3,22.1-39.4c10.4-28.9,14.5-46,14.5-46l-19.3-11.5l23.4,0.7
			l11.3-12.6"/>
		<path id="elwgjk8rp3xpj" class="st4" d="M1524.8,519.6c0,0,1.9-2,4.8-5.5"/>
		<g id="elhw2zm9zk">
			<path id="elit8rrnp4jo" class="st1" d="M1502.7,526.4c0,0,6.1,5,7.5,6.1c1.4,1.1,1.7,3.9,1.7,3.9s-3.9-1.7-6.4-1.4
				c-2.5,0.3-3.6-1.4-3.6-1.4L1502.7,526.4L1502.7,526.4z"/>
			<path id="elzsmdm9b6tk" class="st1" d="M1515,548.9c0,0-0.8-9.5-3.1-12.6c-2.2-3.1-4.7-4.5-6.1-3.9c-1.4,0.6-3.9,1.1-3.9,1.1
				s-10.9-7.5-14.8-8.4s-6.7,0.8-7.2,3.6c-0.6,2.8-0.8,5.6-0.8,5.6s-3.4,1.4-5,7c-1.7,5.6,0.8,11.4,0.8,11.4s-2,10.3-0.3,13.7
				s5.6,5.3,5.6,5.3s18.1,2.8,20.9,2.8s4.7-1.1,4.7-1.1S1507.7,552.8,1515,548.9z"/>
			<path id="eltmkpkqmyjt" class="st1" d="M1494.9,524.1c0,0-3.1,10.3-3.9,12.8c-0.8,2.5,1.4,4.7,4.5,4.2c3.1-0.6,6.1-6.7,7.5-11.1
				S1499.1,521.6,1494.9,524.1L1494.9,524.1z"/>
			<path id="elsvh9t9zauy9" class="st1" d="M1485.4,537.8c0,0-5-5.6-7.5-6.1c-2.5-0.6-5.3,1.7-3.9,5.3c1.4,3.6,6.4,7.2,9.5,7.2
				C1486.5,544.2,1488.2,541.4,1485.4,537.8L1485.4,537.8z"/>
			<path id="elif7ud7otfj" class="st1" d="M1470.1,550.9c0,0-2.5,4.5,0,7c2.5,2.5,11.1,6.4,12.3,3.9c1.1-2.5-0.8-4.5-3.1-6.4
				C1477,553.4,1472.8,549.8,1470.1,550.9L1470.1,550.9z"/>
			<path id="elfd9zyw531ak" class="st1" d="M1475.9,568.7c0,0-1.1,2.8,1.1,5c2.2,2.2,4.7,3.1,7.5,2c2.8-1.1,4.2-2,4.2-2l-8.6-2
				L1475.9,568.7z"/>
		</g>
		<g id="elk6dhfrzg1v">
			<path id="elk2od1ipa818" class="st2" d="M1605,396.8c0,0-16,16-17.9,31.6c-1.9,15.6,3,86.4,3,86.4s-3.8-0.4-3.8,3
				c0,3.4,0.4,7.6,0.4,7.6s-55.2,20.6-60.9,21.7c-5.7,1.2-10.7-1.9-16,1.9c-5.3,3.8-10.3,18.3-6.5,28.2c3.8,9.9,19.4,13.3,24.4,13.7
				c4.9,0.4,81.9-13.7,96-14.5s13.3-23.6,13.3-23.6l9.5-67.4c0,0,2.3-50.3-3.4-68.2c-5.7-17.9-11.4-28.2-23.2-30.1"/>
			<path id="elupipca318i" class="st4" d="M1590.1,523.9c0,0,12.2-4.9,20.6-3.4c8.4,1.5,10.3,4.2,10.3,4.2"/>
			<path id="elybnrxba3lc" class="st4" d="M1613,515.2c0,0-9.5-2.7-17.1,0"/>
			<path id="elirvxhwl3qx" class="st4" d="M1613.3,530.4c0,0,6.1,2.3,8,1.2s2.3-8,2.3-8"/>
		</g>
	</g>
</g>
<g id="freepik--Character_1--inject-217">
	<g id="el40u270a2wre">
		<path id="elx6g58ysp24m" class="st0" d="M180,627.5l18.1,134c0,0-9.3,43.7-7.6,60.6s12.2,114.2,12.2,114.2s-3.5,7.6-3.5,10.5v9.9
			c0,0-5.8,21.6-5.8,25.6c0,4.1,7,4.7,9.3,4.7h33.8c0,0,3.5-5.8,3.5-11.6s-2.9-21-2.9-23.3s1.2-11.6,0-18.1
			c-1.2-6.4-4.7-23.3-4.7-23.3s13.4-105.5,14.6-109.5c1.2-4.1,10.5-51.9,11.1-53.6c0.6-1.8,1.8-29.1,1.8-29.1l8.7,72.3
			c0,0-8.7,39-5.2,60.6c3.5,21.6,15.2,88.6,15.2,88.6s-2.3,15.7-0.6,18.1c1.8,2.3-1.2,21.6,1.8,23.3c2.9,1.8,17.5,0.6,21.6,0.6
			s17.5,0.6,28,1.2c10.5,0.6,26.8,1.8,25-2.9c-1.8-4.7-8.2-12.8-15.2-16.3c-7-3.5-22.7-16.9-22.7-16.9l-1.8-9.3c0,0-5.2-4.7-5.2-8.7
			s2.9-71.1,2.9-84.5c0-13.4,2.3-64.7,2.3-80.4c0-15.7,28.8-148.1,26.5-137.9c-3.1,13.7-1.3-18.9-2.5-23l-9.4,2.4L180,611.8
			L180,627.5L180,627.5z"/>
		<path id="elokyo8ujs89h" class="st1" d="M276.9,640.3l49.9-26.7L302.4,517c0,0-9.5,36.3-10,50.6
			C291.9,582,276.9,640.3,276.9,640.3z"/>
		<g id="eloqkr5x493f">
			<g id="ela58pqpbob6">
				<path id="elnql98o62io9" class="st1" d="M391.9,456.3l7.2-17.1c0,0,10.6-5.9,13.2-9.9c2.6-4,9.9-11.2,11.2-6.6
					c1.3,4.6-5.9,13.8-5.9,13.8l32.3-0.7c0,0,13.2-5.3,11.9-0.7c-1.3,4.6-5.3,13.2-13.2,17.8c-7.9,4.6-30.3,9.2-37.6,11.2l-7.2,2
					l-6.6,21.1L384,465.5L391.9,456.3L391.9,456.3z"/>
				<path id="elio6zfykfafo" class="st1" d="M461.1,438.1c0,0-2.2-0.9-4.7-0.4c-2.6,0.4-7.3,2.2-7.3,2.2l-5.6,0.9
					c0,0-3.9,0.4-5.6,0.9l-1.7,0.4"/>
				<path id="elvkfmx1efjo" class="st1" d="M459.2,441.5c0,0-6.5,0.6-8.9,1.7l-2.4,1.1l-12.6,1.5"/>
				<path id="el9l66api39og" class="st1" d="M410.9,454.3c3.6-1.5,7.8-2.8,12.2-3.1c11.6-0.7,17.2-1,17.2-1s13.1-4.8,14.9-5.2"/>
			</g>
			<g id="ellb3kxjc3pcn">
				<path id="elb6vyfn0je4a" class="st2" d="M385.6,458l-45.7,38.7c-2.2-17.2-4.9-35.4-5.1-37c-0.4-3,1.3-33.6-0.9-44.4
					c-2.2-10.8-6.5-10.4-6.5-10.4s-1.6,40.4-2.7,75.4l-1.7-2l1.1,18.8c-0.5,18-0.8,32-0.5,33.6c0.2,1.2,1.4,1.8,2.9,1.9
					c1.2,11.3,3.3,22.6,6.6,22.4c6.6-0.5,16.8-5.1,25.9-17.8c9.1-12.7,35-41.6,35-41.6l12.2-16.8L385.6,458L385.6,458z"/>
				<path id="eliwy5mwcgtan" class="st3" d="M342,523.5l0.5-11.6c0.2-0.2,0.4-0.4,0.6-0.6l-0.5,12.3L342,523.5L342,523.5z
					 M363.6,529.4l-13.5,0.4v0.6l13.5-0.4L363.6,529.4L363.6,529.4z M350.1,523.2l15.4-1.1l0-0.6l-15.4,1.1L350.1,523.2z
					 M375.1,470.5l6.9,14.9l0.5-0.3l-6.9-14.9L375.1,470.5z M368.9,475.6l7.2,12.1l0.5-0.3l-7.3-12.2L368.9,475.6L368.9,475.6z
					 M387.9,489.2l3.1,1.2l0.4-0.5l-3.3-1.2L387.9,489.2L387.9,489.2z M389.7,481l5.7,3.4c0.1-0.2,0.2-0.3,0.4-0.5l-5.8-3.5
					L389.7,481L389.7,481z M386.5,477.6l-2.9-1.6l-0.3,0.5l2.9,1.6L386.5,477.6z M388.2,462.2l3.9,14.2l0.6-0.2l-3.9-14.2
					L388.2,462.2z M382.1,466.1l-0.5,0.3l1.5,2.8l0.5-0.3L382.1,466.1z M356.6,489.7l0.4-2.7c-0.2,0.2-0.5,0.4-0.7,0.7l-0.3,2
					L356.6,489.7L356.6,489.7z M362.7,493.4l0.5-12.3c-0.2,0.2-0.4,0.4-0.6,0.6l-0.5,11.6L362.7,493.4L362.7,493.4z M383.7,499.3
					l-13.5,0.4v0.6l13.5-0.4L383.7,499.3L383.7,499.3z M370.1,493.1l15.4-1.1l0-0.6l-15.4,1.1L370.1,493.1z M361.5,501.3l-0.4-0.4
					l-10.3,10.7l0.4,0.4L361.5,501.3z M355.6,499.1l-0.3-0.5l-9.6,6.7l0.3,0.5L355.6,499.1z M368.7,489.4l1.1-2.6l-0.6-0.2l-1.1,2.6
					L368.7,489.4z M365.3,494.7l-0.5-0.3l-1.6,2.9l0.5,0.3L365.3,494.7z M386.4,490.6c-0.2,0-0.4,0-0.6,0.2
					c-0.2,0.1-0.2,0.3-0.3,0.5c0,0.4,0.3,0.8,0.7,0.8c0.2,0,0.4-0.1,0.5-0.2c0.2-0.1,0.3-0.3,0.3-0.5c0-0.2-0.1-0.4-0.2-0.6
					C386.8,490.7,386.6,490.6,386.4,490.6z M364.4,507.7c0.2,0,0.4-0.1,0.6-0.2s0.2-0.3,0.3-0.5c0-0.2,0-0.4-0.2-0.6
					c-0.1-0.2-0.3-0.2-0.5-0.3c-0.2,0-0.4,0.1-0.5,0.2c-0.2,0.1-0.3,0.3-0.3,0.5C363.8,507.3,364.1,507.7,364.4,507.7z M355.1,500.6
					l6.9,14.9l0.5-0.3l-6.9-14.9L355.1,500.6z M348.9,505.6l7.2,12.1l0.5-0.3l-7.3-12.2L348.9,505.6L348.9,505.6z M367.9,519.2
					l3.1,1.2c0.1-0.2,0.2-0.3,0.4-0.5l-3.3-1.2L367.9,519.2L367.9,519.2z M369.6,511.1l5.7,3.4c0.1-0.2,0.2-0.3,0.4-0.5l-5.8-3.5
					L369.6,511.1L369.6,511.1z M366.4,507.6l-2.9-1.6l-0.3,0.5l2.9,1.6L366.4,507.6z M368.2,492.3l3.9,14.2l0.6-0.2l-3.9-14.2
					L368.2,492.3z M362.1,496.2l-0.5,0.3l1.5,2.8l0.5-0.3L362.1,496.2z M348.7,519.4l1.1-2.6l-0.6-0.2l-1.1,2.6L348.7,519.4z
					 M345.2,524.7l-0.5-0.3l-1.6,2.9l0.5,0.3L345.2,524.7z M366.4,520.6c-0.2,0-0.4,0-0.6,0.2c-0.2,0.1-0.2,0.3-0.3,0.5
					c0,0.4,0.3,0.8,0.7,0.8c0.2,0,0.4-0.1,0.5-0.2c0.2-0.1,0.3-0.3,0.3-0.5c0-0.2-0.1-0.4-0.2-0.6
					C366.7,520.7,366.6,520.6,366.4,520.6z M344.4,537.7c0.2,0,0.4-0.1,0.6-0.2c0.2-0.1,0.2-0.3,0.3-0.5c0-0.2,0-0.4-0.2-0.6
					c-0.1-0.2-0.3-0.2-0.5-0.3c-0.2,0-0.4,0.1-0.5,0.2c-0.2,0.1-0.3,0.3-0.3,0.5C343.7,537.3,344.1,537.7,344.4,537.7z"/>
			</g>
			<path id="elpsxp5fos4le" class="st2" d="M345.3,618c-0.1,14.5-38.9,36.1-36.9,49.9c-5.2-37.2-0.4-32.3-3.7-78.5
				c3.9,55.8-0.2,36.6-0.8,76.8c-29.7-8.7-87.1-11.1-113.5-28c-3.9,2.1-11.7,6.2-15.5,8.2c-1.2-16.7,0.8-44.8,0.9-61.2
				c-0.6-14.4-2.5-44-3-59.9c-1.4-36.1-11-79.6-9.7-115.5c19.6-15.3,49.9-36.3,71.7-46.7c15.6-3,40.6,6.4,53.6,11.7
				c1.4-0.7,15.2,11.3,23.1,17.1l0,0c12.2,11.2,21.6,11.6,18.5,29.8c-1.1,19.3-0.2,40.7,0,60.3c2.2,39.1,1.3,83.7,13.1,120.8
				C346.2,609.4,345.2,608.4,345.3,618L345.3,618z"/>
			<path id="elmnr6ix0sij" class="st4" d="M294.7,474.5c0,0,4,54.3,8.6,105.7"/>
			<path id="eleozxy7x1c0s" class="st3" d="M251.9,463.3l1.8-1.4l0.4,0.5l-1.2,0.9H251.9L251.9,463.3z M283,391.1l6.8-13.1l-0.5-0.3
				l-6.8,13.1L283,391.1z M317.2,419.5L330,423c0-0.2,0-0.4,0-0.6l-12.7-3.4L317.2,419.5L317.2,419.5z M319.4,413.6l11.2,1.8
				c0-0.2,0-0.4,0-0.6l-11.1-1.8L319.4,413.6L319.4,413.6z M304.8,454.7l5.8-11.1l-0.5-0.3l-5.8,11.1L304.8,454.7z M297.1,453.4
				l0.5,0.3l6.4-12.2l-0.5-0.3L297.1,453.4z M327.3,451.2l2.3-1.7c0-0.2,0-0.5,0-0.7l-2.7,2L327.3,451.2L327.3,451.2z M272.8,457.7
				l-0.5,0.4l3.9,5.3h0.7L272.8,457.7L272.8,457.7z M278.1,452.4l8.1,11h0.7l-8.3-11.3L278.1,452.4L278.1,452.4z M285.1,429.7
				l7.2,12.8l0.5-0.3l-7.2-12.8L285.1,429.7z M292.6,426.6l5.6,13.6l0.6-0.2l-5.6-13.6L292.6,426.6z M300,427.9l11.1-6.4l-0.3-0.5
				l-11.1,6.4L300,427.9z M303.9,432.5l12.2-4.2l-0.2-0.6l-12.2,4.2L303.9,432.5z M296.2,463.4h1l3.9-3l-0.4-0.5L296.2,463.4
				L296.2,463.4z M309.1,462.4l-0.4-0.4l-1.6,1.4h0.9L309.1,462.4z M287.6,448.8l-0.6,0.2l1.2,3.1l0.6-0.2L287.6,448.8z
				 M322.7,455.3l-2.4-2.4l-0.4,0.4l2.4,2.4L322.7,455.3z M322.6,458l-0.6,0l0.4,5.3h0.6L322.6,458z M315.6,463.3l1.5-6.8l-0.6-0.1
				l-1.5,6.9L315.6,463.3L315.6,463.3z M309.9,433.2l-0.6,0.1l0.6,3.6l0.6-0.1L309.9,433.2z M309.8,456.4l0.5,0.3l2.3-4.1l-0.5-0.3
				L309.8,456.4z M323.5,425.6l-3.1,1.2l0.2,0.6l3.1-1.2L323.5,425.6z M315.9,438.2l9.4,5.8l0.3-0.5l-9.4-5.8L315.9,438.2z
				 M317.6,433l12,5.5c0-0.2,0-0.4,0-0.7l-11.7-5.4L317.6,433L317.6,433z M315.4,444.4l3.1,0.6l0.1-0.6l-3.1-0.6L315.4,444.4z
				 M329.1,430.8l0.6,0.1c0-0.2,0-0.4,0-0.6l-0.5-0.1L329.1,430.8L329.1,430.8z M281.5,441.5l3.9-1.2l-0.2-0.6l-3.9,1.2L281.5,441.5
				z M267.5,419.1l14.3-3.7l-0.2-0.6l-14.3,3.7L267.5,419.1z M268.9,425.8l0.2,0.6l14.3-3.7l-0.2-0.6L268.9,425.8z M276.9,387
				l0.5,0.3l6.8-13.1l-0.5-0.3L276.9,387z M250.9,364.6l-2.5,12.7l0.6,0.1l2.5-12.7L250.9,364.6z M256.3,378.8l0.6,0.1l2.6-13.8
				c-0.2,0-0.4-0.1-0.6-0.1L256.3,378.8L256.3,378.8z M300.4,402l-1.7-14.6l-0.6,0.1l1.7,14.6L300.4,402z M307.7,400.2l0.6-0.1
				L305,387c-0.3-0.2-0.5-0.4-0.8-0.6L307.7,400.2z M305.7,411.3l8.4-10.6l-0.5-0.4l-8.4,10.6L305.7,411.3z M319.2,404.9l-9.1,12.5
				l0.5,0.4l9.1-12.5L319.2,404.9z M275,394l14.7,1.6l0.1-0.6l-14.7-1.6L275,394z M273.3,399l14.4,3.1l0.1-0.6l-14.4-3.1L273.3,399z
				 M257.3,405.9l11.8,8.8l0.4-0.5l-11.8-8.8L257.3,405.9z M262.1,399.4l11.8,8.8l0.4-0.5l-11.8-8.8L262.1,399.4z M272,431.2
				l-1.2,14.7l0.6,0l1.2-14.7L272,431.2z M280.2,432.3l-0.6-0.1l-2,15.6l0.6,0.1L280.2,432.3z M284.3,413l10.4,10.4l0.4-0.4
				l-10.4-10.4L284.3,413z M290.1,407.3l10.4,10.4l0.4-0.4l-10.4-10.4L290.1,407.3z M252,433.9l9.7-8.9l-0.4-0.4l-9.7,8.9L252,433.9
				z M254.6,439l11.6-9l-0.4-0.5l-11.6,9L254.6,439z M256.7,396.6l0.3,0.5l12.1-8.4l-0.3-0.5L256.7,396.6z M252.4,390.5l12.1-8.4
				l-0.3-0.5l-12.1,8.4L252.4,390.5z M261.2,458.2l0.4-0.4l-9.2-9l-0.4,0.4L261.2,458.2z M256.9,445.8l8.4,7.3l0.4-0.5l-8.4-7.3
				L256.9,445.8z M261.6,370.4l14.6,0.9l0-0.6l-14.6-0.9L261.6,370.4z M262.5,377.9l0.1,0.6l14.6-1.7l-0.1-0.6L262.5,377.9z
				 M268.5,393.4v2.1h0.6v-2.1H268.5z M251.8,402.1h3.6v-0.6h-3.6V402.1z M264.6,438.7l-1.2,3.1l0.6,0.2l1.2-3.1L264.6,438.7z
				 M279.4,405.4l-0.5,0.4l1.9,2.5l0.5-0.4L279.4,405.4z M324.8,408.5l-1.3-2.6l-0.5,0.3l1.3,2.6L324.8,408.5z M290.9,387.2
				l-0.3,0.5l3,1.8l0.3-0.5L290.9,387.2z M262.8,463.3l0.3-1.8l-0.6-0.1l-0.3,1.9H262.8z M321.6,400c-0.3-0.2-0.5-0.4-0.8-0.6
				l0.3,0.8L321.6,400L321.6,400z M272.8,381.6c-0.1,0.1-0.2,0.3-0.2,0.5c0,0.2,0.1,0.4,0.2,0.5c0.1,0.1,0.2,0.1,0.3,0.2
				c0.1,0,0.2,0,0.3,0s0.2,0,0.3,0c0.1,0,0.2-0.1,0.3-0.2c0.1-0.2,0.2-0.3,0.2-0.5c0-0.2-0.1-0.4-0.2-0.5
				C273.6,381.3,273.1,381.3,272.8,381.6L272.8,381.6z M252.2,379.5c0,0-0.2-0.1-0.3-0.2c-0.3-0.1-0.6,0-0.8,0.2
				c-0.1,0.1-0.2,0.3-0.2,0.5c0,0.1,0,0.2,0,0.3c0,0.1,0.1,0.2,0.2,0.2c0.1,0.1,0.1,0.1,0.2,0.2c0.1,0,0.2,0.1,0.3,0.1
				c0.2,0,0.4-0.1,0.5-0.2s0.2-0.3,0.2-0.5c0-0.1,0-0.2-0.1-0.3C252.3,379.7,252.2,379.6,252.2,379.5z M285.4,405.1
				c0,0,0.2,0,0.3-0.1c0.1,0,0.2-0.1,0.3-0.2c0.1-0.1,0.2-0.3,0.2-0.5c0-0.2-0.1-0.4-0.2-0.5c-0.3-0.3-0.8-0.3-1.1,0
				c-0.1,0.1-0.2,0.3-0.2,0.5c0,0.2,0.1,0.4,0.2,0.5C285.1,405,285.2,405.1,285.4,405.1L285.4,405.1z M296,396.5c0,0,0.2,0,0.3,0
				c0.1,0,0.2-0.1,0.3-0.2c0.1-0.1,0.2-0.3,0.2-0.5c0-0.2-0.1-0.4-0.2-0.5c-0.1-0.1-0.2-0.1-0.3-0.2c-0.2-0.1-0.4-0.1-0.6,0
				c-0.1,0-0.2,0.1-0.3,0.2c-0.1,0.1-0.2,0.3-0.2,0.5c0,0.2,0.1,0.4,0.2,0.5c0.1,0.1,0.2,0.1,0.3,0.2
				C295.8,396.5,295.9,396.5,296,396.5z M300.1,412.4c-0.1,0.1-0.2,0.3-0.2,0.5c0,0.2,0.1,0.4,0.2,0.5c0.1,0.1,0.3,0.2,0.5,0.2
				c0.2,0,0.4-0.1,0.5-0.2c0.1-0.2,0.2-0.3,0.2-0.5c0-0.2-0.1-0.4-0.2-0.5C300.8,412.1,300.3,412.1,300.1,412.4z M309.9,417.7
				c0,0-0.2,0.1-0.3,0.2c-0.1,0.1-0.2,0.3-0.2,0.5c0,0.2,0.1,0.4,0.2,0.5c0.1,0.1,0.2,0.1,0.3,0.2c0.1,0,0.2,0.1,0.3,0.1
				c0.2,0,0.4-0.1,0.5-0.2c0.1-0.1,0.2-0.3,0.2-0.5c0-0.2-0.1-0.4-0.2-0.5c-0.1-0.1-0.2-0.1-0.3-0.2
				C310.3,417.7,310.1,417.7,309.9,417.7z M281.6,427.7c0,0,0.2,0.1,0.3,0.1s0.2,0,0.3-0.1c0.1,0,0.2-0.1,0.3-0.2
				c0.1-0.1,0.2-0.3,0.2-0.5c0-0.2-0.1-0.4-0.2-0.5c-0.3-0.3-0.8-0.3-1.1,0c-0.1,0.1-0.2,0.3-0.2,0.5c0,0.2,0.1,0.4,0.2,0.5
				C281.4,427.6,281.5,427.7,281.6,427.7L281.6,427.7z M301.9,454.1c-0.2-0.1-0.4-0.1-0.6,0c-0.1,0-0.2,0.1-0.3,0.2
				c-0.1,0.1-0.2,0.3-0.2,0.5c0,0.2,0.1,0.4,0.2,0.5c0.1,0.1,0.2,0.1,0.3,0.2c0.1,0,0.2,0.1,0.3,0.1c0.1,0,0.2,0,0.3-0.1
				c0.1,0,0.2-0.1,0.3-0.2c0.1-0.1,0.2-0.3,0.2-0.5c0-0.2-0.1-0.4-0.2-0.5C302,454.2,302,454.1,301.9,454.1z M324.3,460.3
				c0.1-0.1,0.2-0.3,0.2-0.5c0-0.2-0.1-0.4-0.2-0.5c-0.3-0.3-0.8-0.3-1.1,0c-0.1,0.1-0.2,0.3-0.2,0.5c0,0.2,0.1,0.4,0.2,0.5
				c0.2,0.1,0.3,0.2,0.5,0.2C324,460.6,324.2,460.5,324.3,460.3L324.3,460.3z M266.3,457.8c0,0-0.2-0.1-0.3-0.2
				c-0.3-0.1-0.6,0-0.8,0.2c-0.1,0.1-0.1,0.2-0.2,0.3c0,0.1-0.1,0.2-0.1,0.3c0,0.2,0.1,0.4,0.2,0.5c0.2,0.1,0.3,0.2,0.5,0.2
				c0.1,0,0.2,0,0.3-0.1c0.1,0,0.2-0.1,0.3-0.2c0.1-0.2,0.2-0.3,0.2-0.5c0-0.1,0-0.2-0.1-0.3C266.4,457.9,266.4,457.8,266.3,457.8z
				 M245.9,436.3c0.1,0,0.2-0.1,0.3-0.2c0.1-0.1,0.2-0.3,0.2-0.5c0-0.2-0.1-0.4-0.2-0.5c-0.1-0.1-0.2-0.1-0.3-0.2
				c-0.3-0.1-0.6,0-0.8,0.2c-0.1,0.1-0.1,0.2-0.2,0.3c0,0.1,0,0.2,0,0.3c0,0.2,0.1,0.4,0.2,0.5c0.1,0.1,0.3,0.2,0.5,0.2
				C245.7,436.4,245.8,436.3,245.9,436.3z M251.9,421.7c0.1,0,0.2-0.1,0.3-0.2c0.1-0.1,0.1-0.2,0.2-0.3c0-0.1,0.1-0.2,0.1-0.3
				c0-0.2-0.1-0.4-0.2-0.5c-0.2-0.2-0.5-0.3-0.8-0.2c-0.1,0-0.2,0.1-0.2,0.2c-0.1,0.1-0.1,0.1-0.2,0.2c0,0.1,0,0.2,0,0.3
				c0,0.2,0.1,0.4,0.2,0.5c0.1,0.1,0.3,0.2,0.5,0.2C251.7,421.7,251.8,421.7,251.9,421.7z M261.9,414.1c0,0,0.2,0,0.3,0
				c0.2,0,0.4-0.1,0.5-0.2c0.1-0.2,0.2-0.3,0.2-0.5c0-0.2-0.1-0.4-0.2-0.5c-0.2-0.2-0.6-0.3-0.8-0.2c-0.1,0-0.2,0.1-0.3,0.2
				c-0.1,0.2-0.2,0.3-0.2,0.5c0,0.2,0.1,0.4,0.2,0.5C261.8,414,261.8,414.1,261.9,414.1z M263.2,420.4c0,0-0.1,0.2-0.2,0.3
				c0,0.1,0,0.2,0,0.3c0,0.2,0.1,0.4,0.2,0.5s0.3,0.2,0.5,0.2c0.1,0,0.2,0,0.3-0.1c0.1,0,0.2-0.1,0.3-0.2c0.1-0.1,0.2-0.3,0.2-0.5
				c0-0.2-0.1-0.4-0.2-0.5c-0.1-0.1-0.2-0.1-0.3-0.2C263.7,420.1,263.4,420.2,263.2,420.4z M292.7,443c0,0-0.2,0.1-0.3,0.2
				c-0.1,0.1-0.2,0.3-0.2,0.5c0,0.2,0.1,0.4,0.2,0.5c0.1,0.1,0.2,0.1,0.3,0.2c0.1,0,0.2,0.1,0.3,0.1c0.2,0,0.4-0.1,0.5-0.2
				c0.1-0.1,0.2-0.3,0.2-0.5c0-0.2-0.1-0.4-0.2-0.5C293.3,442.9,293,442.9,292.7,443z M293,460.6c0.2,0,0.4-0.1,0.5-0.2
				c0.1-0.2,0.2-0.3,0.2-0.5c0-0.2-0.1-0.4-0.2-0.5c-0.2-0.2-0.5-0.3-0.8-0.2c-0.1,0-0.2,0.1-0.3,0.2c-0.1,0.1-0.1,0.2-0.2,0.3
				c0,0.1,0,0.2,0,0.3c0,0.2,0.1,0.4,0.2,0.5c0.1,0.1,0.2,0.1,0.3,0.2C292.8,460.6,292.9,460.6,293,460.6z M282.2,452.5
				c0.2,0,0.4-0.1,0.5-0.2c0.1-0.1,0.2-0.3,0.2-0.5c0-0.2-0.1-0.4-0.2-0.5c-0.3-0.3-0.8-0.3-1.1,0c-0.1,0.1-0.2,0.3-0.2,0.5
				c0,0.2,0.1,0.4,0.2,0.5c0.1,0.1,0.2,0.1,0.2,0.2C282,452.5,282.1,452.5,282.2,452.5L282.2,452.5z M297.3,405.8
				c-0.1,0.1-0.2,0.3-0.2,0.5c0,0.2,0.1,0.4,0.2,0.5c0.1,0.1,0.3,0.2,0.5,0.2c0.2,0,0.4-0.1,0.5-0.2c0.1-0.1,0.2-0.3,0.2-0.5
				c0-0.2-0.1-0.4-0.2-0.5C298.1,405.5,297.5,405.5,297.3,405.8z M252.9,445.4c0,0,0.2,0.1,0.3,0.1c0.2,0,0.4-0.1,0.5-0.2
				c0.1-0.1,0.2-0.3,0.2-0.5c0-0.1,0-0.2-0.1-0.3c0-0.1-0.1-0.2-0.2-0.3c-0.1-0.1-0.2-0.1-0.3-0.2c-0.3-0.1-0.6,0-0.8,0.2
				c-0.1,0.1-0.1,0.2-0.2,0.3c0,0.1,0,0.2,0,0.3c0,0.2,0.1,0.4,0.2,0.5C252.7,445.3,252.8,445.3,252.9,445.4z M311.7,392.2
				c0.1,0.1,0.2,0.2,0.4,0.2c-0.2-0.1-0.3-0.3-0.5-0.4l0,0l0,0l0,0C311.5,392.1,311.6,392.2,311.7,392.2L311.7,392.2z M245.8,365.1
				c0,0,0.2,0,0.3,0c0.1,0,0.2,0,0.3,0c0.1,0,0.2-0.1,0.3-0.2c0.1-0.1,0.1-0.2,0.2-0.3c0-0.1,0-0.2,0-0.3c0-0.1,0-0.2,0-0.3
				c0-0.1-0.1-0.2-0.2-0.3c-0.1-0.1-0.2-0.1-0.3-0.2c-0.2-0.1-0.4-0.1-0.6,0c-0.1,0-0.2,0.1-0.3,0.2c-0.1,0.1-0.1,0.2-0.2,0.3
				c0,0.1,0,0.2,0,0.3c0,0.1,0,0.2,0,0.3c0,0.1,0.1,0.2,0.2,0.3C245.6,365,245.7,365.1,245.8,365.1z M244.1,387.7L244.1,387.7
				L244.1,387.7L244.1,387.7z M244.1,377.3l4.9,6.3l0.5-0.4l-5.4-6.9L244.1,377.3L244.1,377.3z M244.1,445.1l4.5,6.6l0.5-0.3l-5-7.3
				V445.1z M248.3,394.7l-0.5-0.3l-3.7,6v1.2L248.3,394.7L248.3,394.7z M249.1,456l-0.4-0.5l-4.7,3.7v0.8L249.1,456L249.1,456z
				 M244.1,413.4v0.7l5.4-2.6l-0.3-0.5L244.1,413.4L244.1,413.4z M244.1,422.9l11.1-6.2l-0.3-0.5l-10.8,6.1L244.1,422.9L244.1,422.9
				z M253.7,593.6l-1.8,1.4h1l1.2-0.9L253.7,593.6L253.7,593.6z M282.5,522.5l0.5,0.3l6.8-13.1l-0.5-0.3L282.5,522.5z M333.3,555
				l-15.9-4.3l-0.2,0.6l15.9,4.3L333.3,555z M333.4,547l-13.9-2.2l-0.1,0.6l14,2.3L333.4,547L333.4,547z M336.8,575.8
				c0-0.2-0.1-0.4-0.1-0.7l-9.8,7.2l0.4,0.5L336.8,575.8z M337.9,581.6l-6.5,6.9l0.4,0.4l6.2-6.6C338,582.1,337.9,581.9,337.9,581.6
				L337.9,581.6z M272.4,589.8l3.9,5.3h0.7l-4.1-5.6L272.4,589.8L272.4,589.8z M278.6,583.7l-0.5,0.4l8.1,11h0.7L278.6,583.7z
				 M292.8,573.9l-7.2-12.8l-0.5,0.3l7.2,12.8L292.8,573.9z M302.5,595.1l-7.2-12.8l-0.5,0.3l7.2,12.8L302.5,595.1z M297.3,568.3
				l-4.2-10.2l-0.6,0.2l4.6,11.2C297.2,569.1,297.2,568.7,297.3,568.3z M310.8,552.7l-2.9,1.7l0.1,0.6l3-1.7L310.8,552.7
				L310.8,552.7z M315.9,559.3l-6.3,2.2l0.1,0.6l6.4-2.2L315.9,559.3z M339.6,589.7L339.6,589.7c0.1-0.1,0-0.3,0-0.4l-0.3-0.2
				l-4,5.9h0.7L339.6,589.7L339.6,589.7z M288.9,583.6l-1.2-3.1l-0.6,0.2l1.2,3.1L288.9,583.6z M322.3,587.4l0.4-0.4l-2.4-2.4
				l-0.4,0.4L322.3,587.4z M322,589.7l0.4,5.3h0.6l-0.4-5.4L322,589.7z M316.3,589c0.1,0.4,0.2,0.9,0.3,1.3l0.4-2l-0.6-0.1
				L316.3,589L316.3,589z M320.6,559.1l3.1-1.2l-0.2-0.6l-3.1,1.2L320.6,559.1z M325.7,575.2l-9.4-5.8l-0.3,0.5l9.4,5.8L325.7,575.2
				L325.7,575.2z M317.5,596.1l-9.4-5.8l-0.3,0.5l9.4,5.8L317.5,596.1L317.5,596.1z M331.2,570.3l-13.4-6.2l-0.3,0.5l13.4,6.2
				L331.2,570.3z M325.4,630.2l-13.4-6.2l-0.3,0.5l13.4,6.2L325.4,630.2z M318.6,576.1l-3.1-0.6l-0.1,0.6l3.1,0.6L318.6,576.1z
				 M332.2,563.1l0.1-0.6l-3.1-0.6l-0.1,0.6L332.2,563.1z M285.1,571.4l-3.9,1.2l0.2,0.6l3.9-1.2L285.1,571.4z M298.8,480.1h-0.6
				l0.3,14.7h0.6L298.8,480.1z M304.8,493.9l0.6,0.1l1.6-14l-0.6-0.1L304.8,493.9z M298.4,510.9l0.4,0.5l10.1-7.7l-0.4-0.5
				L298.4,510.9z M292.6,507.3l12.4-7.9l-0.3-0.5l-12.4,7.9L292.6,507.3z M281.8,547l-0.2-0.6l-14.3,3.7l0.2,0.6L281.8,547
				L281.8,547z M283.1,553.8l-14.3,3.7l0.2,0.6l14.3-3.7L283.1,553.8z M277.4,519l6.8-13.1l-0.5-0.3l-6.8,13.1L277.4,519z
				 M261.3,483l2.8,14.5l0.6-0.1l-2.8-14.5L261.3,483z M272.1,495.9l0.6-0.1l-2.8-14.5l-0.6,0.1L272.1,495.9z M244.8,477.5l13,6.9
				l0.3-0.5l-13-6.9L244.8,477.5z M250.9,496.2l-2.5,12.7l0.6,0.1l2.5-12.7L250.9,496.2z M256.9,510.6l2.8-14.5l-0.6-0.1l-2.8,14.5
				L256.9,510.6z M298.1,519.1l1.7,14.6l0.6-0.1l-1.7-14.6L298.1,519.1z M308.3,531.7l-3.6-14.3l-0.6,0.1l3.6,14.3L308.3,531.7z
				 M279.9,488.1l-0.6,0.1l3.4,13.8l0.6-0.1L279.9,488.1z M283.5,483.7l6.5,13.2l0.5-0.3l-6.5-13.2L283.5,483.7z M312.8,505.1
				l7.4-13.1l-0.5-0.3l-7.4,13.1L312.8,505.1z M316.7,506.1l0.5,0.3l8.3-12.2L325,494L316.7,506.1z M330.4,528.3l1.8,2.1
				c0-0.3,0-0.6-0.1-1l-1.3-1.5L330.4,528.3z M323.7,530.6l9,8.3c0-0.3,0-0.6-0.1-0.9l-8.6-7.9L323.7,530.6L323.7,530.6z
				 M305.7,542.9l8.4-10.6l-0.5-0.4l-8.4,10.6L305.7,542.9z M319.2,536.5l-9.1,12.5l0.5,0.4l9.1-12.5L319.2,536.5z M289.6,526.6
				L275,525l-0.1,0.6l14.7,1.6L289.6,526.6z M287.8,533.2l-14.4-3.1l-0.1,0.6l14.4,3.1L287.8,533.2z M269.4,545.9l-11.8-8.8
				l-0.4,0.5l11.8,8.8L269.4,545.9z M262.1,531l11.8,8.8l0.4-0.5l-11.8-8.8L262.1,531z M271.4,577.6l1.2-14.7l-0.6,0l-1.2,14.7
				L271.4,577.6z M278.2,579.5l2-15.6l-0.6-0.1l-2,15.6L278.2,579.5z M284.3,544.7l10.4,10.4l0.4-0.4l-10.4-10.4L284.3,544.7z
				 M290,539l10.3,10.3c0-0.2,0.1-0.5,0.1-0.7l-10-10L290,539L290,539z M261.6,556.6l-0.4-0.4l-9.7,8.9l0.4,0.4L261.6,556.6z
				 M265.8,561.1l-11.6,9l0.4,0.5l11.6-9L265.8,561.1z M318.4,524.6l0.6-0.1l-1.6-14.7l-0.6,0.1L318.4,524.6z M323.9,521.6l0.6,0.1
				l1.1-11.7l-0.6-0.1L323.9,521.6z M262,475.6l0.5,0.3l6.1-10.6l-0.5-0.3L262,475.6z M269.1,520.3l-0.3-0.5l-12.1,8.4l0.3,0.5
				L269.1,520.3z M264.2,513.2l-12.1,8.4l0.3,0.5l12.1-8.4L264.2,513.2z M261.6,589.4l-9.2-9l-0.4,0.4l9.2,9L261.6,589.4z
				 M265.7,584.3l-8.4-7.3l-0.4,0.5l8.4,7.3L265.7,584.3z M261.6,502.1l14.6,0.9l0-0.6l-14.6-0.9L261.6,502.1z M262.5,509.5l0.1,0.6
				l14.6-1.7l-0.1-0.6L262.5,509.5z M277.1,482.3l0.3,0.5l9.4-5.8l-0.3-0.5L277.1,482.3z M271.6,477.4l0.3,0.5l13.4-6.2l-0.3-0.5
				L271.6,477.4z M327,489.3l-10-10l-0.4,0.4l10,10L327,489.3z M323.4,474.3l-0.5,0.4l7.3,9.3c0-0.3,0-0.7-0.1-1L323.4,474.3
				L323.4,474.3z M304.2,471.1l3.1,0.6l0.1-0.6l-3.1-0.6L304.2,471.1z M302.8,475l-0.6,0.2l0.7,2.1l0.6-0.2L302.8,475z M312.6,488.4
				l2-1.4l-0.3-0.5l-2,1.4L312.6,488.4z M255.7,490.6l2,1.4l0.3-0.5l-2-1.4L255.7,490.6z M268.4,525v2.1h0.6V525H268.4z
				 M255.4,533.1h-3.6v0.6h3.6V533.1z M263.9,573.7l1.2-3.1l-0.6-0.2l-1.2,3.1L263.9,573.7z M280.8,539.9l0.5-0.4l-1.9-2.5l-0.5,0.4
				L280.8,539.9z M322.9,537.8l1.3,2.6l0.5-0.3l-1.3-2.6L322.9,537.8z M295.5,501.6l1.9-1.9l-0.4-0.4l-1.9,1.9L295.5,501.6z
				 M290.8,518.9l-0.3,0.5l3,1.8l0.3-0.5L290.8,518.9z M263,593.2l-0.6-0.1l-0.3,1.9h0.6L263,593.2L263,593.2z M321,531.8l0.6-0.2
				l-1.2-3.1l-0.6,0.2L321,531.8z M309.8,515l3.1,0.6l0.1-0.6l-3.1-0.6L309.8,515z M261.1,466.8l-0.5-0.4l-7.2,9.2l0.5,0.4
				L261.1,466.8z M290.5,483.5l2.5,1.9l0.4-0.5l-2.5-1.9L290.5,483.5z M317.5,475.3l0.6-0.1l-0.6-3.1l-0.6,0.1L317.5,475.3z
				 M267,477l-1.2,3.6l0.6,0.2l1.2-3.6L267,477z M250.6,471.6c0.2,0,0.4-0.1,0.5-0.2c0.1-0.1,0.1-0.2,0.2-0.3c0-0.1,0.1-0.2,0.1-0.3
				c0-0.2-0.1-0.4-0.2-0.5c-0.2-0.2-0.6-0.3-0.8-0.2c-0.1,0-0.2,0.1-0.3,0.2c-0.1,0.1-0.2,0.3-0.2,0.5c0,0.1,0,0.2,0.1,0.3
				c0,0.1,0.1,0.2,0.2,0.3C250.2,471.5,250.4,471.6,250.6,471.6z M256.3,476.7c0,0-0.2,0.1-0.2,0.2c-0.1,0.1-0.2,0.3-0.2,0.5
				c0,0.2,0.1,0.4,0.2,0.5c0.1,0.1,0.3,0.2,0.5,0.2c0.1,0,0.2,0,0.3,0c0.1,0,0.2-0.1,0.3-0.2c0.1-0.1,0.1-0.2,0.2-0.3
				c0-0.1,0.1-0.2,0.1-0.3c0-0.2-0.1-0.4-0.2-0.5C256.9,476.7,256.6,476.6,256.3,476.7z M270.5,467c0.1,0,0.2-0.1,0.3-0.2
				c0.1-0.1,0.2-0.3,0.2-0.5c0-0.1,0-0.2,0-0.3c0-0.1-0.1-0.2-0.2-0.3c-0.1-0.1-0.2-0.1-0.3-0.2c-0.3-0.1-0.6,0-0.8,0.2
				c-0.1,0.1-0.1,0.2-0.2,0.3c0,0.1,0,0.2,0,0.3c0,0.2,0.1,0.4,0.2,0.5c0.1,0.1,0.3,0.2,0.5,0.2C270.3,467.1,270.4,467,270.5,467z
				 M291.2,479.7c-0.3-0.1-0.6,0-0.8,0.2c-0.1,0.1-0.2,0.3-0.2,0.5c0,0.2,0.1,0.4,0.2,0.5c0.1,0.1,0.3,0.2,0.5,0.2
				c0.2,0,0.4-0.1,0.5-0.2c0.1-0.1,0.2-0.3,0.2-0.5c0-0.2-0.1-0.4-0.2-0.5C291.4,479.8,291.3,479.8,291.2,479.7z M278.6,494.8
				c0.1,0,0.2-0.1,0.3-0.2c0.1-0.1,0.2-0.3,0.2-0.5c0-0.2-0.1-0.4-0.2-0.5c-0.1-0.1-0.2-0.1-0.3-0.2c-0.3-0.1-0.6,0-0.8,0.2
				c-0.1,0.1-0.2,0.3-0.2,0.5c0,0.2,0.1,0.4,0.2,0.5c0.1,0.1,0.3,0.2,0.5,0.2C278.4,494.8,278.5,494.8,278.6,494.8z M273,514.5
				c0,0,0.2,0,0.3,0c0.2,0,0.4-0.1,0.5-0.2c0.1-0.1,0.1-0.2,0.2-0.3c0-0.1,0-0.2,0-0.3c0-0.1,0-0.2,0-0.3c0-0.1-0.1-0.2-0.2-0.3
				c-0.2-0.2-0.5-0.3-0.8-0.2c-0.1,0-0.2,0.1-0.3,0.2c-0.1,0.1-0.1,0.2-0.2,0.3c0,0.1,0,0.2,0,0.3c0,0.1,0,0.2,0,0.3
				c0,0.1,0.1,0.2,0.2,0.3C272.8,514.3,272.9,514.4,273,514.5z M251.6,512.5c0.2,0,0.4-0.1,0.5-0.2c0.1-0.2,0.2-0.3,0.2-0.5
				c0-0.1,0-0.2-0.1-0.3c0-0.1-0.1-0.2-0.2-0.3c-0.3-0.3-0.8-0.3-1.1,0c-0.1,0.1-0.2,0.3-0.2,0.5c0,0.2,0.1,0.4,0.2,0.5
				C251.2,512.4,251.4,512.5,251.6,512.5L251.6,512.5z M285.1,535.2c0,0-0.2,0.1-0.3,0.2c-0.1,0.1-0.2,0.3-0.2,0.5s0.1,0.4,0.2,0.5
				c0.2,0.1,0.3,0.2,0.5,0.2c0.2,0,0.4-0.1,0.5-0.2c0.1-0.1,0.2-0.3,0.2-0.5s-0.1-0.4-0.2-0.5c-0.1-0.1-0.2-0.1-0.3-0.2
				C285.5,535.2,285.3,535.2,285.1,535.2z M296.5,527.9c0.1-0.1,0.2-0.3,0.2-0.5c0-0.1,0-0.2-0.1-0.3c0-0.1-0.1-0.2-0.2-0.3
				c-0.3-0.3-0.8-0.3-1.1,0c-0.1,0.1-0.1,0.2-0.2,0.3c0,0.1-0.1,0.2-0.1,0.3c0,0.2,0.1,0.4,0.2,0.5c0.1,0.1,0.3,0.2,0.5,0.2
				C296.2,528.1,296.4,528,296.5,527.9z M311.3,509.5c0,0-0.2,0.1-0.3,0.2c-0.1,0.1-0.2,0.3-0.2,0.5c0,0.2,0.1,0.4,0.2,0.5
				c0.1,0.1,0.2,0.1,0.3,0.2c0.1,0,0.2,0.1,0.3,0.1c0.2,0,0.4-0.1,0.5-0.2c0.1-0.1,0.2-0.3,0.2-0.5c0-0.2-0.1-0.4-0.2-0.5
				C311.9,509.5,311.6,509.4,311.3,509.5z M300,544c-0.1,0.1-0.2,0.3-0.2,0.5c0,0.2,0.1,0.4,0.2,0.5c0.2,0.1,0.3,0.2,0.5,0.2
				c0.2,0,0.4-0.1,0.5-0.2c0.1-0.3,0.1-0.6,0.2-0.9c0-0.1-0.1-0.2-0.1-0.2C300.8,543.7,300.3,543.7,300,544z M310.6,550.6
				c0.1-0.2,0.2-0.3,0.2-0.5c0-0.2-0.1-0.4-0.2-0.5c-0.3-0.3-0.8-0.3-1.1,0c-0.1,0.1-0.2,0.3-0.2,0.5c0,0.2,0.1,0.4,0.2,0.5
				c0.2,0.1,0.3,0.2,0.5,0.2C310.3,550.8,310.5,550.8,310.6,550.6z M281.8,559.4c0.2,0,0.4-0.1,0.5-0.2c0.1-0.2,0.2-0.3,0.2-0.5
				c0-0.2-0.1-0.4-0.2-0.5c-0.3-0.3-0.8-0.3-1,0c-0.1,0.2-0.2,0.3-0.2,0.5c0,0.2,0.1,0.4,0.2,0.5
				C281.4,559.3,281.6,559.4,281.8,559.4L281.8,559.4z M328.2,512.7c-0.1,0.1-0.2,0.3-0.2,0.5c0,0.2,0.1,0.4,0.2,0.5
				c0.2,0.1,0.3,0.2,0.5,0.2c0.2,0,0.4-0.1,0.5-0.2c0.1-0.1,0.2-0.3,0.2-0.5c0-0.2-0.1-0.4-0.2-0.5
				C329,512.4,328.5,512.4,328.2,512.7L328.2,512.7z M327.7,495.5c-0.1,0.1-0.2,0.3-0.2,0.5c0,0.2,0.1,0.4,0.2,0.5
				c0.2,0.1,0.3,0.2,0.5,0.2c0.2,0,0.4-0.1,0.5-0.2c0.1-0.2,0.2-0.3,0.2-0.5c0-0.2-0.1-0.4-0.2-0.5
				C328.5,495.3,328,495.3,327.7,495.5z M323.2,590.9c-0.1,0.1-0.2,0.3-0.2,0.5c0,0.1,0,0.2,0,0.3c0,0.1,0.1,0.2,0.2,0.2
				c0.1,0.2,0.3,0.2,0.5,0.2c0.1,0,0.2,0,0.3,0c0.1,0,0.2-0.1,0.3-0.2c0.1-0.1,0.1-0.1,0.2-0.2c0-0.1,0-0.2,0-0.3
				c0-0.2-0.1-0.4-0.2-0.5C324,590.6,323.5,590.6,323.2,590.9z M295.2,494.4c-0.2-0.1-0.4-0.1-0.6,0c-0.1,0-0.2,0.1-0.3,0.2
				c-0.1,0.1-0.2,0.3-0.2,0.5c0,0.2,0.1,0.4,0.2,0.5c0.2,0.1,0.3,0.2,0.5,0.2c0.1,0,0.2,0,0.3-0.1c0.1,0,0.2-0.1,0.3-0.2
				c0.1-0.1,0.2-0.3,0.2-0.5c0-0.2-0.1-0.4-0.2-0.5C295.4,494.5,295.3,494.4,295.2,494.4z M265.2,590.5c0.1,0.1,0.3,0.2,0.5,0.2
				c0.2,0,0.4-0.1,0.5-0.2c0.1-0.1,0.1-0.1,0.2-0.2c0-0.1,0.1-0.2,0.1-0.3c0-0.2-0.1-0.4-0.2-0.5c-0.3-0.3-0.8-0.3-1.1,0
				c-0.1,0.1-0.2,0.3-0.2,0.5c0,0.1,0,0.2,0.1,0.3C265,590.3,265.1,590.4,265.2,590.5z M246.1,567.8c0.1-0.1,0.2-0.3,0.2-0.5
				s-0.1-0.4-0.2-0.5c-0.2-0.2-0.5-0.3-0.8-0.2c-0.1,0-0.2,0.1-0.3,0.2c-0.1,0.1-0.2,0.3-0.2,0.5s0.1,0.4,0.2,0.5
				c0.1,0.1,0.3,0.2,0.5,0.2S245.9,567.9,246.1,567.8z M251.6,553.3c0.2,0,0.4-0.1,0.5-0.2c0.1-0.2,0.2-0.3,0.2-0.5
				s-0.1-0.4-0.2-0.5c-0.3-0.3-0.8-0.3-1.1,0c-0.1,0.1-0.2,0.3-0.2,0.5s0.1,0.4,0.2,0.5C251.2,553.3,251.4,553.3,251.6,553.3
				L251.6,553.3z M261.6,544.5c-0.1,0.1-0.2,0.3-0.2,0.5c0,0.2,0.1,0.4,0.2,0.5c0.1,0.1,0.3,0.2,0.5,0.2c0.2,0,0.4-0.1,0.5-0.2
				c0.1-0.2,0.2-0.3,0.2-0.5c0-0.2-0.1-0.4-0.2-0.5C262.4,544.2,261.9,544.2,261.6,544.5z M263.7,553.3c0.2,0,0.4-0.1,0.5-0.2
				c0.1-0.2,0.2-0.3,0.2-0.5s-0.1-0.4-0.2-0.5c-0.3-0.3-0.8-0.3-1.1,0c-0.1,0.1-0.2,0.3-0.2,0.5s0.1,0.4,0.2,0.5
				C263.3,553.3,263.5,553.3,263.7,553.3L263.7,553.3z M300.6,512.7c0,0-0.2-0.1-0.3-0.2c-0.3-0.1-0.6,0-0.8,0.2
				c-0.1,0.1-0.1,0.2-0.2,0.3c0,0.1,0,0.2,0,0.3c0,0.1,0,0.2,0,0.3c0,0.1,0.1,0.2,0.2,0.3c0.1,0.1,0.3,0.2,0.5,0.2
				c0.1,0,0.2,0,0.3,0c0.1,0,0.2-0.1,0.3-0.2c0.1-0.1,0.1-0.2,0.2-0.3c0-0.1,0-0.2,0-0.3c0-0.1,0-0.2,0-0.3
				C300.7,512.9,300.6,512.8,300.6,512.7z M293.5,574.8c-0.3-0.3-0.8-0.3-1.1,0c-0.1,0.1-0.2,0.3-0.2,0.5c0,0.1,0,0.2,0,0.3
				c0,0.1,0.1,0.2,0.2,0.3c0.1,0.1,0.3,0.2,0.5,0.2c0.1,0,0.2,0,0.3,0c0.1,0,0.2-0.1,0.2-0.2c0.2-0.2,0.2-0.3,0.2-0.5
				S293.6,574.9,293.5,574.8L293.5,574.8z M293.2,590.7c-0.3-0.1-0.6,0-0.8,0.2c-0.1,0.1-0.2,0.3-0.2,0.5c0,0.1,0,0.2,0,0.3
				c0,0.1,0.1,0.2,0.2,0.2c0.1,0.2,0.3,0.2,0.5,0.2c0.1,0,0.2,0,0.3,0c0.1,0,0.2-0.1,0.2-0.2c0.1-0.1,0.1-0.1,0.2-0.2
				c0-0.1,0.1-0.2,0.1-0.3c0-0.2-0.1-0.4-0.2-0.5C293.4,590.8,293.3,590.8,293.2,590.7z M281.6,582.8c-0.1,0.1-0.2,0.3-0.2,0.5
				c0,0.1,0,0.2,0.1,0.3c0,0.1,0.1,0.2,0.2,0.2c0.1,0.2,0.3,0.2,0.5,0.2c0.1,0,0.2,0,0.3-0.1c0.1,0,0.2-0.1,0.2-0.2
				c0.1-0.1,0.1-0.1,0.2-0.2c0-0.1,0.1-0.2,0.1-0.3c0-0.2-0.1-0.4-0.2-0.5C282.3,582.6,281.8,582.6,281.6,582.8z M298.6,605.7
				c-0.1,0.1-0.2,0.3-0.2,0.5c0,0.1,0,0.2,0.1,0.3c0,0.1,0.1,0.2,0.2,0.2c0.1,0.2,0.3,0.2,0.5,0.2c0.1,0,0.2,0,0.3-0.1
				c0.1,0,0.2-0.1,0.2-0.2c0.1-0.1,0.1-0.1,0.2-0.2c0-0.1,0.1-0.2,0.1-0.3c0-0.2-0.1-0.4-0.2-0.5
				C299.3,605.4,298.8,605.4,298.6,605.7z M297.2,537.4c-0.1,0.1-0.2,0.3-0.2,0.5s0.1,0.4,0.2,0.5c0.1,0.1,0.3,0.2,0.5,0.2
				c0.2,0,0.4-0.1,0.5-0.2c0.1-0.1,0.2-0.3,0.2-0.5s-0.1-0.4-0.2-0.5C298,537.1,297.5,537.1,297.2,537.4z M252.8,575.6
				c0,0-0.2,0.1-0.2,0.2c-0.1,0.2-0.2,0.3-0.2,0.5c0,0.1,0,0.2,0.1,0.3c0,0.1,0.1,0.2,0.2,0.2c0.1,0.2,0.3,0.2,0.5,0.2
				c0.1,0,0.2,0,0.3-0.1c0.1,0,0.2-0.1,0.2-0.2c0.1-0.1,0.1-0.1,0.2-0.2c0-0.1,0.1-0.2,0.1-0.3c0-0.2-0.1-0.4-0.2-0.5
				c-0.1-0.1-0.1-0.1-0.2-0.2C253.2,575.5,253,575.5,252.8,575.6z M311.6,522.8c-0.1,0.2-0.2,0.3-0.2,0.5s0.1,0.4,0.2,0.5
				c0.1,0.1,0.3,0.2,0.5,0.2c0.2,0,0.4-0.1,0.5-0.2c0.1-0.1,0.2-0.3,0.2-0.5s-0.1-0.4-0.2-0.5C312.4,522.5,311.9,522.5,311.6,522.8z
				 M341.4,531.3l-0.4-0.4l-10.3,10.7l0.4,0.4L341.4,531.3z M336.5,519.8l0.4-2.7c-0.2,0.2-0.5,0.4-0.7,0.7l-0.3,2L336.5,519.8
				L336.5,519.8z M335.5,529.1l-0.3-0.5l-9.6,6.7l0.3,0.5L335.5,529.1z M310.6,492.5c-0.1,0.1-0.2,0.3-0.2,0.5
				c0,0.2,0.1,0.4,0.2,0.5c0.2,0.1,0.3,0.2,0.5,0.2c0.2,0,0.4-0.1,0.5-0.2c0.1-0.2,0.2-0.3,0.2-0.5c0-0.2-0.1-0.4-0.2-0.5
				C311.4,492.2,310.9,492.2,310.6,492.5L310.6,492.5z M313.6,480.2c0.2,0,0.4-0.1,0.5-0.2c0.1-0.1,0.2-0.3,0.2-0.5
				c0-0.2-0.1-0.4-0.2-0.5c-0.3-0.3-0.8-0.3-1.1,0c-0.1,0.1-0.2,0.3-0.2,0.5c0,0.1,0,0.2,0,0.3c0,0.1,0.1,0.2,0.2,0.3
				C313.3,480.1,313.4,480.2,313.6,480.2z M325.3,502.6c-0.3-0.3-0.8-0.3-1.1,0c-0.1,0.1-0.2,0.3-0.2,0.5c0,0.1,0,0.2,0,0.3
				c0,0.1,0.1,0.2,0.2,0.3c0.1,0.1,0.3,0.2,0.5,0.2c0.2,0,0.4-0.1,0.5-0.2c0.1-0.1,0.1-0.2,0.2-0.3c0-0.1,0.1-0.2,0.1-0.3
				c0-0.1,0-0.2-0.1-0.3C325.4,502.8,325.3,502.7,325.3,502.6L325.3,502.6z M245.7,496.8c0,0,0.2,0,0.3,0c0.1,0,0.2,0,0.3,0
				c0.1,0,0.2-0.1,0.3-0.2c0.1-0.1,0.1-0.2,0.2-0.3c0-0.1,0.1-0.2,0.1-0.3c0-0.2-0.1-0.4-0.2-0.5c-0.3-0.3-0.8-0.3-1.1,0
				c-0.1,0.1-0.2,0.3-0.2,0.5c0,0.1,0,0.2,0,0.3c0,0.1,0.1,0.2,0.2,0.3C245.6,496.7,245.6,496.7,245.7,496.8L245.7,496.8z
				 M244.1,519.4L244.1,519.4L244.1,519.4L244.1,519.4z M244,509l4.9,6.3l0.5-0.4L244,508L244,509L244,509z M248.5,583.3l0.5-0.3
				l-5-7.3v1.1L248.5,583.3z M244,533.1l4.2-6.8l-0.5-0.3l-3.7,6L244,533.1L244,533.1z M249.1,587.7l-0.4-0.5l-4.7,3.7v0.8
				L249.1,587.7L249.1,587.7z M244,486.2l10,5.3l0.3-0.5l-10.3-5.4V486.2z M249.4,543.1l-0.3-0.5l-5.1,2.5v0.7L249.4,543.1
				L249.4,543.1z M254.8,547.8l-10.8,6.1v0.7l11.1-6.2L254.8,547.8L254.8,547.8z M244,469.4v0.8l8.8-6.8h-1L244,469.4z M281.8,469.9
				l-4.9-6.6h-0.7l5.1,7L281.8,469.9L281.8,469.9z M287,464.6l0.5-0.4l-0.7-0.9h-0.7L287,464.6L287,464.6z M288.6,469.1l0.4,0.5
				l8.1-6.2h-1L288.6,469.1L288.6,469.1z M295,474.9l12.9-11.6H307l-12.4,11.2L295,474.9L295,474.9z M323.6,471.6l-0.6-8.4h-0.6
				l0.6,8.4L323.6,471.6z M313.3,470.6l0.6,0.1l1.7-7.4h-0.6L313.3,470.6L313.3,470.6z M261.8,465.1l0.6,0.1l0.3-1.9h-0.6
				L261.8,465.1z M283,654.5l6.8-13.1l-0.5-0.3l-6.8,13.1L283,654.5z M293.5,640.1l6.8-13.1l-0.5-0.3l-6.8,13.1L293.5,640.1z
				 M277.4,650.7l6.8-13.1l-0.5-0.3l-6.8,13.1L277.4,650.7z M264.7,629.1l-2.8-14.5l-0.6,0.1l2.8,14.5L264.7,629.1z M269.2,613.2
				l2.8,14.5l0.6-0.1l-2.8-14.5L269.2,613.2z M258.1,615.6l-13-6.9l-0.3,0.5l13,6.9L258.1,615.6z M250.9,627.9l-2.5,12.7l0.6,0.1
				l2.5-12.7L250.9,627.9z M259.7,627.8l-0.6-0.1l-2.8,14.5l0.6,0.1L259.7,627.8z M345,607.1l-7.5,3.5l0.3,0.5l7.4-3.5
				C345.1,607.5,345.1,607.4,345,607.1z M345.3,616c0-0.2,0-0.5,0-0.7l-4.5,2.7l0.3,0.5L345.3,616z M315,630.3c0-0.2,0-0.5,0-0.7
				l-4.5,2.7l0.3,0.5L315,630.3z M282.7,633.7l0.6-0.1l-3.4-13.8l-0.6,0.1L282.7,633.7z M290.6,628.4l-6.5-13.2l-0.5,0.3l6.5,13.2
				L290.6,628.4z M337.7,629.7c0-0.2,0-0.5,0.1-0.7l-12.9,5.2l0.2,0.6L337.7,629.7z M332.2,636.5c0-0.2,0-0.5,0.1-0.7l-12.9,5.2
				l0.2,0.6L332.2,636.5z M275,657.4l14.7,1.6l0.1-0.6l-14.7-1.6L275,657.4z M268.1,596.8l-6.1,10.6l0.5,0.3l6.1-10.6L268.1,596.8z
				 M276.8,644.7l-10.5,7.3c0.3,0.1,0.6,0.1,0.8,0.2l10-6.9L276.8,644.7L276.8,644.7z M264.2,644.9l-12.1,8.4l0.3,0.5l12.1-8.4
				L264.2,644.9z M276.2,634.7l0-0.6l-14.3-0.9h-0.3l0,0.6l14.3,0.9L276.2,634.7L276.2,634.7z M277.2,640.2l-0.1-0.6l-14.3,1.6
				l-0.3,0l0.1,0.6l14.3-1.6L277.2,640.2z M286.9,608.8l-0.3-0.5l-9.4,5.8l0.3,0.5L286.9,608.8z M285,603l-13.4,6.2l0.3,0.5
				l13.4-6.2L285,603z M327,621l-3.5-3.5c0.1,0.4,0.2,0.8,0.3,1.2l2.7,2.7L327,621L327,621z M332.5,617.6l-9.1-11.6l-0.5,0.4
				L332,618L332.5,617.6z M323.2,617.6l-9.1-11.6l-0.5,0.4l9.1,11.6L323.2,617.6z M337.8,614.9h-3.1v0.6h3.1V614.9z M318,646.6h-3.1
				v0.6h3.1V646.6z M258.2,623.2l-2-1.4l-0.3,0.5l2,1.4L258.2,623.2z M270.5,654.1v2.1h0.6v-2.1H270.5z M290.6,651.1l0.3,0.2
				c0-0.2,0-0.4,0-0.7L290.6,651.1L290.6,651.1z M338.4,624.3l-1.9-1.9l-0.4,0.4l1.9,1.9L338.4,624.3z M260.7,598.1l-7.2,9.2
				l0.5,0.4l7.2-9.2L260.7,598.1z M292.6,616l-1.6-1.2l-0.4,0.5l1.9,1.4C292.5,616.5,292.5,616.2,292.6,616L292.6,616z M266.5,612.6
				l1.2-3.6l-0.6-0.2l-1.2,3.6L266.5,612.6z M250.4,603.3c0,0,0.2,0,0.3,0c0.1,0,0.2,0,0.3,0c0.1,0,0.2-0.1,0.3-0.2
				c0.1-0.1,0.1-0.1,0.2-0.2c0-0.1,0.1-0.2,0.1-0.3c0-0.2-0.1-0.4-0.2-0.5c-0.3-0.3-0.8-0.3-1.1,0c-0.1,0.2-0.2,0.3-0.2,0.5
				c0,0.1,0,0.2,0.1,0.3c0,0.1,0.1,0.2,0.2,0.2C250.2,603.2,250.3,603.3,250.4,603.3z M257,609.9c0.1,0,0.2-0.1,0.3-0.2
				c0.1-0.2,0.2-0.3,0.2-0.5s-0.1-0.4-0.2-0.5c-0.3-0.3-0.8-0.3-1.1,0c-0.1,0.1-0.2,0.3-0.2,0.5s0.1,0.4,0.2,0.5
				c0.2,0.1,0.3,0.2,0.5,0.2C256.8,609.9,256.9,609.9,257,609.9L257,609.9z M269.8,597.5c-0.1,0.1-0.2,0.3-0.2,0.5s0.1,0.4,0.2,0.5
				c0.2,0.1,0.3,0.2,0.5,0.2c0.2,0,0.4-0.1,0.5-0.2c0.2-0.2,0.2-0.3,0.2-0.5s-0.1-0.4-0.2-0.5C270.6,597.2,270.1,597.2,269.8,597.5z
				 M290.5,612.7c0.1,0.2,0.3,0.2,0.5,0.2c0.1,0,0.2,0,0.3,0c0.1,0,0.2-0.1,0.2-0.2c0.1-0.1,0.1-0.1,0.2-0.2c0-0.1,0.1-0.2,0.1-0.3
				c0-0.2-0.1-0.4-0.2-0.5c-0.3-0.3-0.8-0.3-1.1,0c-0.2,0.1-0.2,0.3-0.2,0.5c0,0.1,0,0.2,0.1,0.3
				C290.4,612.6,290.4,612.6,290.5,612.7L290.5,612.7z M278.2,625.1c0,0-0.2,0.1-0.2,0.2c-0.1,0.1-0.1,0.1-0.2,0.2
				c0,0.1,0,0.2,0,0.3s0,0.2,0,0.3c0,0.1,0.1,0.2,0.2,0.3c0.1,0.1,0.1,0.1,0.2,0.2c0.1,0,0.2,0.1,0.3,0.1c0.2,0,0.4-0.1,0.5-0.2
				c0.1-0.1,0.1-0.2,0.2-0.3c0-0.1,0.1-0.2,0.1-0.3s0-0.2-0.1-0.3c0-0.1-0.1-0.2-0.2-0.2C278.8,625.1,278.4,625,278.2,625.1
				L278.2,625.1z M272.8,646c0,0,0.2,0.1,0.3,0.2c0.1,0,0.2,0,0.3,0s0.2,0,0.3,0c0.1,0,0.2-0.1,0.2-0.2c0.2-0.2,0.2-0.3,0.2-0.5
				c0-0.2-0.1-0.4-0.2-0.5c-0.2-0.2-0.5-0.3-0.8-0.2c-0.1,0-0.2,0.1-0.3,0.2c-0.1,0.1-0.2,0.3-0.2,0.5c0,0.1,0,0.2,0,0.3
				C272.7,645.9,272.8,646,272.8,646L272.8,646z M251.2,644c0,0,0.1,0.1,0.2,0.2c0.1,0,0.2,0,0.3,0c0.1,0,0.2,0,0.3,0
				c0.1,0,0.2-0.1,0.2-0.2c0.1-0.1,0.1-0.2,0.2-0.3c0-0.1,0-0.2,0-0.3c0-0.2-0.1-0.4-0.2-0.5c-0.1-0.1-0.1-0.1-0.2-0.2
				c-0.3-0.1-0.6,0-0.8,0.2c-0.1,0.1-0.2,0.3-0.2,0.5c0,0.1,0,0.2,0,0.3C251,643.9,251.1,643.9,251.2,644z M328.1,627.1
				c0,0-0.2,0.1-0.3,0.2c-0.1,0.1-0.2,0.3-0.2,0.5c0,0.1,0,0.2,0,0.3c0,0.1,0.1,0.2,0.2,0.2c0.1,0.2,0.3,0.2,0.5,0.2
				c0.1,0,0.2,0,0.3,0c0.1,0,0.2-0.1,0.2-0.2c0.2-0.1,0.2-0.3,0.2-0.5s-0.1-0.4-0.2-0.5C328.7,627.1,328.4,627,328.1,627.1
				L328.1,627.1z M245.9,628.5c0,0,0.2,0,0.3,0c0.2,0,0.4-0.1,0.5-0.2c0.1-0.1,0.2-0.3,0.2-0.5s-0.1-0.4-0.2-0.5
				c-0.1-0.1-0.2-0.1-0.3-0.2c-0.3-0.1-0.6,0-0.8,0.2c-0.1,0.1-0.2,0.3-0.2,0.5c0,0.1,0,0.2,0,0.3c0,0.1,0.1,0.2,0.2,0.2
				C245.7,628.4,245.8,628.5,245.9,628.5z M244.2,651.1L244.2,651.1L244.2,651.1L244.2,651.1z M244.1,640.7l4.9,6.3l0.5-0.4
				l-5.4-6.9L244.1,640.7L244.1,640.7z M254.4,622.7l-10.3-5.4v0.7l10,5.3L254.4,622.7L254.4,622.7z M244.1,601.1v0.8l8.8-6.8h-1
				L244.1,601.1z M281.4,602l0.5-0.4L277,595h-0.7L281.4,602z M287.6,596l-0.7-0.9h-0.7l0.9,1.3L287.6,596L287.6,596z M335.3,595
				l-3.6,5.4l-0.2,0.2l0.5,0.3l4-6L335.3,595L335.3,595z M342,598.5c-0.1-0.2-0.1-0.4-0.2-0.6l-7.6,7.2l0.4,0.4L342,598.5L342,598.5
				z M294,597.5c0-0.3,0.1-0.5,0.1-0.8l-5.4,4.2l0.4,0.5L294,597.5L294,597.5z M301.7,608.2c0-0.3,0.1-0.5,0.1-0.8l-5.4,4.2l0.4,0.5
				L301.7,608.2L301.7,608.2z M300.4,650.8c0-0.3,0.1-0.5,0.1-0.8l-5.4,4.2l0.4,0.5L300.4,650.8L300.4,650.8z M323.1,603.4l0.6,0
				L323,595h-0.6L323.1,603.4z M262.5,596.9l0.3-1.9h-0.6l-0.3,1.8L262.5,596.9L262.5,596.9z M185.6,419.5l15.9,4.3l0.2-0.6
				l-15.9-4.3L185.6,419.5z M187.8,413.6l16.2,2.6l0.1-0.6l-16.2-2.6L187.8,413.6z M173.1,454.6l5.8-11.1l-0.5-0.3l-5.8,11.1
				L173.1,454.6z M166,453.6l6.4-12.2l-0.5-0.3l-6.4,12.2L166,453.6z M205.7,443.7l-0.4-0.5l-10.1,7.4l0.4,0.5L205.7,443.7z
				 M208.2,448.7l-0.4-0.4l-8,8.5l0.4,0.4L208.2,448.7z M212.8,424.8l1.9,14.6l0.6-0.1l-1.9-14.6L212.8,424.8z M204.9,426.7
				l3.3,13.8l0.6-0.1l-3.3-13.8L204.9,426.7z M163.7,433.3l2.8,6.9l0.6-0.2l-3.5-8.6C163.6,432.1,163.7,432.7,163.7,433.3
				L163.7,433.3z M168.3,427.9l11.1-6.4l-0.3-0.5l-11.1,6.4L168.3,427.9z M172.1,431.8l0.2,0.6l12.2-4.2l-0.2-0.6L172.1,431.8z
				 M207.6,457.4l-4,5.9h0.7l3.8-5.6L207.6,457.4L207.6,457.4z M213.2,463.3L213.2,463.3L213.2,463.3L213.2,463.3L213.2,463.3z
				 M219.8,461.3l-0.6,0.2l0.7,1.7h0.6L219.8,461.3L219.8,461.3z M166.4,461.9c0,0.2,0.1,0.5,0.1,0.7l2.9-2.2l-0.4-0.5L166.4,461.9z
				 M177.4,462.3l-0.4-0.4l-1.6,1.4h0.9L177.4,462.3z M191.1,455.2l-2.4-2.4l-0.4,0.4l2.4,2.4L191.1,455.2z M190.9,458l-0.6,0
				l0.4,5.3h0.6L190.9,458z M183.9,463.3l1.5-6.8l-0.6-0.1l-1.5,6.9L183.9,463.3L183.9,463.3z M219.8,432.9l3.1-1.2l-0.2-0.6
				l-3.1,1.2L219.8,432.9z M178.3,433.2l-0.6,0.1l0.6,3.6l0.6-0.1L178.3,433.2z M217.2,457v-0.6h-3.1v0.6H217.2z M178.1,456.4
				l0.5,0.3l2.3-4.1l-0.5-0.3L178.1,456.4z M191.8,425.6l-3.1,1.2l0.2,0.6l3.1-1.2L191.8,425.6z M184.3,438.2l9.4,5.8l0.3-0.5
				l-9.4-5.8L184.3,438.2z M185.9,432.9l13.4,6.2l0.3-0.5l-13.4-6.2L185.9,432.9z M183.7,444.3l3.1,0.6l0.1-0.6l-3.1-0.6
				L183.7,444.3z M200.7,430.7l-3.1-0.6l-0.1,0.6l3.1,0.6L200.7,430.7z M200.1,387.7l13.6,5.6l0.2-0.6l-13.6-5.6L200.1,387.7z
				 M216.8,385.8l0.2-0.6l-12-4.9c-0.2,0.1-0.4,0.3-0.6,0.4L216.8,385.8L216.8,385.8z M231.5,436.2l-5.1-15.8l-0.6,0.2l5.1,15.8
				L231.5,436.2z M234.3,420.6l1.6,13.7l0.6-0.1l-1.6-13.7L234.3,420.6z M211.5,417.2l8.4-12.1l-0.5-0.3l-8.4,12.1L211.5,417.2z
				 M221.7,419.2l3.7-11.6l-0.6-0.2l-3.7,11.6L221.7,419.2z M176.7,400l0-0.1c0,0-0.2,0.1-0.3,0.2L176.7,400L176.7,400z
				 M222.7,379.9l3.2-12.1c-0.2,0.1-0.5,0.3-0.7,0.4l-3.1,11.5L222.7,379.9L222.7,379.9z M224.5,384.4l7.3-12.8l-0.5-0.3l-7.3,12.8
				L224.5,384.4z M214.8,445.3l13.3-6.3l-0.3-0.5l-13.3,6.3L214.8,445.3z M218.3,452.6l13.3-6.3l-0.3-0.5L218,452L218.3,452.6z
				 M198.8,396.7l9,10l0.4-0.4l-9-10L198.8,396.7z M192.1,398.9l10.2,9.3l0.4-0.4l-10.2-9.3L192.1,398.9z M173.6,410.8l0.5,0.4
				l8.4-10.6l-0.5-0.4L173.6,410.8z M179,417.7l9.1-12.5l-0.5-0.4l-9.1,12.5L179,417.7z M163.2,423.3l0.3-0.3l-0.3-0.3
				C163.2,422.8,163.2,423.1,163.2,423.3L163.2,423.3z M168.8,417.7l0.4-0.4l-6-6c0,0.3,0,0.6,0,0.8L168.8,417.7L168.8,417.7z
				 M187.4,392.9l-0.1-0.7c-0.2,0.1-0.4,0.3-0.6,0.4l0,0.4L187.4,392.9L187.4,392.9z M192.9,389.9l0.2-1.7c-0.2,0.1-0.4,0.3-0.6,0.4
				l-0.1,1.2L192.9,389.9L192.9,389.9z M234.6,376.4l9.1,11.6l0.4-0.3v-0.1l-9-11.5L234.6,376.4L234.6,376.4z M240.4,371.6l-0.5,0.4
				l4.2,5.3v-1L240.4,371.6L240.4,371.6z M216.6,393.3l14.3-3.7l-0.2-0.6l-14.3,3.7L216.6,393.3z M218.6,401.1l14.3-3.7l-0.2-0.6
				l-14.3,3.7L218.6,401.1z M233.6,443.9l8.3,12.2l0.5-0.3l-8.3-12.2L233.6,443.9z M240.8,439l-0.5,0.3l3.8,5.6v-1.1L240.8,439z
				 M233.6,402.8l7.9-9.2l-0.5-0.4l-7.9,9.2L233.6,402.8z M244.1,400.2l-4.1,6.6l0.5,0.3l3.6-5.7L244.1,400.2L244.1,400.2z
				 M244.1,459.9v-0.8l-5.3,4.2h1L244.1,459.9L244.1,459.9z M225.5,459.1l1.7,4.2h0.6l-1.8-4.4L225.5,459.1L225.5,459.1z
				 M238.1,416.2l0.3,0.5l5.7-2.7v-0.7L238.1,416.2L238.1,416.2z M242.1,423.3l0.3,0.5l1.7-1v-0.7L242.1,423.3L242.1,423.3z
				 M234.6,367.9l0.4,0.4l1.9-1.9l-0.4-0.4L234.6,367.9z M213.3,398.8l-1.9,1.9l0.4,0.4l1.9-1.9L213.3,398.8z M191.3,406.1l1.3,2.6
				l0.5-0.3l-1.3-2.6L191.3,406.1z M188.8,396.8l-0.6,0.2l1.2,3.1l0.6-0.2L188.8,396.8z M230.1,451.5l1.2,3.1l0.6-0.2l-1.2-3.1
				L230.1,451.5z M240.1,434.5l0.4,0.4l1.9-1.9l-0.4-0.4L240.1,434.5z M239.4,409l-3.1-0.6l-0.1,0.6l3.1,0.6L239.4,409z
				 M169.4,412.3c0,0-0.1-0.1-0.2-0.2c-0.2-0.1-0.4-0.1-0.6,0c-0.1,0-0.2,0.1-0.3,0.2c-0.1,0.1-0.1,0.2-0.2,0.3
				c0,0.1-0.1,0.2-0.1,0.3c0,0.2,0.1,0.4,0.2,0.5c0.1,0.1,0.3,0.2,0.5,0.2s0.4-0.1,0.5-0.2c0.1-0.1,0.1-0.1,0.2-0.2
				c0-0.1,0.1-0.2,0.1-0.3C169.7,412.6,169.6,412.4,169.4,412.3z M178.5,419.1c0.2,0,0.4-0.1,0.5-0.2c0.1-0.2,0.2-0.3,0.2-0.5
				c0-0.2-0.1-0.4-0.2-0.5c-0.1-0.1-0.2-0.1-0.3-0.2c-0.2-0.1-0.4-0.1-0.6,0c-0.1,0-0.2,0.1-0.2,0.2c-0.1,0.1-0.1,0.1-0.2,0.2
				c0,0.1,0,0.2,0,0.3c0,0.1,0,0.2,0,0.3c0,0.1,0.1,0.2,0.2,0.3C178.1,419,178.3,419.1,178.5,419.1z M236,386c0,0-0.1-0.1-0.2-0.2
				c-0.2-0.1-0.4-0.1-0.6,0c-0.1,0-0.2,0.1-0.3,0.2c-0.1,0.1-0.2,0.3-0.2,0.5c0,0.2,0.1,0.4,0.2,0.5c0.2,0.1,0.3,0.2,0.5,0.2
				s0.4-0.1,0.5-0.2c0.1-0.1,0.1-0.2,0.2-0.3c0-0.1,0-0.2,0-0.3C236.2,386.4,236.2,386.2,236,386z M233,408.2
				c-0.3-0.3-0.8-0.3-1.1,0c-0.1,0.1-0.1,0.2-0.2,0.3c0,0.1,0,0.2,0,0.3c0,0.2,0.1,0.4,0.2,0.5c0.1,0.1,0.2,0.1,0.3,0.2
				c0.1,0,0.2,0.1,0.3,0.1c0.1,0,0.2,0,0.3-0.1c0.1,0,0.2-0.1,0.3-0.2c0.1-0.1,0.1-0.2,0.2-0.3c0-0.1,0.1-0.2,0.1-0.3
				c0-0.1,0-0.2-0.1-0.3C233.1,408.4,233.1,408.3,233,408.2L233,408.2z M221.4,423.1c0,0,0.2,0,0.3,0c0.1,0,0.2-0.1,0.3-0.2
				c0.1-0.1,0.2-0.3,0.2-0.5c0-0.2-0.1-0.4-0.2-0.5c-0.1-0.1-0.2-0.1-0.3-0.2c-0.3-0.1-0.6,0-0.8,0.2c-0.1,0.1-0.2,0.3-0.2,0.5
				c0,0.2,0.1,0.4,0.2,0.5C221,423.1,221.2,423.1,221.4,423.1z M227.7,442.6c0,0.2,0.1,0.4,0.2,0.5c0.1,0.1,0.3,0.2,0.5,0.2
				c0.1,0,0.2,0,0.3-0.1c0.1,0,0.2-0.1,0.3-0.2c0.1-0.1,0.2-0.3,0.2-0.5c0-0.2-0.1-0.4-0.2-0.5c-0.1-0.1-0.2-0.1-0.3-0.2
				c-0.3-0.1-0.6,0-0.8,0.2C227.8,442.2,227.7,442.4,227.7,442.6z M213.8,451.6c-0.3-0.3-0.8-0.3-1.1,0c-0.1,0.1-0.2,0.3-0.2,0.5
				c0,0.2,0.1,0.4,0.2,0.5c0.1,0.1,0.3,0.2,0.5,0.2s0.4-0.1,0.5-0.2c0.1-0.1,0.1-0.2,0.2-0.3c0-0.1,0.1-0.2,0.1-0.3
				c0-0.1,0-0.2-0.1-0.3C214,451.8,213.9,451.7,213.8,451.6z M170.4,454.1c-0.2-0.2-0.6-0.3-0.8-0.2c-0.1,0-0.2,0.1-0.3,0.2
				c-0.1,0.1-0.2,0.3-0.2,0.5c0,0.2,0.1,0.4,0.2,0.5c0.1,0.1,0.3,0.2,0.5,0.2c0.1,0,0.2,0,0.3,0c0.1,0,0.2-0.1,0.3-0.2
				c0.1-0.1,0.2-0.3,0.2-0.5c0-0.1,0-0.2,0-0.3C170.6,454.3,170.5,454.2,170.4,454.1z M192.4,460.4c0.1,0,0.2-0.1,0.3-0.2
				c0.1-0.1,0.1-0.2,0.2-0.3c0-0.1,0.1-0.2,0.1-0.3c0-0.2-0.1-0.4-0.2-0.5c-0.3-0.3-0.8-0.3-1.1,0c-0.1,0.1-0.1,0.2-0.2,0.3
				c0,0.1,0,0.2,0,0.3c0,0.2,0.1,0.4,0.2,0.5c0.1,0.1,0.3,0.2,0.5,0.2C192.2,460.5,192.3,460.5,192.4,460.4z M214.5,376.3
				c0,0-0.2,0.1-0.3,0.2c-0.1,0.1-0.2,0.3-0.2,0.5c0,0.2,0.1,0.4,0.2,0.5c0.1,0.1,0.3,0.2,0.5,0.2c0.1,0,0.2,0,0.3,0
				c0.1,0,0.2-0.1,0.3-0.2c0.1-0.2,0.2-0.3,0.2-0.5c0-0.2-0.1-0.4-0.2-0.5c-0.1-0.1-0.2-0.1-0.3-0.2
				C214.9,376.2,214.7,376.2,214.5,376.3z M209.8,396.1c-0.3-0.3-0.8-0.3-1.1,0c-0.1,0.1-0.2,0.3-0.2,0.5c0,0.2,0.1,0.4,0.2,0.5
				c0.1,0.1,0.3,0.2,0.5,0.2s0.4-0.1,0.5-0.2c0.1-0.1,0.1-0.2,0.2-0.3c0-0.1,0.1-0.2,0.1-0.3s0-0.2-0.1-0.3
				C209.9,396.3,209.9,396.2,209.8,396.1z M206.3,413.9c0.1-0.1,0.2-0.3,0.2-0.5c0-0.1,0-0.2-0.1-0.3c0-0.1-0.1-0.2-0.2-0.3
				c-0.3-0.3-0.8-0.3-1.1,0c-0.1,0.1-0.1,0.2-0.2,0.3c0,0.1,0,0.2,0,0.3c0,0.2,0.1,0.4,0.2,0.5c0.2,0.1,0.3,0.2,0.5,0.2
				S206.1,414,206.3,413.9z M235.2,456c0,0-0.2,0.1-0.3,0.2c-0.1,0.1-0.2,0.3-0.2,0.5c0,0.2,0.1,0.4,0.2,0.5
				c0.1,0.1,0.3,0.2,0.5,0.2c0.1,0,0.2,0,0.3-0.1c0.1,0,0.2-0.1,0.3-0.2c0.1-0.1,0.2-0.3,0.2-0.5c0-0.1,0-0.2,0-0.3
				c0-0.1-0.1-0.2-0.2-0.3C235.8,456,235.5,455.9,235.2,456z M212,444.1c0,0.2,0.1,0.4,0.2,0.5c0.2,0.1,0.3,0.2,0.5,0.2
				s0.4-0.1,0.5-0.2c0.1-0.2,0.2-0.3,0.2-0.5c0-0.1,0-0.2-0.1-0.3c0-0.1-0.1-0.2-0.2-0.3c-0.3-0.3-0.8-0.3-1.1,0
				C212.1,443.7,212,443.9,212,444.1L212,444.1z M211.8,421.3c0,0-0.2-0.1-0.3-0.2c-0.2-0.1-0.4-0.1-0.6,0c-0.1,0-0.2,0.1-0.2,0.2
				c-0.2,0.2-0.2,0.3-0.2,0.5c0,0.2,0.1,0.4,0.2,0.5c0.1,0.1,0.1,0.1,0.2,0.2c0.1,0,0.2,0,0.3,0c0.1,0,0.2,0,0.3,0
				c0.1,0,0.2-0.1,0.3-0.2c0.1-0.1,0.2-0.3,0.2-0.5c0-0.1,0-0.2-0.1-0.3C211.9,421.5,211.9,421.4,211.8,421.3z M239,427.7
				c0.2,0,0.4-0.1,0.5-0.2c0.1-0.1,0.1-0.2,0.2-0.3c0-0.1,0.1-0.2,0.1-0.3c0-0.1,0-0.2-0.1-0.3c0-0.1-0.1-0.2-0.2-0.2
				c-0.2-0.2-0.5-0.3-0.8-0.2c-0.1,0-0.2,0.1-0.3,0.2c-0.1,0.1-0.2,0.3-0.2,0.5c0,0.1,0,0.2,0.1,0.3c0,0.1,0.1,0.2,0.2,0.3
				C238.6,427.6,238.8,427.7,239,427.7z M211.8,387.1c0,0,0.1-0.2,0.2-0.3c0-0.1,0.1-0.2,0.1-0.3s0-0.2-0.1-0.3
				c0-0.1-0.1-0.2-0.2-0.3c-0.3-0.3-0.8-0.3-1.1,0c-0.1,0.1-0.2,0.3-0.2,0.5c0,0.2,0.1,0.4,0.2,0.5c0.1,0.1,0.3,0.2,0.5,0.2
				S211.7,387.2,211.8,387.1z M233,379.5c-0.3-0.3-0.8-0.3-1.1,0c-0.1,0.1-0.1,0.2-0.2,0.3c0,0.1,0,0.2,0,0.3s0,0.2,0,0.3
				c0,0.1,0.1,0.2,0.2,0.3c0.1,0.1,0.2,0.1,0.3,0.2c0.1,0,0.2,0.1,0.3,0.1c0.1,0,0.2,0,0.3-0.1c0.1,0,0.2-0.1,0.3-0.2
				c0.1-0.1,0.1-0.2,0.2-0.3c0-0.1,0.1-0.2,0.1-0.3s0-0.2-0.1-0.3C233.1,379.6,233.1,379.5,233,379.5L233,379.5z M236,394.1
				c-0.2-0.2-0.5-0.3-0.8-0.2c-0.1,0-0.2,0.1-0.3,0.2c-0.1,0.2-0.2,0.3-0.2,0.5c0,0.1,0,0.2,0.1,0.3c0,0.1,0.1,0.2,0.2,0.3
				c0.2,0.1,0.3,0.2,0.5,0.2s0.4-0.1,0.5-0.2c0.1-0.1,0.2-0.3,0.2-0.5c0-0.1,0-0.2,0-0.3C236.2,394.3,236.1,394.2,236,394.1z
				 M201.6,554.9l-15.9-4.3l-0.2,0.6l15.9,4.3L201.6,554.9z M204.1,547.3l-16.2-2.6l-0.1,0.6l16.2,2.6L204.1,547.3z M178.3,574.9
				l-2.7,5.1c0,0.4,0,0.8,0.1,1.2l3.1-6L178.3,574.9L178.3,574.9z M205.6,575.3l-0.4-0.5l-10.1,7.4l0.4,0.5L205.6,575.3z
				 M208.2,580.3l-0.4-0.4l-8,8.5l0.4,0.4L208.2,580.3z M215.2,571l-1.9-14.6l-0.6,0.1l1.9,14.6L215.2,571z M208.1,572.1l0.6-0.1
				l-3.3-13.8l-0.6,0.1L208.1,572.1z M179.1,552.6l-4.7,2.7c0,0.2,0,0.4,0,0.7l5-2.8L179.1,552.6L179.1,552.6z M184.2,559.2
				l-9.5,3.3c0,0.2,0,0.4,0,0.6l9.6-3.4L184.2,559.2z M207.9,589.6l0.2-0.2l-0.5-0.3l-4,5.9h0.7L207.9,589.6L207.9,589.6z
				 M213.1,594.9L213.1,594.9L213.1,594.9L213.1,594.9L213.1,594.9z M219.2,593.2l0.7,1.7h0.6l-0.8-2L219.2,593.2L219.2,593.2z
				 M177,593.5l-1.3,1.1c0,0.1,0,0.2,0,0.3h0.6l1.1-1L177,593.5z M190.6,587.3l0.4-0.4l-2.4-2.4l-0.4,0.4L190.6,587.3z M190.2,589.6
				l0.4,5.3h0.6l-0.4-5.4L190.2,589.6z M185.4,588.1l-0.6-0.1l-1.5,6.9h0.6L185.4,588.1L185.4,588.1z M222.8,563.3l-0.2-0.6
				l-3.1,1.2l0.2,0.6L222.8,563.3z M178.2,564.8l-0.6,0.1l0.6,3.6l0.6-0.1L178.2,564.8z M217.1,588H214v0.6h3.1V588z M180.9,584.2
				l-0.5-0.3l-2.3,4.1l0.5,0.3L180.9,584.2z M188.9,559l3.1-1.2l-0.2-0.6l-3.1,1.2L188.9,559z M194,575.1l-9.4-5.8l-0.3,0.5l9.4,5.8
				L194,575.1L194,575.1z M199.5,570.2l-13.4-6.2l-0.3,0.5l13.4,6.2L199.5,570.2z M186.9,576l-3.1-0.6l-0.1,0.6l3.1,0.6L186.9,576z
				 M200.5,563l0.1-0.6l-3.1-0.6l-0.1,0.6L200.5,563z M173.1,493.7l0.6,0.1l1.6-14l-0.6-0.1L173.1,493.7z M200.1,519.3l13.6,5.6
				l0.2-0.6l-13.6-5.6L200.1,519.3z M217,516.9l-13.6-5.6l-0.2,0.6l13.6,5.6L217,516.9z M171.6,507c0,0.2,0,0.5,0.1,0.7l5.5-4.2
				l-0.4-0.5L171.6,507z M173.3,499.3l-0.3-0.5l-2.1,1.3c0,0.2,0,0.4,0.1,0.7L173.3,499.3L173.3,499.3z M231.4,567.8l-5.1-15.8
				l-0.6,0.2l5.1,15.8L231.4,567.8z M236.4,565.9l-1.6-13.7l-0.6,0.1l1.6,13.7L236.4,565.9z M219.3,536.4l-8.4,12.1l0.5,0.3
				l8.4-12.1L219.3,536.4z M224.7,539.1l-3.7,11.6l0.6,0.2l3.7-11.6L224.7,539.1L224.7,539.1z M176.6,531.6l-3.6-14.3l-0.5,0.1
				c0,0,0,0.1,0,0.2l3.5,14.1L176.6,531.6L176.6,531.6z M206,479.4l13.4-6.2l-0.3-0.5l-13.4,6.2L206,479.4z M209.2,486.2l0.3,0.5
				l12.8-7.8l-0.3-0.5L209.2,486.2z M181.1,504.9l7.4-13.1l-0.5-0.3l-7.4,13.1L181.1,504.9z M185,506l0.5,0.3l8.3-12.2l-0.5-0.3
				L185,506z M200.5,500.4l13.2-5.3l-0.2-0.6l-13.2,5.3L200.5,500.4z M201.4,504.8l13.2-0.5v-0.6l-13.2,0.5L201.4,504.8L201.4,504.8
				z M222.7,511.5l3.6-13.4l-0.6-0.2l-3.6,13.4L222.7,511.5z M224,515.7l0.5,0.3l7.3-12.8l-0.5-0.3L224,515.7z M227.9,570.1
				l-13.3,6.3l0.3,0.5l13.3-6.3L227.9,570.1z M231.5,577.9l-0.3-0.5l-13.3,6.3l0.3,0.5L231.5,577.9z M198.7,528.2l9,10l0.4-0.4
				l-9-10L198.7,528.2z M192,530.5l10.2,9.3l0.4-0.4l-10.2-9.3L192,530.5z M173.7,542.5l0.4,0.3l8.4-10.6l-0.5-0.4l-8.3,10.5V542.5
				L173.7,542.5z M187.5,536.4l-9.1,12.5l0.5,0.4l9.1-12.5L187.5,536.4z M240.1,491.7l-0.1-0.6l-14.7,1.3l0.1,0.6L240.1,491.7z
				 M225.7,486.2l13.7-2.6l-0.1-0.6l-13.7,2.6L225.7,486.2z M186.8,524.5l0.6-0.1l-1.6-14.7l-0.6,0.1L186.8,524.5z M192.3,521.5
				l0.6,0.1l1.1-11.7l-0.6-0.1L192.3,521.5z M234.6,508l9.1,11.6l0.4-0.3v-0.1l-9-11.5L234.6,508L234.6,508z M240.4,503.2l-0.5,0.4
				l4.2,5.3v-1L240.4,503.2L240.4,503.2z M230.8,521.2l-0.2-0.6l-14.3,3.7l0.2,0.6L230.8,521.2z M232.7,528.4l-14.3,3.7l0.2,0.6
				l14.3-3.7L232.7,528.4z M242.3,587.4l-8.3-12.2l-0.5,0.3l8.3,12.2L242.3,587.4z M244.1,575.5l-3.3-4.9l-0.5,0.3l3.8,5.6V575.5z
				 M241.5,525.2l-0.5-0.4l-7.9,9.2l0.5,0.4L241.5,525.2z M240,538.3l0.5,0.3l3.6-5.7v-1.2L240,538.3L240,538.3z M244.1,591.5v-0.8
				l-5.3,4.2h1L244.1,591.5L244.1,591.5z M226.1,590.4l-0.6,0.2l1.7,4.2h0.6L226.1,590.4L226.1,590.4z M241.3,484l-0.3,0.5l3,1.6
				v-0.7L241.3,484L241.3,484z M194.8,489.6l0.4-0.4l-10-10l-0.4,0.4L194.8,489.6z M191.2,474.5l9.1,11.6l0.5-0.4l-9.1-11.6
				L191.2,474.5z M244.1,544.9l-6,2.9l0.3,0.5l5.7-2.7L244.1,544.9L244.1,544.9z M242,554.9l0.3,0.5l1.7-1v-0.7L242,554.9L242,554.9
				z M172.6,471l3.1,0.6l0.1-0.6l-3.1-0.6L172.6,471z M171.1,474.9l-0.6,0.2l0.7,2.1l0.6-0.2L171.1,474.9z M180.9,488.3l2-1.4
				l-0.3-0.5l-2,1.4L180.9,488.3z M202.9,483.6h3.1V483h-3.1V483.6z M216.4,492.4l1.9,1.9l0.4-0.4l-1.9-1.9L216.4,492.4z
				 M234.6,499.5l0.4,0.4l1.9-1.9l-0.4-0.4L234.6,499.5z M237.9,474.3l-1.3,2.6l0.5,0.3l1.3-2.6L237.9,474.3z M213.3,530.3l-1.9,1.9
				l0.4,0.4l1.9-1.9L213.3,530.3z M193.1,540l-1.3-2.6l-0.5,0.3l1.3,2.6L193.1,540z M189.4,531.7l0.6-0.2l-1.2-3.1l-0.6,0.2
				L189.4,531.7z M242.1,470.8l0.4,0.5l1.6-1.3v-0.8L242.1,470.8L242.1,470.8z M231.9,585.9l-1.2-3.1l-0.6,0.2l1.2,3.1L231.9,585.9z
				 M204.3,490.9l1.9,1.9l0.4-0.4l-1.9-1.9L204.3,490.9z M178.1,514.9l3.1,0.6l0.1-0.6l-3.1-0.6L178.1,514.9z M242.5,564.6l-0.4-0.4
				l-1.9,1.9l0.4,0.4L242.5,564.6z M239.4,540.6l-3.1-0.6l-0.1,0.6l3.1,0.6L239.4,540.6z M186.4,475l-0.6-3.1l-0.6,0.1l0.6,3.1
				L186.4,475z M179.4,509.5c-0.1,0.1-0.2,0.3-0.2,0.5c0,0.1,0,0.2,0,0.3c0,0.1,0.1,0.2,0.2,0.3c0.1,0.1,0.3,0.2,0.5,0.2
				s0.4-0.1,0.5-0.2c0.1-0.1,0.1-0.2,0.2-0.3c0-0.1,0.1-0.2,0.1-0.3c0-0.2-0.1-0.4-0.2-0.5C180.2,509.3,179.7,509.3,179.4,509.5
				L179.4,509.5z M179,550.5c0.1-0.1,0.2-0.3,0.2-0.5c0-0.2-0.1-0.4-0.2-0.5c-0.3-0.3-0.8-0.3-1.1,0c-0.1,0.2-0.2,0.3-0.2,0.5
				c0,0.2,0.1,0.4,0.2,0.5c0.1,0.1,0.3,0.2,0.5,0.2S178.8,550.6,179,550.5z M196.6,512.6c0,0-0.1,0.2-0.2,0.3c0,0.1,0,0.2,0,0.3
				c0,0.2,0.1,0.4,0.2,0.5c0.2,0.1,0.3,0.2,0.5,0.2c0.1,0,0.2,0,0.3-0.1c0.1,0,0.2-0.1,0.3-0.2c0.1-0.1,0.2-0.3,0.2-0.5
				s-0.1-0.4-0.2-0.5C197.4,512.3,196.8,512.3,196.6,512.6L196.6,512.6z M196.9,495.3c-0.3-0.1-0.6,0-0.8,0.2
				c-0.1,0.1-0.2,0.3-0.2,0.5c0,0.1,0,0.2,0.1,0.3c0,0.1,0.1,0.2,0.2,0.3c0.1,0.1,0.3,0.2,0.5,0.2c0.1,0,0.2,0,0.3,0
				c0.1,0,0.2-0.1,0.3-0.2c0.1-0.1,0.1-0.2,0.2-0.3c0-0.1,0-0.2,0-0.3c0-0.2-0.1-0.4-0.2-0.5C197.1,495.4,197,495.3,196.9,495.3z
				 M229.9,479c0,0,0.2,0,0.3,0c0.1,0,0.2-0.1,0.3-0.2c0.1-0.2,0.2-0.3,0.2-0.5c0-0.1,0-0.2,0-0.3c0-0.1-0.1-0.2-0.2-0.3
				c-0.1-0.1-0.2-0.1-0.3-0.2c-0.3-0.1-0.6,0-0.8,0.2c-0.1,0.1-0.1,0.2-0.2,0.3c0,0.1,0,0.2,0,0.3s0,0.2,0,0.3
				c0,0.1,0.1,0.2,0.2,0.3C229.5,479,229.7,479,229.9,479z M213,471.2c0,0,0,0.2,0,0.3c0,0.1,0.1,0.2,0.2,0.3
				c0.2,0.1,0.3,0.2,0.5,0.2c0.1,0,0.2,0,0.3-0.1c0.1,0,0.2-0.1,0.3-0.2c0.1-0.1,0.1-0.2,0.2-0.3c0-0.1,0-0.2,0-0.3
				c0-0.2-0.1-0.4-0.2-0.5c-0.1-0.1-0.2-0.1-0.3-0.2c-0.3-0.1-0.6,0-0.8,0.2C213.1,470.8,213,471,213,471.2z M236,517.6
				c-0.3-0.3-0.8-0.3-1.1,0c-0.1,0.1-0.2,0.3-0.2,0.5s0.1,0.4,0.2,0.5c0.2,0.1,0.3,0.2,0.5,0.2s0.4-0.1,0.5-0.2
				c0.1-0.1,0.2-0.3,0.2-0.5S236.1,517.8,236,517.6z M232.4,541.1c0.2,0,0.4-0.1,0.5-0.2c0.1-0.2,0.2-0.3,0.2-0.5s-0.1-0.4-0.2-0.5
				c-0.3-0.3-0.8-0.3-1.1,0c-0.1,0.2-0.2,0.3-0.2,0.5s0.1,0.4,0.2,0.5C232,541.1,232.2,541.1,232.4,541.1L232.4,541.1z M221.9,554.5
				c0.1-0.1,0.2-0.3,0.2-0.5s-0.1-0.4-0.2-0.5c-0.3-0.3-0.8-0.3-1.1,0c-0.2,0.2-0.2,0.3-0.2,0.5s0.1,0.4,0.2,0.5
				c0.1,0.1,0.3,0.2,0.5,0.2S221.7,554.7,221.9,554.5z M227.9,573.6c-0.1,0.1-0.2,0.3-0.2,0.5c0,0.1,0,0.2,0,0.3
				c0,0.1,0.1,0.2,0.2,0.3c0.2,0.1,0.3,0.2,0.5,0.2c0.1,0,0.2,0,0.3,0c0.1,0,0.2-0.1,0.2-0.2c0.2-0.2,0.2-0.3,0.2-0.5
				c0-0.2-0.1-0.4-0.2-0.5C228.7,573.4,228.1,573.4,227.9,573.6L227.9,573.6z M213.8,584.3c0,0,0.1-0.1,0.2-0.2
				c0-0.1,0.1-0.2,0.1-0.3c0-0.2-0.1-0.4-0.2-0.5c-0.2-0.2-0.6-0.3-0.8-0.2c-0.1,0-0.2,0.1-0.2,0.2c-0.1,0.2-0.2,0.3-0.2,0.5
				c0,0.1,0,0.2,0.1,0.3c0,0.1,0.1,0.2,0.2,0.2c0.1,0.2,0.3,0.2,0.5,0.2S213.7,584.5,213.8,584.3z M191.5,590.8
				c-0.1,0.2-0.2,0.3-0.2,0.5c0,0.1,0,0.2,0.1,0.3c0,0.1,0.1,0.2,0.2,0.2c0.1,0.1,0.1,0.1,0.2,0.2c0.1,0,0.2,0,0.3,0
				c0.2,0,0.4-0.1,0.5-0.2c0.1-0.1,0.1-0.1,0.2-0.2c0-0.1,0-0.2,0-0.3c0-0.2-0.1-0.4-0.2-0.5C192.3,590.5,191.8,590.5,191.5,590.8z
				 M215.1,509.3c0.1,0,0.2-0.1,0.3-0.2c0.1-0.1,0.2-0.3,0.2-0.5c0-0.1,0-0.2,0-0.3c0-0.1-0.1-0.2-0.2-0.3c-0.3-0.3-0.8-0.3-1.1,0
				c-0.1,0.1-0.1,0.2-0.2,0.3c0,0.1,0,0.2,0,0.3c0,0.2,0.1,0.4,0.2,0.5c0.2,0.1,0.3,0.2,0.5,0.2C214.9,509.3,215,509.3,215.1,509.3
				L215.1,509.3z M209.2,529c0.2,0,0.4-0.1,0.5-0.2c0.1-0.2,0.2-0.3,0.2-0.5s-0.1-0.4-0.2-0.5c-0.1-0.1-0.1-0.1-0.2-0.2
				c-0.2-0.1-0.4-0.1-0.6,0c-0.1,0-0.2,0.1-0.3,0.2c-0.1,0.1-0.2,0.3-0.2,0.5s0.1,0.4,0.2,0.5C208.8,528.9,209,529,209.2,529z
				 M206.2,545.5c0.1-0.2,0.2-0.3,0.2-0.5c0-0.2-0.1-0.4-0.2-0.5c-0.3-0.3-0.8-0.3-1.1,0c-0.1,0.1-0.2,0.3-0.2,0.5
				c0,0.2,0.1,0.4,0.2,0.5c0.1,0.1,0.3,0.2,0.5,0.2S206.1,545.6,206.2,545.5z M234.9,587.8c-0.1,0.1-0.2,0.3-0.2,0.5
				c0,0.1,0,0.2,0,0.3c0,0.1,0.1,0.2,0.2,0.2c0.1,0.2,0.3,0.2,0.5,0.2c0.1,0,0.2,0,0.3,0c0.1,0,0.2-0.1,0.2-0.2
				c0.1-0.1,0.1-0.1,0.2-0.2c0-0.1,0.1-0.2,0.1-0.3c0-0.2-0.1-0.4-0.2-0.5C235.7,587.5,235.2,587.5,234.9,587.8z M181,522.7
				c-0.3-0.3-0.8-0.3-1.1,0c-0.1,0.1-0.1,0.2-0.2,0.3c0,0.1-0.1,0.2-0.1,0.3c0,0.2,0.1,0.4,0.2,0.5c0.1,0.1,0.3,0.2,0.5,0.2
				s0.4-0.1,0.5-0.2c0.1-0.1,0.2-0.3,0.2-0.5c0-0.1,0-0.2-0.1-0.3C181.1,522.8,181.1,522.7,181,522.7z M178.9,492.4
				c-0.1,0.1-0.2,0.3-0.2,0.5c0,0.2,0.1,0.4,0.2,0.5c0.1,0.1,0.3,0.2,0.5,0.2c0.2,0,0.4-0.1,0.5-0.2c0.1-0.1,0.2-0.3,0.2-0.5
				c0-0.2-0.1-0.4-0.2-0.5C179.7,492.1,179.2,492.1,178.9,492.4z M182,480.1c0.2,0,0.4-0.1,0.5-0.2c0.1-0.2,0.2-0.3,0.2-0.5
				c0-0.2-0.1-0.4-0.2-0.5c-0.3-0.3-0.8-0.3-1.1,0c-0.1,0.2-0.2,0.3-0.2,0.5c0,0.2,0.1,0.4,0.2,0.5c0.1,0.1,0.2,0.1,0.3,0.2
				C181.8,480.1,181.9,480.1,182,480.1L182,480.1z M212.2,576.2c0,0,0.1,0.1,0.2,0.2c0.1,0,0.2,0.1,0.3,0.1c0.2,0,0.4-0.1,0.5-0.2
				c0.1-0.1,0.1-0.1,0.2-0.2c0-0.1,0.1-0.2,0.1-0.3c0-0.2-0.1-0.4-0.2-0.5c-0.3-0.3-0.8-0.3-1.1,0c-0.1,0.1-0.2,0.3-0.2,0.5
				c0,0.1,0,0.2,0.1,0.3C212.1,576.1,212.1,576.2,212.2,576.2z M210.7,552.9c-0.1,0.1-0.2,0.3-0.2,0.5s0.1,0.4,0.2,0.5
				c0.2,0.1,0.3,0.2,0.5,0.2s0.4-0.1,0.5-0.2c0.1-0.2,0.2-0.3,0.2-0.5s-0.1-0.4-0.2-0.5C211.5,552.7,211,552.7,210.7,552.9
				L210.7,552.9z M238.4,558c-0.1,0.1-0.2,0.3-0.2,0.5c0,0.2,0.1,0.4,0.2,0.5c0.1,0.1,0.3,0.2,0.5,0.2s0.4-0.1,0.5-0.2
				c0.1-0.1,0.2-0.3,0.2-0.5c0-0.2-0.1-0.4-0.2-0.5C239.3,557.7,238.7,557.7,238.4,558L238.4,558z M217.3,498
				c-0.1,0.1-0.2,0.3-0.2,0.5c0,0.1,0,0.2,0,0.3c0,0.1,0.1,0.2,0.2,0.3c0.1,0.1,0.3,0.2,0.5,0.2c0.2,0,0.4-0.1,0.5-0.2
				c0.1-0.2,0.2-0.3,0.2-0.5c0-0.2-0.1-0.4-0.2-0.5C218,497.7,217.6,497.7,217.3,498L217.3,498z M218.8,501.5
				c-0.1,0.1-0.2,0.3-0.2,0.5c0,0.1,0,0.2,0,0.3c0,0.1,0.1,0.2,0.2,0.3c0.1,0.1,0.2,0.1,0.3,0.2c0.1,0,0.2,0,0.3,0
				c0.2,0,0.4-0.1,0.5-0.2c0.1-0.1,0.1-0.2,0.2-0.3c0-0.1,0.1-0.2,0.1-0.3c0-0.2-0.1-0.4-0.2-0.5c-0.2-0.2-0.5-0.3-0.8-0.2
				C218.9,501.4,218.8,501.4,218.8,501.5z M220.4,484.9c0.1-0.1,0.2-0.3,0.2-0.5c0-0.2-0.1-0.4-0.2-0.5c-0.1-0.1-0.2-0.1-0.3-0.2
				c-0.3-0.1-0.6,0-0.8,0.2c-0.1,0.2-0.2,0.3-0.2,0.5c0,0.2,0.1,0.4,0.2,0.5c0.1,0.1,0.3,0.2,0.5,0.2S220.2,485,220.4,484.9z
				 M193.6,502.5c-0.3-0.3-0.8-0.3-1.1,0c-0.1,0.1-0.1,0.2-0.2,0.3c0,0.1,0,0.2,0,0.3c0,0.2,0.1,0.4,0.2,0.5
				c0.2,0.1,0.3,0.2,0.5,0.2c0.1,0,0.2,0,0.3-0.1c0.1,0,0.2-0.1,0.3-0.2c0.1-0.1,0.2-0.3,0.2-0.5c0-0.1,0-0.2,0-0.3
				C193.7,502.6,193.7,502.6,193.6,502.5L193.6,502.5z M210.7,517.6c-0.1,0.1-0.2,0.3-0.2,0.5s0.1,0.4,0.2,0.5
				c0.1,0.1,0.2,0.1,0.3,0.2c0.1,0,0.2,0.1,0.3,0.1c0.2,0,0.4-0.1,0.5-0.2c0.1-0.2,0.2-0.3,0.2-0.5c0-0.1,0-0.2-0.1-0.3
				c0-0.1-0.1-0.2-0.2-0.3C211.5,517.4,211,517.4,210.7,517.6L210.7,517.6z M232.4,512.4c0.2,0,0.4-0.1,0.5-0.2
				c0.1-0.1,0.2-0.3,0.2-0.5c0-0.2-0.1-0.4-0.2-0.5c-0.3-0.3-0.8-0.3-1.1,0c-0.1,0.1-0.2,0.3-0.2,0.5c0,0.2,0.1,0.4,0.2,0.5
				C232,512.3,232.2,512.4,232.4,512.4L232.4,512.4z M234.9,525.7c-0.1,0.1-0.2,0.3-0.2,0.5c0,0.2,0.1,0.4,0.2,0.5
				c0.1,0.1,0.2,0.1,0.3,0.2c0.1,0,0.2,0.1,0.3,0.1c0.2,0,0.4-0.1,0.5-0.2c0.1-0.1,0.2-0.3,0.2-0.5c0-0.2-0.1-0.4-0.2-0.5
				c-0.1-0.1-0.2-0.1-0.3-0.2C235.5,525.4,235.1,525.5,234.9,525.7z M199.7,468.8l0.5,0.3l4-6h-0.7L199.7,468.8L199.7,468.8z
				 M202.8,473.7l10.7-10.1l-0.4-0.4h-0.1l-10.7,10.1L202.8,473.7L202.8,473.7z M224.7,473.4l-4.2-10.3h-0.6l4.3,10.5L224.7,473.4
				L224.7,473.4z M167.4,471.1l8.8-8h-0.9l-8,7.2C167.3,470.6,167.4,470.9,167.4,471.1L167.4,471.1z M191.9,471.5l-0.6-8.4h-0.6
				l0.6,8.4L191.9,471.5z M181.6,470.5l0.6,0.1l1.7-7.4h-0.6L181.6,470.5L181.6,470.5z M237.4,464.9l2.2-1.7h-1l-1.6,1.2
				L237.4,464.9L237.4,464.9z M231.2,473.2l0.6-0.2l-4-9.7h-0.6L231.2,473.2L231.2,473.2z M175.2,611.6h-0.1c0,0.5,0,0.9,0,1.4
				L175.2,611.6L175.2,611.6z M215.8,645.3l-13.6-5.6l-0.2,0.6l13.6,5.6L215.8,645.3z M176.7,634.8l-2.1,1.6c0,0.3,0,0.5,0,0.7
				l2.5-1.9L176.7,634.8z M219.1,604.4l-13.4,6.2l0.3,0.5l13.4-6.2L219.1,604.4z M221.9,610.2l-12.8,7.8l0.3,0.5l12.8-7.8
				L221.9,610.2z M188.4,623.6l-0.5-0.3l-7.4,13.1l0.5,0.3L188.4,623.6z M193.2,625.6l-8.3,12.2l0.5,0.3l8.3-12.2L193.2,625.6z
				 M213.6,626.9l-0.2-0.6l-13.2,5.3l0.2,0.6L213.6,626.9z M214.5,636.1v-0.6l-13.2,0.5v0.6L214.5,636.1z M226.2,629.9l-0.6-0.2
				l-3.6,13.4l0.6,0.2L226.2,629.9z M231.7,635l-0.5-0.3l-7.3,12.8l0.5,0.3L231.7,635z M239.9,622.8l-14.7,1.3l0.1,0.6l14.7-1.3
				L239.9,622.8z M239.3,615.4l-0.1-0.6l-13.7,2.6l0.1,0.6L239.3,615.4z M244,651.1v-0.1l-9-11.5l-0.5,0.4l9.1,11.6L244,651.1
				L244,651.1z M240.3,634.9l-0.5,0.4l4.2,5.3v-1L240.3,634.9L240.3,634.9z M233.1,646.3l-0.2-0.6l-1.7,0.4c0.4,0.1,0.8,0.2,1.3,0.3
				l0.3-0.1L233.1,646.3L233.1,646.3z M241.2,615.7l-0.3,0.5l3,1.6v-0.7L241.2,615.7L241.2,615.7z M195.2,620.9l-10-10l-0.4,0.4
				l10,10L195.2,620.9z M200.7,617.5l-9.1-11.6l-0.5,0.4l9.1,11.6L200.7,617.5z M175.7,602.8l-0.3-0.1c0,0.2,0,0.4,0,0.6l0.2,0
				L175.7,602.8L175.7,602.8z M180.5,619.6l0.3,0.5l2-1.4l-0.3-0.5L180.5,619.6z M205.9,614.8h-3.1v0.6h3.1V614.8z M218.7,625.7
				l-1.9-1.9l-0.4,0.4l1.9,1.9L218.7,625.7z M236.8,629.8l-0.4-0.4l-1.9,1.9l0.4,0.4L236.8,629.8z M237.8,606.1l-1.3,2.6l0.5,0.3
				l1.3-2.6L237.8,606.1z M242,602.6l0.4,0.5l1.6-1.3V601L242,602.6L242,602.6z M206.6,624.2l-1.9-1.9l-0.4,0.4l1.9,1.9L206.6,624.2
				z M185.7,606.9l0.6-0.1l-0.6-3.1l-0.6,0.1L185.7,606.9z M179.9,642.6c0,0,0.2,0,0.3,0c0.1,0,0.2-0.1,0.3-0.2
				c0.1-0.1,0.1-0.2,0.2-0.3c0-0.1,0-0.2,0-0.3c0-0.2-0.1-0.4-0.2-0.5c-0.1-0.1-0.2-0.1-0.3-0.2c-0.3-0.1-0.6,0-0.8,0.2
				c-0.1,0.1-0.2,0.3-0.2,0.5s0.1,0.4,0.2,0.5C179.5,642.6,179.7,642.6,179.9,642.6z M196,627.2c-0.1,0.1-0.2,0.3-0.2,0.5
				c0,0.1,0,0.2,0,0.3c0,0.1,0.1,0.2,0.2,0.2c0.1,0.2,0.3,0.2,0.5,0.2s0.4-0.1,0.5-0.2c0.1-0.1,0.2-0.3,0.2-0.5
				c0-0.2-0.1-0.4-0.2-0.5C196.8,626.9,196.3,626.9,196,627.2L196,627.2z M229.3,609.6c-0.1,0.1-0.2,0.3-0.2,0.5
				c0,0.1,0,0.2,0.1,0.3c0,0.1,0.1,0.2,0.2,0.2c0.1,0.1,0.1,0.1,0.2,0.2c0.1,0,0.2,0,0.3,0c0.2,0,0.4-0.1,0.5-0.2
				c0.1-0.1,0.1-0.1,0.2-0.2c0-0.1,0.1-0.2,0.1-0.3c0-0.2-0.1-0.4-0.2-0.5C230.1,609.3,229.6,609.3,229.3,609.6L229.3,609.6z
				 M213.7,603.8c0,0,0.2,0,0.3,0c0.1,0,0.2-0.1,0.3-0.2c0.1-0.1,0.1-0.1,0.2-0.2c0-0.1,0-0.2,0-0.3c0-0.2-0.1-0.4-0.2-0.5
				c-0.3-0.3-0.8-0.3-1.1,0c-0.1,0.1-0.2,0.3-0.2,0.5c0,0.1,0,0.2,0,0.3c0,0.1,0.1,0.2,0.2,0.2C213.3,603.7,213.5,603.8,213.7,603.8
				L213.7,603.8z M234.9,649.4c-0.1,0.1-0.2,0.3-0.2,0.5c0,0.1,0,0.2,0,0.3c0,0.1,0.1,0.2,0.2,0.3c0.2,0.1,0.3,0.2,0.5,0.2
				s0.4-0.1,0.5-0.2c0.1-0.1,0.1-0.2,0.2-0.3c0-0.1,0.1-0.2,0.1-0.3c0-0.2-0.1-0.4-0.2-0.5C235.7,649.1,235.1,649.1,234.9,649.4z
				 M214,640.6c0,0,0.1,0.2,0.2,0.3c0.1,0.1,0.3,0.2,0.5,0.2c0.1,0,0.2,0,0.3,0c0.1,0,0.2-0.1,0.3-0.2c0.1-0.1,0.1-0.2,0.2-0.3
				c0-0.1,0-0.2,0-0.3c0-0.2-0.1-0.4-0.2-0.5c-0.1-0.1-0.2-0.1-0.3-0.2c-0.3-0.1-0.6,0-0.8,0.2c-0.1,0.1-0.2,0.3-0.2,0.5
				C214,640.5,214,640.6,214,640.6L214,640.6z M179.1,625.4c0,0,0.2,0.1,0.3,0.1c0.1,0,0.2,0,0.3-0.1c0.1,0,0.2-0.1,0.2-0.2
				c0.1-0.1,0.1-0.2,0.2-0.3c0-0.1,0.1-0.2,0.1-0.3s0-0.2-0.1-0.3c0-0.1-0.1-0.2-0.2-0.3c-0.1-0.1-0.1-0.1-0.2-0.2
				c-0.2-0.1-0.4-0.1-0.6,0c-0.1,0-0.2,0.1-0.2,0.2c-0.1,0.1-0.1,0.2-0.2,0.3c0,0.1,0,0.2,0,0.3c0,0.2,0.1,0.4,0.2,0.5
				C178.9,625.3,179,625.4,179.1,625.4L179.1,625.4z M181.9,611.9c0,0,0.2,0,0.3-0.1c0.1,0,0.2-0.1,0.3-0.2c0.1-0.2,0.2-0.3,0.2-0.5
				s-0.1-0.4-0.2-0.5c-0.1-0.1-0.2-0.1-0.3-0.2c-0.3-0.1-0.6,0-0.8,0.2c-0.1,0.1-0.2,0.3-0.2,0.5s0.1,0.4,0.2,0.5
				C181.5,611.8,181.7,611.9,181.9,611.9z M217.2,630.8c0.2,0.1,0.3,0.2,0.5,0.2c0.1,0,0.2,0,0.3,0c0.1,0,0.2-0.1,0.3-0.2
				c0.1-0.1,0.1-0.2,0.2-0.3c0-0.1,0.1-0.2,0.1-0.3c0-0.2-0.1-0.4-0.2-0.5c-0.3-0.3-0.8-0.3-1.1,0c-0.1,0.1-0.2,0.3-0.2,0.5
				c0,0.1,0,0.2,0,0.3C217.1,630.7,217.1,630.7,217.2,630.8L217.2,630.8z M218.7,634.3c0.1,0.2,0.3,0.2,0.5,0.2s0.4-0.1,0.5-0.2
				c0.1-0.1,0.2-0.3,0.2-0.5c0-0.1,0-0.2-0.1-0.3c0-0.1-0.1-0.2-0.2-0.2c-0.1-0.1-0.2-0.1-0.3-0.2c-0.3-0.1-0.6,0-0.8,0.2
				c-0.1,0.1-0.1,0.1-0.2,0.2c0,0.1,0,0.2,0,0.3s0,0.2,0,0.3C218.6,634.2,218.6,634.3,218.7,634.3z M220.3,616.7
				c0.2-0.2,0.2-0.3,0.2-0.5c0-0.1,0-0.2-0.1-0.3c0-0.1-0.1-0.2-0.2-0.2c-0.1-0.1-0.1-0.1-0.2-0.2c-0.3-0.1-0.6,0-0.8,0.2
				c-0.1,0.1-0.2,0.3-0.2,0.5c0,0.2,0.1,0.4,0.2,0.5c0.1,0.1,0.3,0.2,0.5,0.2c0.1,0,0.2,0,0.3-0.1
				C220.1,616.8,220.2,616.7,220.3,616.7L220.3,616.7z M192.5,635.4c0,0,0.2,0.1,0.3,0.2c0.1,0,0.2,0,0.3,0c0.2,0,0.4-0.1,0.5-0.2
				c0.1-0.1,0.1-0.2,0.2-0.3c0-0.1,0.1-0.2,0.1-0.3c0-0.2-0.1-0.4-0.2-0.5c-0.2-0.2-0.5-0.3-0.8-0.2c-0.1,0-0.2,0.1-0.3,0.2
				c-0.1,0.1-0.2,0.3-0.2,0.5c0,0.1,0,0.2,0,0.3C192.3,635.2,192.4,635.3,192.5,635.4L192.5,635.4z M231.8,643.9
				c0.2,0.1,0.3,0.2,0.5,0.2c0.1,0,0.2,0,0.3,0c0.1,0,0.2-0.1,0.3-0.2c0.1-0.1,0.1-0.2,0.2-0.3c0-0.1,0.1-0.2,0.1-0.3
				c0-0.2-0.1-0.4-0.2-0.5c-0.3-0.3-0.8-0.3-1.1,0c-0.1,0.1-0.2,0.3-0.2,0.5c0,0.1,0,0.2,0,0.3C231.7,643.8,231.8,643.9,231.8,643.9
				L231.8,643.9z M204.2,594.9h-0.7l-3.6,5.4l-0.2,0.2l0.5,0.3L204.2,594.9L204.2,594.9z M202.3,605l0.4,0.4l10.7-10.1l-0.4-0.4H213
				L202.3,605L202.3,605z M224.1,605.4l0.6-0.2l-4.2-10.3h-0.6L224.1,605.4L224.1,605.4z M175.6,595.5l0.6-0.5h-0.6
				C175.6,595.1,175.6,595.3,175.6,595.5L175.6,595.5z M191.2,603.3l0.6,0l-0.6-8.4h-0.6L191.2,603.3z M183.1,594.9l-1.6,7.3
				l0.6,0.1l1.7-7.4L183.1,594.9L183.1,594.9z M238.6,594.9l-1.6,1.2l0.4,0.5l2.2-1.7L238.6,594.9L238.6,594.9z M231.7,604.7l-4-9.7
				h-0.6l4.1,10L231.7,604.7L231.7,604.7z"/>
		</g>
		<polygon id="elyt97kh2q4o" class="st0" points="305,386.7 309.6,414.1 294.4,406.9 		"/>
		<path id="elewt1gh8414" class="st2" d="M288.2,418.4l16.8-31.7l-17.7-11.4c0,0-3,15.6-1.7,23.2
			C286.8,406.1,288.2,418.4,288.2,418.4L288.2,418.4z"/>
		<g id="elznfzis2g8hd">
			<path id="el38gx5brpowb" class="st1" d="M314.7,267c0,0,9.4,23.3,8.6,26.9s-2,10.6-2,10.6s8.6,10.6,9.4,13.9
				c0.8,3.3-7.8,8.2-8.6,9.4s0.8,29-1.2,31s-22.8,0.8-24.5,0.8s-4.5,15.9-4.5,15.9l-3.7,42.9l-8.6,0.4c0,0-8.6-17.6-10.2-18.8
				c-1.6-1.2-35.5-42-35.5-42l2.4-26.1c0,0-19.6-33.1-16.3-58.4c3.3-25.3,31.8-29.8,49-29.8h28.2c11,0,22.8-2.9,22.8-2.9l-5.3,8.6
				l10.6,0.4l5.7-0.8c0,0-3.7,9.4-7.3,11.4l-3.7,2l6.5,2L314.7,267L314.7,267z"/>
			<path id="el0263jyrzmsrx" class="st0" d="M302.9,269c5.7,0,11.8-2,11.8-2l11.8-2.4l-6.5-2l3.7-2c3.7-2,7.3-11.4,7.3-11.4
				l-5.7,0.8l-10.6-0.4l5.3-8.6c0,0-11.8,2.9-22.8,2.9H269c-17.1,0-45.7,4.5-49,29.8c-3.3,25.3,16.3,58.4,16.3,58.4l-0.5,5.1
				c0.4-0.2,0.7-0.4,0.9-0.6c0.8-1.2,7.8-9,7.8-9s-1.2,8.6,1.2,7.3s0,0,6.1-2.9s9.4-6.1,9.4-6.1s-1.6-2.4-4.5-5.7
				c-2.9-3.3-8.6-12.3-4.5-21.2c4.1-9,12.7-2.9,14.7-1.2s5.3,11.8,5.3,11.8l0.8-6.9l5.7,3.3c0,0-2-8.6-1.6-11.4
				c0.4-2.9,10.2-9.8,13.1-13.1c2.9-3.3-8.6-5.3-9.8-12.3C279.2,262,297.1,269,302.9,269L302.9,269z"/>
			<path id="eli36nz2vj7nj" class="st0" d="M296.4,359.6c0,0-9.4-2-12.7-4.1c-3.3-2-5.7-4.1-5.7-4.1s8.2,13.5,10.6,17.6
				c2.4,4.1,3.3,6.5,3.3,6.5L296.4,359.6L296.4,359.6z"/>
			<path id="elr5gjfjfh42n" class="st4" d="M317.7,329.5l-10.7-6c0,0-1.4,8.2,3.6,9.9C315.5,335,317.7,329.5,317.7,329.5z"/>
			<path id="el68tsblvl8xq" class="st4" d="M317.6,293.2c0,0-2.5-3.8-6.8-2.7s-4.9,4.7-4.9,4.7"/>
			<ellipse id="el796wrkj3pn5" class="st3" cx="310.9" cy="303.6" rx="2.3" ry="4.5"/>
		</g>
		<polygon id="elcc48u3rzzjl" class="st2" points="231.8,350.8 272.8,397.6 251.3,426.8 218.3,376.1 		"/>
		<polygon id="elcse8mekak7" class="st1" points="279.6,418.8 292.7,459.1 288.2,418.4 		"/>
		<g id="eljv1n3p990f">
			<path id="el237cp4bcqb" class="st2" d="M202.7,385.8c0,0-30.5,13.2-37.7,17.3c-7.3,4.1-11.4,4.5-11.4,7.7s6.4,101.4,14.1,121.9
				c7.7,20.5,5.9,29.6,12.7,30c6.8,0.5,122.8-28.2,122.8-28.2l-7.7-37.7l-11.8,1.8h-36.8c-14.1,0-30.9-0.9-30.9-0.9L205,435.9"/>
			<path id="eltj921ri4w5" class="st3" d="M289.8,509.7l-6.8,13.1l-0.5-0.3l6.8-13.1L289.8,509.7z M298.4,510.9L298.4,510.9
				L298.4,510.9L298.4,510.9L298.4,510.9z M296.9,503.8l-4.7,3l0.3,0.5l4.5-2.9L296.9,503.8L296.9,503.8z M277.4,519.1l6.8-13.1
				l-0.5-0.3l-6.8,13.1L277.4,519.1z M250.4,498.7l-2,10.3l0.6,0.1l2.1-10.5H250.4L250.4,498.7z M259.2,498.7h-0.6l-2.3,11.9
				l0.6,0.1L259.2,498.7L259.2,498.7z M299.8,533.8l0.6-0.1l-1.7-14.6l-0.6,0.1L299.8,533.8z M282.7,502.1l0.6-0.1l-0.8-3.3h-0.6
				L282.7,502.1z M289.6,526.7l-14.7-1.6l-0.1,0.6l14.7,1.6L289.6,526.7z M287.8,533.3l-14.4-3.1l-0.1,0.6l14.4,3.1L287.8,533.3z
				 M257.6,537.1l-0.4,0.5l8.3,6.2l0.8-0.2L257.6,537.1L257.6,537.1z M274.2,539.5l-11.8-8.8l-0.4,0.5l11.8,8.8L274.2,539.5z
				 M268.8,520l-12.1,8.4l0.3,0.5l12.1-8.4L268.8,520z M264.2,513.3l-12.1,8.4l0.3,0.5l12.1-8.4L264.2,513.3z M276.1,503.1l0-0.6
				l-14.6-0.9l0,0.6L276.1,503.1z M277.1,508l-14.6,1.7l0.1,0.6l14.6-1.7L277.1,508z M269.1,527.3v-2.1h-0.6v2.1H269.1z
				 M255.4,533.2h-3.6v0.6h3.6V533.2z M280.8,540l0.5-0.4l-1.9-2.5l-0.5,0.4L280.8,540z M295.5,501.7l0.8-0.8l-0.1-0.7l-1.1,1.1
				L295.5,501.7z M293.9,520.8l-3-1.8l-0.3,0.5l3,1.8L293.9,520.8z M272.8,514.4c0,0,0.2,0.1,0.3,0.2c0.1,0,0.2,0,0.3,0
				c0.2,0,0.4-0.1,0.5-0.2c0.1-0.1,0.1-0.2,0.2-0.3c0-0.1,0-0.2,0-0.3c0-0.1,0-0.2,0-0.3c0-0.1-0.1-0.2-0.2-0.3
				c-0.2-0.2-0.5-0.3-0.8-0.2c-0.1,0-0.2,0.1-0.3,0.2c-0.1,0.1-0.1,0.2-0.2,0.3c0,0.1,0,0.2,0,0.3c0,0.1,0,0.2,0,0.3
				C272.6,514.2,272.7,514.3,272.8,514.4z M251.6,512.6c0.2,0,0.4-0.1,0.5-0.2c0.1-0.2,0.2-0.3,0.2-0.5c0-0.1,0-0.2-0.1-0.3
				c0-0.1-0.1-0.2-0.2-0.3c-0.3-0.3-0.8-0.3-1.1,0c-0.1,0.1-0.2,0.3-0.2,0.5c0,0.2,0.1,0.4,0.2,0.5
				C251.2,512.5,251.4,512.6,251.6,512.6L251.6,512.6z M285.1,535.3c0,0-0.2,0.1-0.3,0.2c-0.1,0.1-0.2,0.3-0.2,0.5s0.1,0.4,0.2,0.5
				c0.2,0.1,0.3,0.2,0.5,0.2c0.2,0,0.4-0.1,0.5-0.2c0.1-0.1,0.2-0.3,0.2-0.5s-0.1-0.4-0.2-0.5c-0.1-0.1-0.2-0.1-0.3-0.2
				C285.5,535.3,285.3,535.3,285.1,535.3z M295.5,526.9c0,0-0.1,0.2-0.2,0.3c0,0.1-0.1,0.2-0.1,0.3c0,0.2,0.1,0.4,0.2,0.5
				c0.1,0.1,0.3,0.2,0.5,0.2c0.2,0,0.4-0.1,0.5-0.2c0.1-0.1,0.2-0.3,0.2-0.5c0-0.1,0-0.2-0.1-0.3c0-0.1-0.1-0.2-0.2-0.3
				C296.3,526.7,295.8,526.7,295.5,526.9z M261.7,544.6c0,0-0.1,0.1-0.1,0.2c0.3-0.1,0.7-0.2,1-0.3
				C262.3,544.4,261.9,544.3,261.7,544.6z M244.1,519.5L244.1,519.5L244.1,519.5L244.1,519.5z M249.4,515l-5.4-6.9v1l4.9,6.3
				L249.4,515L249.4,515z M248.3,526.4l-0.5-0.3l-3.7,6v1.2L248.3,526.4L248.3,526.4z M249.4,543.2l-0.3-0.5l-5.1,2.5v0.7
				L249.4,543.2L249.4,543.2z M185.5,419.6l15.9,4.3l0.2-0.6l-15.9-4.3L185.5,419.6z M187.7,413.7l16.2,2.6l0.1-0.6l-16.2-2.6
				L187.7,413.7z M173,454.7l5.8-11.1l-0.5-0.3l-5.8,11.1L173,454.7z M165.4,453.4l0.5,0.3l6.4-12.2l-0.5-0.3L165.4,453.4z
				 M205.6,443.8l-0.4-0.5l-10.1,7.4l0.4,0.5L205.6,443.8z M200.2,457.3l7.2-7.7l-0.1-0.7l-7.6,8.1L200.2,457.3L200.2,457.3z
				 M155,432.7l5.6,9.9l0.5-0.3l-6.2-11C155,431.8,155,432.3,155,432.7L155,432.7z M160.9,426.6l5.6,13.6l0.6-0.2l-5.6-13.6
				L160.9,426.6z M168.2,428l11.1-6.4l-0.3-0.5l-11.1,6.4L168.2,428z M172,431.9l0.2,0.6l12.2-4.2l-0.2-0.6L172,431.9z M208,457.8
				l-0.5-0.3l-4,5.9h0.7L208,457.8L208,457.8z M169.3,460.4l-0.4-0.5l-4.5,3.5h1L169.3,460.4L169.3,460.4z M176.9,461.9l-1.6,1.4
				h0.9l1.1-1L176.9,461.9z M156.6,452.2l0.5-0.2l-0.7-1.8C156.5,450.8,156.5,451.5,156.6,452.2L156.6,452.2z M191,455.3l-2.4-2.4
				l-0.4,0.4l2.4,2.4L191,455.3z M190.2,458.1l0.4,5.3h0.6l-0.4-5.4L190.2,458.1z M185.4,456.6l-0.6-0.1l-1.5,6.9h0.6L185.4,456.6
				L185.4,456.6z M178.2,433.2l-0.6,0.1l0.6,3.6l0.6-0.1L178.2,433.2z M180.9,452.7l-0.5-0.3l-2.3,4.1l0.5,0.3L180.9,452.7z
				 M191.7,425.6l-3.1,1.2l0.2,0.6l3.1-1.2L191.7,425.6z M184.2,438.2l9.4,5.8l0.3-0.5l-9.4-5.8L184.2,438.2z M185.8,433l13.4,6.2
				l0.3-0.5l-13.4-6.2L185.8,433z M186.9,444.4l-3.1-0.6l-0.1,0.6l3.1,0.6L186.9,444.4z M200.5,430.8l-3.1-0.6l-0.1,0.6l3.1,0.6
				L200.5,430.8z M200,387.8l2.8,1.2v-0.7l-2.6-1L200,387.8z M168.1,402.1l0.6-0.1l-0.1-0.8c-0.2,0.1-0.4,0.2-0.6,0.3L168.1,402.1
				L168.1,402.1z M175.9,400.2l0.6-0.1l-0.6-2.3c-0.2,0.1-0.4,0.2-0.6,0.3L175.9,400.2L175.9,400.2z M198.7,396.7l4.8,5.3l0-0.9
				l-4.3-4.8L198.7,396.7z M192,399l10.2,9.3l0.4-0.4l-10.2-9.3L192,399z M173.5,410.9l0.5,0.4l8.4-10.6l-0.5-0.4L173.5,410.9z
				 M178.8,417.7l9.1-12.5l-0.5-0.4l-9.1,12.5L178.8,417.7z M153.8,414.2l9.3,9.3l0.4-0.4l-9.7-9.7
				C153.7,413.6,153.7,413.9,153.8,414.2L153.8,414.2z M158.3,407.3l10.4,10.4l0.4-0.4l-10.4-10.4L158.3,407.3z M187.3,393l0-0.3
				c-0.2,0.1-0.4,0.2-0.6,0.3v0.1L187.3,393L187.3,393z M191.2,406.2l1.3,2.6l0.5-0.3l-1.3-2.6L191.2,406.2z M188.7,396.8l-0.6,0.2
				l1.2,3.1l0.6-0.2L188.7,396.8z M169.1,412.2c-0.2-0.1-0.4-0.1-0.6,0c-0.1,0-0.2,0.1-0.3,0.2c-0.1,0.1-0.1,0.2-0.2,0.3
				c0,0.1-0.1,0.2-0.1,0.3c0,0.2,0.1,0.4,0.2,0.5c0.1,0.1,0.3,0.2,0.5,0.2s0.4-0.1,0.5-0.2c0.1-0.1,0.1-0.1,0.2-0.2
				c0-0.1,0.1-0.2,0.1-0.3c0-0.2-0.1-0.4-0.2-0.5C169.3,412.3,169.2,412.2,169.1,412.2z M178.4,419.2c0.2,0,0.4-0.1,0.5-0.2
				c0.1-0.2,0.2-0.3,0.2-0.5c0-0.2-0.1-0.4-0.2-0.5c-0.1-0.1-0.2-0.1-0.3-0.2c-0.2-0.1-0.4-0.1-0.6,0c-0.1,0-0.2,0.1-0.2,0.2
				c-0.1,0.1-0.1,0.1-0.2,0.2c0,0.1,0,0.2,0,0.3c0,0.1,0,0.2,0,0.3c0,0.1,0.1,0.2,0.2,0.3C178,419.1,178.2,419.2,178.4,419.2z
				 M169.8,455.5c0,0,0.2,0,0.3,0c0.1,0,0.2-0.1,0.3-0.2c0.1-0.1,0.2-0.3,0.2-0.5c0-0.1,0-0.2,0-0.3c0-0.1-0.1-0.2-0.2-0.3
				c-0.2-0.2-0.6-0.3-0.8-0.2c-0.1,0-0.2,0.1-0.3,0.2c-0.1,0.1-0.2,0.3-0.2,0.5c0,0.2,0.1,0.4,0.2,0.5
				C169.4,455.4,169.6,455.5,169.8,455.5z M192.3,460.5c0.1,0,0.2-0.1,0.3-0.2c0.1-0.1,0.1-0.2,0.2-0.3c0-0.1,0.1-0.2,0.1-0.3
				c0-0.2-0.1-0.4-0.2-0.5c-0.3-0.3-0.8-0.3-1.1,0c-0.1,0.1-0.1,0.2-0.2,0.3c0,0.1,0,0.2,0,0.3c0,0.2,0.1,0.4,0.2,0.5
				c0.1,0.1,0.3,0.2,0.5,0.2C192.1,460.6,192.2,460.5,192.3,460.5z M162,443.4c0,0-0.1-0.2-0.2-0.3c-0.1-0.1-0.2-0.1-0.3-0.2
				c-0.2-0.1-0.4-0.1-0.6,0c-0.1,0-0.2,0.1-0.3,0.2c-0.1,0.1-0.1,0.2-0.2,0.3c0,0.1-0.1,0.2-0.1,0.3c0,0.2,0.1,0.4,0.2,0.5
				c0.1,0.1,0.2,0.1,0.3,0.2c0.1,0,0.2,0,0.3,0c0.1,0,0.2,0,0.3,0c0.1,0,0.2-0.1,0.3-0.2c0.1-0.2,0.2-0.3,0.2-0.5
				C162,443.5,162,443.4,162,443.4z M161,459.1c0,0-0.2,0.1-0.3,0.2c-0.1,0.1-0.1,0.2-0.2,0.3c0,0.1,0,0.2,0,0.3c0,0.1,0,0.2,0,0.3
				c0,0.1,0.1,0.2,0.2,0.3c0.1,0.1,0.2,0.1,0.3,0.2c0.1,0,0.2,0.1,0.3,0.1c0.1,0,0.2,0,0.3-0.1c0.1,0,0.2-0.1,0.3-0.2
				c0.1-0.1,0.1-0.2,0.2-0.3c0-0.1,0.1-0.2,0.1-0.3c0-0.2-0.1-0.4-0.2-0.5C161.6,459,161.3,459,161,459.1z M165.5,406.8
				c0,0,0.2,0.1,0.2,0.2c0.1,0,0.2,0.1,0.3,0.1c0.2,0,0.4-0.1,0.5-0.2c0.1-0.1,0.1-0.2,0.2-0.3c0-0.1,0.1-0.2,0.1-0.3
				c0-0.1,0-0.2-0.1-0.3c0-0.1-0.1-0.2-0.2-0.3c-0.1-0.1-0.2-0.1-0.2-0.2c-0.2-0.1-0.4-0.1-0.6,0c-0.1,0-0.2,0.1-0.2,0.2
				c-0.1,0.1-0.1,0.2-0.2,0.3c0,0.1-0.1,0.2-0.1,0.3c0,0.1,0,0.2,0.1,0.3C165.4,406.7,165.4,406.8,165.5,406.8z M201.5,554.9
				l-15.9-4.3l-0.2,0.6l15.9,4.3L201.5,554.9z M204,547.3l-16.2-2.6l-0.1,0.6l16.2,2.6L204,547.3z M179,552.7l-4.6,2.6
				c0.1,0.2,0.1,0.4,0.2,0.6l4.7-2.7L179,552.7L179,552.7z M184.2,559.3l-6.7,2.3c0.2,0.2,0.4,0.3,0.6,0.4l6.3-2.2L184.2,559.3z
				 M188.8,559.1l3.1-1.2l-0.2-0.6l-3.1,1.2L188.8,559.1z M167.1,480.1h-0.6l0.3,14.7h0.6L167.1,480.1z M173.6,493.9l1.6-14
				l-0.6-0.1l-1.6,14L173.6,493.9z M213.9,524.5l-13.6-5.6l-0.2,0.6l13.6,5.6L213.9,524.5z M216.9,517l-13.6-5.6L203,512l13.6,5.6
				L216.9,517z M176.7,503.1l-10.1,7.7l0.4,0.5l10.1-7.7L176.7,503.1z M172.9,498.9l-10.7,6.8c0,0.2,0.1,0.4,0.1,0.7l10.9-6.9
				L172.9,498.9L172.9,498.9z M225.7,552.3l0.3,0.8c0.2,0,0.4-0.1,0.6-0.1l-0.3-0.9L225.7,552.3L225.7,552.3z M219.2,536.5
				l-8.4,12.1l0.5,0.3l8.4-12.1L219.2,536.5z M221.5,551l3.7-11.6l-0.6-0.2l-3.7,11.6L221.5,551z M166.9,519.1l-0.6,0.1l1.7,14.6v0
				l0.6-0.1L166.9,519.1L166.9,519.1z M175.9,531.9l0.6-0.1l-3.6-14.3l-0.6,0.1L175.9,531.9z M212,476l-6.4,3l0.3,0.5l6.2-2.9
				L212,476L212,476z M213.5,484.4l-0.1-0.6l-4.3,2.6l0.3,0.5L213.5,484.4L213.5,484.4z M187.8,491.7l-7.4,13.1l0.5,0.3l7.4-13.1
				L187.8,491.7z M193.2,494l-8.3,12.2l0.5,0.3l8.3-12.2L193.2,494z M213.6,495.3l-0.2-0.6l-13.2,5.3l0.2,0.6L213.6,495.3z
				 M214.5,504.5v-0.6l-13.2,0.5v0.6L214.5,504.5z M222,511.5l0.6,0.2l3.6-13.4l-0.4-0.1h-0.2L222,511.5L222,511.5z M231.1,503.1
				l-7.3,12.8l0.5,0.3l7.3-12.8L231.1,503.1z M208.1,538l-9-10l-0.4,0.4l9,10L208.1,538z M202.5,539.5l-10.2-9.3l-0.4,0.4l10.2,9.3
				L202.5,539.5z M181.8,532.1l-8.4,10.6l0.5,0.4l8.4-10.6L181.8,532.1z M187.4,536.6l-9.1,12.5l0.5,0.4l9.1-12.5L187.4,536.6z
				 M186.7,524.7l0.6-0.1l-1.6-14.7l-0.6,0.1L186.7,524.7z M192.8,521.7l1.1-11.7l-0.6-0.1l-1.1,11.7L192.8,521.7z M243.9,519.5
				v-0.1l-9-11.5l-0.5,0.4l9.1,11.6L243.9,519.5L243.9,519.5z M240.2,503.3l-0.5,0.4l4.2,5.3v-1L240.2,503.3L240.2,503.3z
				 M230.7,521.3l-0.2-0.6l-14.3,3.7l0.2,0.6L230.7,521.3z M232.5,528.5l-14.3,3.7l0.2,0.6l14.3-3.7L232.5,528.5z M241.3,525.3
				l-0.5-0.4l-7.9,9.2l0.5,0.4L241.3,525.3z M240.3,538.8l3.6-5.7v-1.2l-4.1,6.6L240.3,538.8L240.3,538.8z M195.1,489.3l-10-10
				l-0.4,0.4l10,10L195.1,489.3z M200.6,485.9l-9.1-11.6l-0.5,0.4l9.1,11.6L200.6,485.9z M243.9,545.8v-0.7l-6,2.9l0.3,0.5
				L243.9,545.8L243.9,545.8z M175.7,471.2l-3.1-0.6l-0.1,0.6l3.1,0.6L175.7,471.2z M171,475l-0.6,0.2l0.7,2.1l0.6-0.2L171,475z
				 M182.8,487.1l-0.3-0.5l-2,1.4l0.3,0.5L182.8,487.1z M205.9,483.2h-3.1v0.6h3.1V483.2z M236.4,498.5c-0.3,0-0.6,0-0.8,0l-1.2,1.2
				l0.4,0.4L236.4,498.5L236.4,498.5z M211.2,532.5l0.4,0.4l1.9-1.9l-0.4-0.4L211.2,532.5z M192.9,540.2l-1.3-2.6l-0.5,0.3l1.3,2.6
				L192.9,540.2z M163.7,501.6l1.9-1.9l-0.4-0.4l-1.9,1.9L163.7,501.6z M189.3,531.8l0.6-0.2l-1.2-3.1l-0.6,0.2L189.3,531.8z
				 M206.5,492.6l-1.9-1.9l-0.4,0.4l1.9,1.9L206.5,492.6z M178.1,514.5L178,515l3.1,0.6l0.1-0.6L178.1,514.5z M239.2,540.8l-3.1-0.6
				l-0.1,0.6l3.1,0.6L239.2,540.8z M159.5,484.2l1.7,1.3l0.4-0.5l-2.1-1.6C159.5,483.6,159.5,483.9,159.5,484.2L159.5,484.2z
				 M185,472.2l0.6,3.1l0.6-0.1l-0.6-3.1L185,472.2z M159.8,480.8c0,0,0-0.2,0-0.3c0-0.1,0-0.2,0-0.3c0-0.1-0.1-0.2-0.2-0.3
				c-0.1-0.1-0.2-0.1-0.3-0.2c-0.1,0-0.2,0-0.4,0c0,0.5,0.1,1,0.1,1.4c0.1,0,0.2,0,0.2,0c0.1,0,0.2-0.1,0.3-0.2
				C159.7,480.9,159.8,480.9,159.8,480.8L159.8,480.8z M179.3,509.7c-0.1,0.1-0.2,0.3-0.2,0.5c0,0.1,0,0.2,0,0.3
				c0,0.1,0.1,0.2,0.2,0.3c0.1,0.1,0.3,0.2,0.5,0.2s0.4-0.1,0.5-0.2c0.1-0.1,0.1-0.2,0.2-0.3c0-0.1,0.1-0.2,0.1-0.3
				c0-0.2-0.1-0.4-0.2-0.5C180.1,509.5,179.6,509.5,179.3,509.7L179.3,509.7z M178.3,550.9c0.2,0,0.4-0.1,0.5-0.2
				c0.1-0.1,0.2-0.3,0.2-0.5c0-0.2-0.1-0.4-0.2-0.5c-0.3-0.3-0.8-0.3-1.1,0c-0.1,0.2-0.2,0.3-0.2,0.5s0.1,0.4,0.2,0.5
				C177.9,550.8,178.1,550.9,178.3,550.9z M196.4,512.8c0,0-0.1,0.2-0.2,0.3c0,0.1,0,0.2,0,0.3c0,0.2,0.1,0.4,0.2,0.5
				c0.2,0.1,0.3,0.2,0.5,0.2c0.1,0,0.2,0,0.3-0.1c0.1,0,0.2-0.1,0.3-0.2c0.1-0.1,0.2-0.3,0.2-0.5s-0.1-0.4-0.2-0.5
				C197.3,512.5,196.7,512.5,196.4,512.8L196.4,512.8z M196.5,496.9c0,0,0.2,0,0.3,0c0.1,0,0.2-0.1,0.3-0.2c0.1-0.1,0.1-0.2,0.2-0.3
				c0-0.1,0-0.2,0-0.3c0-0.2-0.1-0.4-0.2-0.5c-0.1-0.1-0.2-0.1-0.3-0.2c-0.3-0.1-0.6,0-0.8,0.2c-0.1,0.1-0.2,0.3-0.2,0.5
				c0,0.1,0,0.2,0.1,0.3c0,0.1,0.1,0.2,0.2,0.3C196.1,496.8,196.3,496.9,196.5,496.9z M235.9,517.8c-0.3-0.3-0.8-0.3-1.1,0
				c-0.1,0.1-0.2,0.3-0.2,0.5c0,0.2,0.1,0.4,0.2,0.5c0.2,0.1,0.3,0.2,0.5,0.2s0.4-0.1,0.5-0.2c0.1-0.1,0.2-0.3,0.2-0.5
				C236.1,518.1,236,517.9,235.9,517.8z M232.3,541.3c0.2,0,0.4-0.1,0.5-0.2c0.1-0.2,0.2-0.3,0.2-0.5s-0.1-0.4-0.2-0.5
				c-0.3-0.3-0.8-0.3-1.1,0c-0.1,0.2-0.2,0.3-0.2,0.5s0.1,0.4,0.2,0.5C231.9,541.2,232.1,541.3,232.3,541.3L232.3,541.3z
				 M221.8,553.6c-0.3-0.3-0.8-0.3-1.1,0c-0.2,0.2-0.2,0.3-0.2,0.5c0,0.1,0,0.2,0.1,0.3c0.5-0.1,1-0.2,1.5-0.3
				C222,553.9,221.9,553.7,221.8,553.6L221.8,553.6z M163.5,494.4c-0.3-0.1-0.6,0-0.8,0.2c-0.1,0.1-0.2,0.3-0.2,0.5
				c0,0.2,0.1,0.4,0.2,0.5c0.1,0.1,0.3,0.2,0.5,0.2s0.4-0.1,0.5-0.2c0.1-0.1,0.1-0.2,0.2-0.3c0-0.1,0-0.2,0-0.3
				c0-0.2-0.1-0.4-0.2-0.5C163.6,494.5,163.6,494.5,163.5,494.4z M214.1,508.2c0,0-0.1,0.2-0.2,0.3c0,0.1,0,0.2,0,0.3
				c0,0.2,0.1,0.4,0.2,0.5c0.2,0.1,0.3,0.2,0.5,0.2c0.1,0,0.2,0,0.3-0.1c0.1,0,0.2-0.1,0.3-0.2c0.1-0.1,0.2-0.3,0.2-0.5
				c0-0.1,0-0.2,0-0.3c0-0.1-0.1-0.2-0.2-0.3C214.9,508,214.4,507.9,214.1,508.2L214.1,508.2z M208.8,527.7c0,0-0.2,0.1-0.3,0.2
				c-0.1,0.1-0.2,0.3-0.2,0.5c0,0.2,0.1,0.4,0.2,0.5c0.1,0.1,0.3,0.2,0.5,0.2s0.4-0.1,0.5-0.2c0.1-0.2,0.2-0.3,0.2-0.5
				c0-0.2-0.1-0.4-0.2-0.5c-0.1-0.1-0.1-0.1-0.2-0.2C209.2,527.7,209,527.7,208.8,527.7z M205,544.5c-0.1,0.1-0.2,0.3-0.2,0.5
				c0,0.2,0.1,0.4,0.2,0.5c0.1,0.1,0.3,0.2,0.5,0.2s0.4-0.1,0.5-0.2c0.1-0.2,0.2-0.3,0.2-0.5c0-0.2-0.1-0.4-0.2-0.5
				C205.8,544.3,205.3,544.3,205,544.5z M167.9,512.6c0,0-0.2,0.1-0.3,0.2c-0.1,0.1-0.1,0.2-0.2,0.3c0,0.1,0,0.2,0,0.3
				c0,0.2,0.1,0.4,0.2,0.5c0.1,0.1,0.3,0.2,0.5,0.2s0.4-0.1,0.5-0.2c0.1-0.1,0.2-0.3,0.2-0.5s-0.1-0.4-0.2-0.5
				C168.5,512.6,168.2,512.5,167.9,512.6z M180.9,522.8c-0.3-0.3-0.8-0.3-1.1,0c-0.1,0.1-0.1,0.2-0.2,0.3c0,0.1-0.1,0.2-0.1,0.3
				c0,0.2,0.1,0.4,0.2,0.5c0.1,0.1,0.3,0.2,0.5,0.2s0.4-0.1,0.5-0.2c0.1-0.1,0.2-0.3,0.2-0.5c0-0.1,0-0.2-0.1-0.3
				C181,523,180.9,522.9,180.9,522.8z M178.8,492.6c-0.1,0.1-0.2,0.3-0.2,0.5c0,0.2,0.1,0.4,0.2,0.5c0.1,0.1,0.3,0.2,0.5,0.2
				s0.4-0.1,0.5-0.2c0.1-0.1,0.2-0.3,0.2-0.5c0-0.2-0.1-0.4-0.2-0.5C179.6,492.3,179.1,492.3,178.8,492.6z M181.6,480.2
				c0,0,0.2,0,0.3,0c0.2,0,0.4-0.1,0.5-0.2c0.1-0.2,0.2-0.3,0.2-0.5c0-0.2-0.1-0.4-0.2-0.5c-0.3-0.3-0.8-0.3-1.1,0
				c-0.1,0.2-0.2,0.3-0.2,0.5c0,0.2,0.1,0.4,0.2,0.5C181.4,480.1,181.5,480.2,181.6,480.2L181.6,480.2z M211.1,554.4
				c0.2,0,0.4-0.1,0.5-0.2c0.1-0.2,0.2-0.3,0.2-0.5c0-0.2-0.1-0.4-0.2-0.5c-0.3-0.3-0.8-0.3-1.1,0c-0.1,0.1-0.2,0.3-0.2,0.5
				c0,0.2,0.1,0.4,0.2,0.5C210.7,554.4,210.9,554.4,211.1,554.4L211.1,554.4z M217.2,498.1c-0.1,0.1-0.2,0.3-0.2,0.5
				c0,0.1,0,0.2,0,0.3c0,0.1,0.1,0.2,0.2,0.3c0.1,0.1,0.3,0.2,0.5,0.2s0.4-0.1,0.5-0.2c0.1-0.2,0.2-0.3,0.2-0.5
				c0-0.2-0.1-0.4-0.2-0.5C217.9,497.8,217.4,497.8,217.2,498.1L217.2,498.1z M218.6,502.7c0,0,0.2,0.1,0.3,0.2c0.1,0,0.2,0,0.3,0
				c0.2,0,0.4-0.1,0.5-0.2c0.1-0.1,0.1-0.2,0.2-0.3c0-0.1,0.1-0.2,0.1-0.3c0-0.2-0.1-0.4-0.2-0.5c-0.2-0.2-0.5-0.3-0.8-0.2
				c-0.1,0-0.2,0.1-0.3,0.2c-0.1,0.1-0.2,0.3-0.2,0.5c0,0.1,0,0.2,0,0.3C218.5,502.6,218.6,502.7,218.6,502.7z M193.2,503.9
				c0.1,0,0.2-0.1,0.3-0.2c0.1-0.1,0.2-0.3,0.2-0.5c0-0.1,0-0.2,0-0.3c0-0.1-0.1-0.2-0.2-0.3c-0.3-0.3-0.8-0.3-1.1,0
				c-0.1,0.1-0.1,0.2-0.2,0.3c0,0.1,0,0.2,0,0.3c0,0.2,0.1,0.4,0.2,0.5c0.2,0.1,0.3,0.2,0.5,0.2C193.1,504,193.2,504,193.2,503.9
				L193.2,503.9z M210.6,517.8c-0.1,0.1-0.2,0.3-0.2,0.5c0,0.2,0.1,0.4,0.2,0.5c0.1,0.1,0.2,0.1,0.3,0.2c0.1,0,0.2,0.1,0.3,0.1
				c0.2,0,0.4-0.1,0.5-0.2c0.1-0.2,0.2-0.3,0.2-0.5c0-0.1,0-0.2-0.1-0.3c0-0.1-0.1-0.2-0.2-0.3C211.4,517.5,210.9,517.5,210.6,517.8
				L210.6,517.8z M232.3,512.6c0.2,0,0.4-0.1,0.5-0.2c0.1-0.1,0.2-0.3,0.2-0.5c0-0.2-0.1-0.4-0.2-0.5c-0.3-0.3-0.8-0.3-1.1,0
				c-0.1,0.1-0.2,0.3-0.2,0.5c0,0.2,0.1,0.4,0.2,0.5C231.9,512.5,232.1,512.6,232.3,512.6L232.3,512.6z M234.8,525.9
				c-0.1,0.1-0.2,0.3-0.2,0.5s0.1,0.4,0.2,0.5c0.1,0.1,0.2,0.1,0.3,0.2c0.1,0,0.2,0.1,0.3,0.1c0.2,0,0.4-0.1,0.5-0.2
				c0.1-0.1,0.2-0.3,0.2-0.5s-0.1-0.4-0.2-0.5c-0.1-0.1-0.2-0.1-0.3-0.2C235.3,525.6,235,525.7,234.8,525.9z M204.1,463.3h-0.7
				l-3.8,5.6l0.5,0.3L204.1,463.3L204.1,463.3z M210.3,466.7l-0.1-0.7l-7.9,7.4l0.4,0.4L210.3,466.7L210.3,466.7z M164.3,463.3
				l-6.4,4.9c0,0.2,0,0.5,0.1,0.7l7.3-5.6L164.3,463.3L164.3,463.3z M162.8,474.5l0.4,0.4l12.9-11.6h-0.9L162.8,474.5L162.8,474.5z
				 M191.2,471.7l0.6,0l-0.6-8.4h-0.6L191.2,471.7z M183.1,463.3l-1.6,7.3l0.6,0.1l1.7-7.4L183.1,463.3L183.1,463.3z"/>
		</g>
		<path id="el0pi894mboo1c" class="st4" d="M215.9,497.7c0,0-15.9,2.7-17.7,3.6s-6.4,7.7-7.3,11.4"/>
		<line id="el2n1dvhyri0g" class="st4" x1="279.6" y1="500" x2="286" y2="536.4"/>
		<g id="el0fr4udr6qjfi">
			<polygon id="el5w19kxyo3hl" class="st0" points="364.2,526.5 337.7,524 339,474.6 372.2,477.7 			"/>
			<g id="eli6x590e3na9">
				<rect x="336.1" y="473.7" class="st1" width="38.6" height="7.8"/>
			</g>
		</g>
		<g id="els0qo6xqg2c">
			<path id="eli385gz08am" class="st1" d="M295.5,496.8c0,0,27.5-11.2,32.1-12.6c4.6-1.4,8-1.2,9.8-1.2s23.7,5.5,27.6,6.4
				c3.9,0.9,7.1,3.9,7.3,5.9c0.2,2.1-1.2,3-2.1,3.2c-0.9,0.2-4.1-0.9-5-1.4c-0.9-0.5-5-0.9-5.9-1.2c-0.9-0.2,8,4.8,8.2,5.9
				c0.2,1.2,3,5.9,3,7.8c0,1.8-3,3.2-4.1,2.5c-1.2-0.7-2.5-1.6-2.5-1.6s3.4,4.1,3.7,6.4c0.2,2.3-2.5,3.9-2.5,3.9s0.2,0.7-2.3,1.2
				c-2.5,0.5-9.4-1.2-11.4-1.2s-14.6,0.5-22.1,1.8c-7.5,1.4-20.5-1.8-20.5-1.8l-7.8,2.3L295.5,496.8L295.5,496.8z"/>
			<path id="elcxpmrlaqu1k" class="st4" d="M365.5,519.4c0,0-3.2-3.7-5-4.6c-1.8-0.9-20.3-4.8-20.3-4.8"/>
			<path id="elzh7ukr12tcc" class="st4" d="M363.9,510.7c0,0-2.7-4.1-3.7-4.1c-0.9,0-19.6-5.7-19.6-5.7"/>
			<line id="elozftcpu3xa" class="st4" x1="359.4" y1="496.1" x2="341.8" y2="491.3"/>
		</g>
	</g>
</g>
</svg>
