<?xml version="1.0" encoding="utf-8"?>
<!-- Generator: Adobe Illustrator 28.1.0, SVG Export Plug-In . SVG Version: 6.00 Build 0)  -->
<svg version="1.1" id="Layer_1" xmlns="http://www.w3.org/2000/svg" xmlns:xlink="http://www.w3.org/1999/xlink" x="0px" y="0px"
	 viewBox="0 0 1920 1080" style="enable-background:new 0 0 1920 1080;" xml:space="preserve">
<style type="text/css">
	.st0{opacity:0.2;fill:#5562F6;enable-background:new    ;}
	.st1{opacity:0.2;}
	.st2{fill:#5562F6;}
	.st3{opacity:0.4;fill:#FFFFFF;enable-background:new    ;}
	.st4{opacity:0.25;}
	.st5{fill:#FFFFFF;}
	.st6{opacity:0.5;}
	.st7{fill:#E0E0E0;}
	.st8{fill:#F0F0F0;}
	.st9{fill:#FFBDA7;}
	.st10{fill:#37474F;}
	.st11{fill:#263238;}
	.st12{opacity:0.3;enable-background:new    ;}
	.st13{fill:#455A64;}
	.st14{fill:#F0997A;}
	.st15{fill:#B16668;}
	.st16{fill:#F28F8F;}
	.st17{fill:#FAFAFA;}
	.st18{opacity:0.15;enable-background:new    ;}
	.st19{fill:#FFA8A7;}
	.st20{opacity:0.2;enable-background:new    ;}
	.st21{opacity:0.4;enable-background:new    ;}
</style>
<g id="freepik--money-symbol--inject-414">
	<g id="freepik--shadow--inject-414_00000055696606350998808210000001376242269112851883_">
		<ellipse class="st0" cx="951.3" cy="899.7" rx="144.7" ry="79.8"/>
		<g class="st1">
			<path class="st2" d="M951.3,996.7c-42.6,0-85.2-9.4-117.7-28.2c-31.6-18.3-49.1-42.7-49.1-68.7c0-26,17.4-50.4,49.1-68.8
				c64.9-37.6,170.5-37.6,235.4,0l0,0c31.6,18.3,49.1,42.7,49.1,68.8s-17.4,50.4-49.1,68.8C1036.5,987.3,993.9,996.7,951.3,996.7z
				 M951.3,805c-42.2,0-84.4,9.3-116.5,27.9c-30.9,17.9-48,41.7-48,66.9c0,25.2,17,49,47.9,66.9c64.3,37.2,168.8,37.2,233,0
				c30.9-17.9,48-41.7,48-66.9c0-25.2-17-49-48-66.9C1035.7,814.2,993.5,805,951.3,805L951.3,805z"/>
		</g>
	</g>
	<g id="freepik--money-sign--inject-414">
		<polygon class="st2" points="1014.4,657.2 979.8,638.1 1046.7,583.6 1081.2,602.7 		"/>
		<path class="st2" d="M1035.6,669.8c-17.7-12-48.4-2.9-74.4,4.9c-6.3,2.1-11.9,3.8-17,5.3c-1.6,3.6-2.5,7.6-2.6,11.5
			c0,19.2,17.1,14,54.2,2.3c12.5-4.1,25.3-7.3,38.3-9.6c1.1,9.8,8.3,18.7,36,4.7L1035.6,669.8z"/>
		<polygon class="st2" points="949.9,920.5 915.3,901.4 915.3,862.3 949.9,881.5 		"/>
		<path class="st2" d="M1008.5,772.4c0,15.5-12.2,29.3-30.3,39.4c-28.8,16-40,3-42.5-9.8l-6.1-3.4c4.9-1.5,9.6-3.5,14-6
			c13.7-7.6,24-17.4,28.1-28.5C993.1,757.5,1008.5,754.9,1008.5,772.4z"/>
		<path class="st2" d="M879.9,868c-3.8-2.1-8.2-3.2-12.6-2.9c-0.7-2-1.3-4-1.9-6.2l-34.6-19.1c3.4,14.4,10.3,23.3,19.4,28.2l0,0
			l34.4,19.1C884.6,887,890.6,874.6,879.9,868z"/>
		<path class="st2" d="M995.8,693.9c-37.1,11.7-54.2,16.9-54.2-2.3c0-4,0.9-7.9,2.6-11.5c-25.3,7.5-37.1,8.4-37.1-7.6
			c0-11.8,8.3-26.3,31.2-39.1c24.5-13.6,38.1-10.4,41.5,4.6l66.9-54.5c-0.3-0.8-0.6-1.6-0.9-2.4c4.2-0.9,8.2-2.3,11.9-4.4
			l-27.6-15.7c-0.9-0.5-1.7-1-2.6-1.5l-0.4-0.2l0,0c-8.2-3.8-17.3-5.2-26.3-4.1c-11.9,1.3-23.6,4.4-34.6,9.1v-0.7l34.7-19.1
			l-34.6-19.1l0,0l-23.5,13L911,556.1l0,0v39.1c-46.9,32.6-76.1,75.2-76.1,121.3c0,21,5.9,32.9,15.5,39l0,0l0.5,0.2
			c0.8,0.5,1.7,0.9,2.5,1.4l28.9,15.6c0.8-4.2,0.2-8.6-1.7-12.5c9.2-1.1,18.2-3,27.1-5.7c35.2-10.2,66.4-26.1,66.4-1.2
			c0,3.7-0.7,7.4-2.2,10.9c21.3-6.7,36.7-9.3,36.7,8.2c0,15.5-12.2,29.3-30.3,39.4c-28.8,16-40,3-42.5-9.8l0,0l-6.1-3.4L901.2,783
			l-70.3,56.8l34.6,19.1c1.1,4.9,2.9,9.6,5.3,14c13.5,0.2,29-4.1,44.6-10.5v15.8L970,871V832c47.3-33.4,80.1-78.3,80.1-125.3
			c0.3-8-1.1-16-3.9-23.6C1030.5,683.4,1012.2,688.9,995.8,693.9z"/>
		<path class="st3" d="M995.8,693.9c-37.1,11.7-54.2,16.9-54.2-2.3c0-4,0.9-7.9,2.6-11.5c-25.3,7.5-37.1,8.4-37.1-7.6
			c0-11.8,8.3-26.3,31.2-39.1c24.5-13.6,38.1-10.4,41.5,4.6l66.9-54.5c-0.3-0.8-0.6-1.6-0.9-2.4c4.2-0.9,8.2-2.3,11.9-4.4
			l-27.6-15.7c-0.9-0.5-1.7-1-2.6-1.5l-0.4-0.2l0,0c-8.2-3.8-17.3-5.2-26.3-4.1c-11.9,1.3-23.6,4.4-34.6,9.1v-0.7l34.7-19.1
			l-34.6-19.1l0,0l-23.5,13L911,556.1l0,0v39.1c-46.9,32.6-76.1,75.2-76.1,121.3c0,21,5.9,32.9,15.5,39l0,0l0.5,0.2
			c0.8,0.5,1.7,0.9,2.5,1.4l28.9,15.6c0.8-4.2,0.2-8.6-1.7-12.5c9.2-1.1,18.2-3,27.1-5.7c35.2-10.2,66.4-26.1,66.4-1.2
			c0,3.7-0.7,7.4-2.2,10.9c21.3-6.7,36.7-9.3,36.7,8.2c0,15.5-12.2,29.3-30.3,39.4c-28.8,16-40,3-42.5-9.8l0,0l-6.1-3.4L901.2,783
			l-70.3,56.8l34.6,19.1c1.1,4.9,2.9,9.6,5.3,14c13.5,0.2,29-4.1,44.6-10.5v15.8L970,871V832c47.3-33.4,80.1-78.3,80.1-125.3
			c0.3-8-1.1-16-3.9-23.6C1030.5,683.4,1012.2,688.9,995.8,693.9z"/>
		<path class="st2" d="M1046.1,683.1c-15.7,0.3-34,5.8-50.3,10.8c-37.1,11.7-54.2,16.9-54.2-2.3c0-4,0.9-7.9,2.6-11.5
			c4-9,12.8-18.6,28.7-27.5c24.4-13.5,38.1-10.3,41.5,4.7l66.9-54.6c-6.5-18.5-19.4-28-38.7-28.4c-11.6-0.3-25.6,2.8-41.7,9.3v-39.1
			l-34.6,19.2l-20.6,11.4v39.1c-46.9,32.6-76.2,75.2-76.2,121.3c-0.3,8.5,1.1,17.1,4.2,25.1c10.3,24.7,38.7,21.3,68.6,12.9
			c10.5-3,20.7-6.5,29.7-9.4c21.3-6.7,36.7-9.3,36.7,8.2c0,15.5-12.2,29.3-30.3,39.4c-28.8,16-40,3-42.5-9.8l-70.3,56.9
			c1.1,4.9,2.9,9.6,5.3,14c9.2,16.4,25.5,20.9,44.6,18.5c11.9-1.8,23.6-5.1,34.6-9.9v39.1l54.7-30.2v-39.4
			c47.3-33.3,80.1-78.3,80.1-125.3C1084.7,692,1067.9,682.6,1046.1,683.1z"/>
		<g class="st4">
			<path class="st5" d="M1046.1,683.1c-15.7,0.3-34,5.8-50.3,10.8c-37.1,11.7-54.2,16.9-54.2-2.3c0-4,0.9-7.9,2.6-11.5
				c4-9,12.8-18.6,28.7-27.5c24.4-13.5,38.1-10.3,41.5,4.7l66.9-54.6c-6.5-18.5-19.4-28-38.7-28.4c-11.6-0.3-25.6,2.8-41.7,9.3
				v-39.1l-34.6,19.2l-20.6,11.4v39.1c-46.9,32.6-76.2,75.2-76.2,121.3c-0.3,8.5,1.1,17.1,4.2,25.1c10.3,24.7,38.7,21.3,68.6,12.9
				c10.5-3,20.7-6.5,29.7-9.4c21.3-6.7,36.7-9.3,36.7,8.2c0,15.5-12.2,29.3-30.3,39.4c-28.8,16-40,3-42.5-9.8l-70.3,56.9
				c1.1,4.9,2.9,9.6,5.3,14c9.2,16.4,25.5,20.9,44.6,18.5c11.9-1.8,23.6-5.1,34.6-9.9v39.1l54.7-30.2v-39.4
				c47.3-33.3,80.1-78.3,80.1-125.3C1084.7,692,1067.9,682.6,1046.1,683.1z"/>
		</g>
		<g class="st6">
			<path class="st5" d="M1004.6,851.1c7.3-5.8,14.7-11.4,21.4-17.8c3.5-3,6.7-6.4,10-9.5c1.6-1.6,3.1-3.4,4.7-5
				c1.6-1.7,3.1-3.4,4.6-5.1c6-6.9,11.5-14.2,16.5-21.8c4.9-7.6,9.1-15.7,12.5-24c3.4-8.3,5.9-17,7.5-25.8l0.9-6.6
				c0.3-2.2,0.3-4.5,0.4-6.7c0-1.1,0.2-2.2,0.1-3.4v-3.3c0-2.2-0.3-4.4-0.4-6.7c-0.4-4.4-1.5-8.7-3.1-12.9
				c-1.6-4.1-4.2-7.9-7.5-10.9c-3.4-3-7.5-5.3-12-6.5c-4.5-1.2-9.2-1.8-14-1.9c4.8-0.3,9.5,0,14.2,1c4.8,1,9.2,3.2,12.9,6.2
				c3.6,3.1,6.5,7,8.3,11.3c1.8,4.3,3.1,8.8,3.7,13.4c0.3,2.3,0.6,4.6,0.7,6.9c0.1,2.3,0.1,4.6,0,6.9c-0.1,2.3,0,4.6-0.3,6.9
				l-0.8,6.8c-1.5,9.1-3.9,17.9-7.4,26.5c-3.6,8.5-8,16.6-13.1,24.3c-1.2,2.1-2.6,3.8-4,5.7c-1.3,1.9-2.7,3.8-4.2,5.6l-4.3,5.4
				l-4.7,5.2C1034.7,828.8,1020.3,840.8,1004.6,851.1z"/>
		</g>
		<g class="st6">
			<path class="st5" d="M945.5,614.2l-8.6,6.9c-2.8,2.4-5.7,4.7-8.4,7.2c-5.5,4.9-10.8,9.9-15.8,15.2c-10,10.6-18.6,22.2-25.8,34.7
				c-7,12.5-12,26-14.7,40c-0.3,1.8-0.5,3.5-0.8,5.3c-0.3,1.8-0.5,3.5-0.6,5.3c-0.2,3.6-0.5,7.1-0.4,10.7c-0.1,7.2,1,14.3,3.3,21.1
				c-3-6.7-4.7-13.8-5.1-21.1c-0.3-3.6,0-7.2,0-10.9c0-1.8,0.2-3.6,0.4-5.4c0.2-1.8,0.3-3.6,0.6-5.4c2.3-14.4,7.1-28.3,14.3-41.1
				c7.3-12.7,16.4-24.4,27-34.8c5.3-5.2,10.8-10.1,16.6-14.7c2.9-2.3,5.9-4.4,8.9-6.7C939.3,618.2,942.4,616.2,945.5,614.2z"/>
		</g>
		<polygon class="st2" points="945.5,614.2 910.9,595.1 910.9,556.1 945.5,575.2 		"/>
	</g>
</g>
<g id="freepik--Plants--inject-414">
	<g id="freepik--plants--inject-414">
		<path class="st7" d="M1803.3,833.6c-25.2,2.7-55,51.4-62.5,95.8c-5.1,28-6.2,56.5-3.2,84.8l10.6,6.4l3.1,1.9l8.6,5.2l7.6,4.6
			l1.5,0.9l0.7-15.2l0,0v-0.3l0,0v-2.2c-1.9-22.1,10.7-52,24.6-78.9c9.3-18.1,19.2-34.6,25.8-46.7
			C1836.8,859.8,1826.8,831.1,1803.3,833.6z"/>
		<path class="st5" d="M1808.4,852.1c-31,25.7-61.6,94.2-57.1,170.6l-3.1-1.9c-4-76.6,27-145.2,58.3-171.1c0.6-0.5,1.5-0.5,2.1,0.2
			c0,0,0,0.1,0.1,0.1C1809.2,850.6,1809.1,851.5,1808.4,852.1C1808.4,852.1,1808.4,852.1,1808.4,852.1z"/>
		<path class="st8" d="M1770.5,1034L1770.5,1034l10.4,6.4c4.6-13.7,11.1-26.5,19.5-38c18.4-25.8,46.2-44.5,48.6-60.4
			c3.1-19.1-10.8-30.7-35.2-20.5c-7.5,3.5-14.2,8.7-19.6,15.2c-21.1,25.4-33.2,57.6-34.5,91.1l7.6,4.6l1.5,0.9L1770.5,1034z"/>
		<path class="st5" d="M1770.5,1034L1770.5,1034c6-56.6,38.2-87.8,56-97c0.8-0.4,1.1-1.3,0.7-2.1c-0.3-0.8-1.2-1.1-2-0.8
			c0,0,0,0-0.1,0c-17.7,9.1-45.7,35.9-55.3,83.7l0,0c-1,4.7-1.7,9.5-2.3,14.3l1.5,0.9L1770.5,1034z"/>
	</g>
	<g id="freepik--plants--inject-414_00000153684233797445847140000007491540246255241617_">
		<path class="st7" d="M277.1,971.1l-7.6,4.6L252,986.2c0-37.9-12.2-70.9-26.5-97.6c-10.2-18.1-21.4-35.6-33.7-52.2
			c-20.5-29.3,10.4-44.6,35.3-30.9s44,46.3,50.6,87.9C282.5,923.2,279.2,955.4,277.1,971.1z"/>
		<path class="st5" d="M266.2,975.5h0.3c0.8,0,1.5-0.7,1.5-1.5c0,0,0,0,0,0c1.8-89.9-24.8-136.4-56.9-160.9
			c-0.7-0.5-1.6-0.4-2.1,0.3c0,0,0,0,0,0c-0.5,0.7-0.4,1.6,0.3,2.1c0,0,0,0,0.1,0c31.7,24.2,57.5,69.7,55.6,158.3
			C265,974.7,265.5,975.4,266.2,975.5z"/>
		<path class="st8" d="M269.4,975.8L252,986.2l-8.4,5.1l-2.3,1.3l-24.3,14.5c-10.2-4.7-14.7-10.3-16.4-19
			c-1.5-7.8-0.4-16.7-5.3-22.9c-3.4-3.5-7.7-5.8-12.5-6.5c-1.6-0.4-3.1-0.9-4.6-1.4c-3.1-1.3-6.2-2.9-9.1-4.6
			c-3.6-2-6.3-5.4-7.5-9.5c-2-9.9,9.7-18.4,8.1-28.4c-0.7-4.7-4.6-8.3-8.1-11.9c-3.5-3.6-7.2-7.2-7.4-12.4c0.1-4.6,2.3-8.9,6.1-11.4
			c6.5-4.3,14.6-5.3,21.9-2.7c7.4,2.4,13.9,7.2,21.1,10.3c7.2,3,14.7,0.4,22.2,2h0.3c7.3,1.7,15,4.7,17.7,12.9
			c2.6,8.2-0.7,17.8,3.8,24.9c5,7.9,15.6,9.4,20.8,17.3C274.4,953.4,274.8,965.7,269.4,975.8z"/>
		<path class="st5" d="M243.7,991.3l-2.3,1.3c1.7-20.4-3-40.8-13.5-58.1c-15.5-7.3-33.3-7.1-48.6,0.5c-0.2,0.1-0.4,0.2-0.6,0.2
			c-0.4,0-0.7-0.2-0.9-0.5c-0.3-0.5-0.1-1.2,0.4-1.5c0,0,0,0,0,0c14.9-7.5,32.2-8.2,47.6-1.9c-17.8-27.3-45.6-41.3-55.2-44.1
			c-0.6-0.2-0.9-0.8-0.8-1.4c0.1-0.6,0.7-0.9,1.3-0.8c0,0,0,0,0,0c10.2,2.9,40,18.1,58.1,47.8c0.1,0.1,0.3,0.3,0.3,0.5
			C240.2,950.5,245.1,970.9,243.7,991.3z"/>
	</g>
</g>
<g id="freepik--Clouds--inject-414">
	<g id="freepik--Cloud--inject-414">
		<path class="st5" d="M1446.5,90.6c0-11.9-12.5-20.2-26.7-21.7c-16.7-1.6-28.6,6.1-29,19.9c-10.9-4.7-22.5-1.7-21.6,10.8
			c-2.8-3.4-13.5-3.3-17.4-2.4c-4.2,1.2-7.7,4.3-9.5,8.4c-0.9,2-1.2,4.2-1,6.4c-6.4-2.2-20.8-3.6-24.3,2.6
			c-6.5,10.8,19.3,11.2,24.5,7.9c1.1,8.4,28.8,9.8,35.5,2c5.2,5.5,12.8,6.7,20.8,7.2c13.7,0.8,22.1-4,32.8-9.7
			c11.6,10.3,31.8,10.5,42.2-1.3c2.7,2.6,10,3.4,15.9,2c3.9-0.9,4.8-2.7,4.8-2.7c2.2,1,4.6,1.8,6.9,2.2c7.6,1.7,21.8,0,15.8-7.2
			c-3.7-2.7-8.1-3.8-12.5-3.2c-3.3-6.8-16.6-13.2-24.3-7.4c-0.3-8.2-7.5-14.7-17.7-16.3C1458.7,87.7,1450.5,87.2,1446.5,90.6z"/>
		<path class="st7" d="M1401,133.6h-3.2c-6.9-0.4-14.9-1.4-20.8-6.6c-6,5-20.3,5.8-29.2,2.9c-2.9-0.6-5.5-2.4-7.2-5
			c-6,2-19.9,2-24.5-2.9c-2.1-2.2-2.2-5.6-0.4-8c3.8-6.4,16.7-5.8,24.3-3.9c0.1-1.7,0.5-3.3,1.2-4.8c2-4.6,5.9-8.1,10.6-9.4
			c5.4-1.1,10.9-0.8,16.2,1c0.2-3.5,1.9-6.8,4.6-8.9c5.2-3.2,11.5-3.6,17.1-1.2c0.5-4.9,2.8-9.5,6.4-12.8c6.8-5.5,15.5-7.9,24-6.5
			c13,1.3,26.1,8.6,27.8,20.5c4.6-1.6,9.6-2,14.4-1.2c10,1.6,17.2,7.6,18.7,15.3c3.4-1.4,7.1-1.6,10.6-0.6c5.3,1.2,10,4.4,13.2,8.9
			c3.9-0.3,10.6,1.2,12.9,3.9s2,5,1.2,6.3c-2.5,4.5-13.2,4.7-18.5,3.6c-2.2-0.4-4.3-1.1-6.4-1.9c-1.4,1.2-3,2-4.8,2.3
			c-5.4,1.5-11.1,1-16.1-1.4c-10.7,10.6-30.3,11.2-42.6,1.1l-0.4,0.2C1420.9,129.3,1412.8,133.6,1401,133.6z M1377,123
			c0.4,0,0.8,0.2,1.1,0.5c4.6,4.9,11.3,6.2,19.9,6.8c12.7,0.8,20.6-3.6,30.7-8.8l1.3-0.7c0.6-0.3,1.2-0.2,1.7,0.2
			c11.4,10.1,30.5,9.5,40.1-1.2c0.3-0.3,0.7-0.5,1.1-0.5c0.4-0.1,0.8,0.1,1.1,0.4c2,2,8.7,3,14.5,1.6c3-0.7,3.8-1.9,3.8-2
			c0.4-0.7,1.2-0.9,1.9-0.6c2.2,0.9,4.5,1.7,6.8,2.1c5.9,1.3,13.9,0.2,15.3-2c0.4-0.7-0.3-1.8-0.9-2.6c-3.3-2.2-7.2-3.1-11-2.7
			c-0.7,0.2-1.4-0.2-1.7-0.9c-2.7-4.2-6.9-7.2-11.7-8.3c-3.4-1.1-7.2-0.6-10.3,1.4c-0.7,0.5-1.6,0.4-2.1-0.3
			c-0.2-0.3-0.3-0.6-0.3-0.9c-0.3-7.2-6.9-13.2-16.4-14.8c-3.5-0.6-10.9-0.9-14.2,2c-0.7,0.6-1.6,0.5-2.2-0.2
			c-0.2-0.3-0.4-0.6-0.3-1c0-11.5-12.8-18.7-25.3-20c-9.2-0.9-16.9,1.1-21.8,5.6c-3.5,3.3-5.5,8-5.5,12.9c0,0.5-0.3,1-0.7,1.3
			c-0.4,0.3-1,0.3-1.4,0c-6.3-2.7-12.4-2.6-16.1,0c-2.7,2.2-4,5.6-3.5,9.1c0.1,0.7-0.3,1.3-0.9,1.6c-0.6,0.3-1.3,0.1-1.7-0.4
			c-2.2-2.6-11.9-2.8-15.8-1.8c-3.7,1.1-6.8,3.8-8.5,7.5c-0.8,1.7-1.1,3.7-0.9,5.6c0,0.5-0.2,1.1-0.6,1.4c-0.4,0.3-0.9,0.4-1.4,0.3
			c-6.3-2.2-19.7-3.1-22.7,1.9c-1.3,2.2-0.7,3.4,0,4.1c4,4.2,19,3.6,22.5,1.6c0.5-0.2,1-0.2,1.5,0c0.5,0.2,0.8,0.7,0.8,1.2
			c0.2,1.6,2.3,3.2,5.7,4.3c8.5,2.7,22.9,1.8,27.2-3.1C1376.2,123.2,1376.6,123,1377,123L1377,123z"/>
	</g>
	<g id="freepik--cloud--inject-414">
		<path class="st5" d="M377.5,225.9c0-13.3-13.9-22.6-29.9-24.2c-18.7-1.8-32,6.8-32.4,22.2c-12.3-5.2-25.2-1.9-24.3,12.1
			c-3.2-3.8-15.1-3.6-19.4-2.6c-4.7,1.4-8.6,4.8-10.7,9.4c-1.1,2.2-1.4,4.8-1.1,7.2c-7.2-2.4-23.4-3.9-27.4,2.9
			c-7.2,12.2,21.6,12.5,27.5,8.9c1.2,9.4,32.2,10.8,39.8,2.3c5.9,6.1,14.3,7.5,23.4,8.1c15.3,0.9,24.7-4.4,36.7-10.8
			c13,11.5,35.5,11.7,47.3-1.4c3,2.9,11.2,3.8,17.8,2.2c4.3-1.1,5.4-3,5.4-3c2.6,1.1,5.2,2,8,2.5c8.5,1.8,24.3,0,17.7-8.1
			c-2.3-2.7-10.4-4.4-14.1-3.6c-3.7-7.6-18.6-14.8-27.1-8.4c-0.3-9.2-8.4-16.4-19.8-18.1C391,222.6,381.8,222.1,377.5,225.9z"/>
		<path class="st7" d="M326.4,274c-1.1,0-2.3,0-3.5,0c-7.9-0.5-16.7-1.5-23.3-7.2c-6.7,5.6-22.7,6.5-32.7,3.3
			c-3.3-0.7-6.2-2.7-8.1-5.6c-6.7,2.3-22.3,2.2-27.5-3.2c-2.3-2.4-2.5-6.3-0.4-9c4.3-7.2,18.7-6.5,27.1-4.3c0.1-1.9,0.6-3.7,1.3-5.4
			c2.3-5.2,6.6-9,11.8-10.5c6-1.2,12.2-0.8,18.1,1.1c0.1-4.1,2-7.8,5.2-10.2c5.8-3.6,12.9-4.1,19.1-1.4c0.6-5.6,3.1-10.7,7.2-14.5
			c6.2-5.7,15.8-8.2,27-7.2c14.5,1.4,29.3,9.7,31.3,22.9c5.2-1.8,10.7-2.3,16.1-1.4c11.2,1.8,19.2,8.5,20.8,17.1
			c3.8-1.6,8-1.9,11.9-0.7c5.9,1.4,11.1,5,14.8,10c4.3-0.4,11.9,1.3,14.4,4.4c2.5,3.1,2.2,5.6,1.4,7c-2.8,5.1-14.8,5.3-20.8,4
			c-2.4-0.5-4.8-1.2-7.2-2.1c-1.6,1.3-3.4,2.2-5.4,2.6c-6,1.6-12.4,1-18-1.6c-11.9,11.9-33.9,12.5-47.7,1.2l-0.5,0.2
			C348.5,269.2,339.6,274,326.4,274z M299.6,262.2c0.5,0,0.9,0.2,1.2,0.5c5.2,5.4,12.6,6.9,22.3,7.5c14.2,0.9,23.1-3.8,34.4-9.8
			l1.5-0.8c0.6-0.4,1.4-0.3,1.9,0.2c12.8,11.3,34.2,10.8,44.9-1.3c0.3-0.3,0.8-0.6,1.2-0.6c0.5,0,0.9,0.2,1.3,0.5
			c2.2,2.2,9.7,3.4,16.2,1.8c3.5-0.8,4.3-2.2,4.3-2.2c0.5-0.8,1.4-1,2.2-0.7c2.4,1.1,5,1.9,7.6,2.4c6.5,1.4,15.6,0.2,17.1-2.3
			c0.5-0.8-0.3-2-1-2.9c-3.7-2.4-8-3.4-12.3-2.9c-0.8,0.2-1.6-0.2-1.9-0.9c-3-4.8-7.8-8.1-13.1-9.3c-3.9-1.2-8-0.6-11.5,1.6
			c-0.6,0.3-1.2,0.3-1.8,0c-0.6-0.3-0.9-0.9-1-1.6c-0.3-8.2-7.6-14.8-18.3-16.5c-3.9-0.6-12.3-1-15.9,2.2c-0.5,0.4-1.2,0.5-1.8,0.2
			c-0.6-0.3-1-0.9-1-1.6c0-12.9-14.3-21-28.4-22.4c-10.2-1-18.9,1.2-24.3,6.3c-3.9,3.6-6.1,8.8-6.2,14.2c0,0.6-0.3,1.1-0.8,1.4
			c-0.5,0.3-1.1,0.3-1.6,0c-6.9-3-13.9-2.9-18,0c-2.9,2.4-4.4,6.3-3.8,10.2c0.1,1-0.6,1.8-1.6,1.9c-0.5,0-1.1-0.2-1.4-0.6
			c-2.4-2.9-13.3-3.1-17.7-2.1c-4.2,1.2-7.6,4.3-9.5,8.4c-0.9,2-1.3,4.3-0.9,6.6c0.1,0.6-0.2,1.2-0.6,1.6c-0.5,0.4-1.1,0.5-1.6,0.3
			c-6.9-2.4-22.1-3.4-25.4,2.1c-1.5,2.5-0.8,3.6,0,4.6c4.4,4.7,21.3,4.2,25.2,1.8c0.5-0.3,1.1-0.3,1.6,0c0.5,0.3,0.9,0.8,1,1.4
			c0.2,1.8,2.6,3.6,6.4,4.8c9.5,3,25.7,2,30.4-3.6c0.3-0.4,0.8-0.6,1.3-0.6L299.6,262.2z"/>
	</g>
	<g id="freepik--cloud--inject-414_00000095313182398765620440000009186952944387591071_">
		<path class="st5" d="M1768,239.6c-3.3-1.3-6.9-2-10.4-2c-3.5-0.3-4.4-1-5.1-1.7c-6.7-10.1-19.3-14-30.2-9.3
			c-3.1-9.9-12.9-15.7-22.7-13.3c0.4-10.8-13.1-22.8-25.3-25.3c-11.6-2.6-21.8-1.5-28.4,6.5c-7.1-14.5-35-18.5-50-10.8
			c-8.7,4.4-16,8.9-19.6,17.2c-2.4,5.1-3.5,10.7-3.3,16.4c-5.9-5.4-17.6-6.8-25.5-3.6c-8.4,3.4-9.1,10.1-9.5,16.8
			c-5-1.5-10.3-1.6-15.4-0.3c-5.3,1.7-8.4,6-7.6,9.5c-4.2-0.3-14.3,3.3-13.1,8c1.3,5.2,12.8,4.7,17,4.5c4-0.3,8-1,12-2
			c2,0.8,4.1,1.2,6.3,1.2c7.3,0,10.4-3.3,11.6-6.1c3.5,7.8,16.2,13.8,25.2,16.2c16.9,4.5,40.8,1.7,51.2-11.4c1.2,2.5,2.9,4.7,5,6.4
			c4.5,3.7,9.9,6,15.6,6.6c6.9,0.7,25.5,1.6,30.8-9.9c3.7,7.6,20.3,11.1,32.9,9.2c4.9-0.8,9.6-2.3,14.1-4.4c2.8-1.5,5.5-3.2,8.1-5.1
			c2.1-1.5,4.7-1.6,6.9-0.5c8.9,3.2,18.7,3.1,27.6-0.3C1773.2,248.8,1774.6,242.7,1768,239.6z"/>
		<path class="st7" d="M1589.9,264.5c-5.5,0-11-0.7-16.3-2c-6.9-1.9-19.5-6.9-24.8-14.5c-2.9,3.3-7.2,5.1-11.5,4.7
			c-2.2,0-4.3-0.4-6.4-1.2c-3.9,0.9-7.8,1.6-11.8,1.9c-5.7,0.3-17,0.7-18.6-5.7c-0.4-1.6,0-3.3,1.1-4.4c3.3-3.2,7.4-5.1,11.9-5.5
			c0.8-4.7,4.3-8.5,8.9-9.5c4.7-1.2,9.7-1.2,14.4,0c0.5-6,1.7-12.8,10.4-16.3c8.1-2.9,17-2.1,24.6,2.1c0.2-4.9,1.4-9.7,3.5-14
			c3.9-9,12.2-13.8,20.3-18.1c15.2-7.7,42.1-4.1,51,9.7c6.4-6.5,15.8-8.2,28.4-5.4c11.9,2.6,25.3,13.9,26.4,25.3
			c9.4-1.3,18.5,4.1,22.2,13.1c11.2-4,23.6,0.2,30.3,10.4c0,0,0.7,0.8,4,1.1h0.9c3.4,0.1,6.9,0.8,10.1,2.1l0,0
			c2.9,0.9,5,3.7,5.1,6.9c-0.6,4-3.3,7.2-6.9,8.4c-9.2,3.4-19.3,3.4-28.6,0c-3-1-3.7-0.9-5.7,0.3l-2.7,1.8c-1.8,1.3-3.6,2.4-5.6,3.4
			c-4.6,2.2-9.5,3.8-14.6,4.6c-12.1,1.8-27.2-1-33-7.8c-6.4,9.3-21.9,9.4-31,8.5c-6-0.6-11.8-3-16.5-6.9c-1.7-1.4-3.1-3.1-4.3-4.9
			C1617,260.7,1603.3,264.5,1589.9,264.5z M1548.8,243.2c0.6,0,1.1,0.4,1.4,0.9c3.1,6.9,14.7,12.8,24.3,15.3
			c16.6,4.4,39.8,1.6,49.6-10.8c0.3-0.4,0.8-0.7,1.4-0.6c0.5,0.1,1,0.4,1.2,0.9c1.1,2.3,2.7,4.3,4.6,5.9c4.2,3.5,9.4,5.7,14.8,6.2
			c7.2,0.7,24.6,1.2,29.3-9c0.2-0.6,0.8-0.9,1.4-0.9c0.6,0,1.1,0.3,1.4,0.9c3.5,6.9,19.3,10.1,31.3,8.4c4.7-0.7,9.3-2.2,13.7-4.3
			c1.7-0.9,3.4-2,4.9-3.1c0.9-0.6,1.8-1.2,2.8-1.8c2.4-1.7,5.5-2,8.2-0.7c8.6,3.1,17.9,3.1,26.4,0c3.2-1.4,5.2-3.6,5.2-5.5
			s-1.1-2.9-3.5-3.9l0,0c-2.9-1.1-5.9-1.7-9-1.8h-1c-2.3,0.1-4.5-0.7-6.2-2.3c-6.3-9.5-18.1-13.2-28.4-8.8c-0.8,0.3-1.7,0-2-0.8
			c0-0.1-0.1-0.2-0.1-0.2c-2.9-9.1-11.9-14.4-20.8-12.2c-0.8,0.2-1.6-0.4-1.8-1.2c0-0.1,0-0.2,0-0.4c0.3-10.2-12.9-21.4-24-23.9
			c-12.5-2.7-21.3-0.8-26.9,6c-0.3,0.4-0.8,0.6-1.4,0.5c-0.5-0.1-0.9-0.4-1.2-0.9c-6.7-13.7-33.6-17.5-48-10.2
			c-8,4-15.4,8.3-18.9,16.4c-2.3,4.9-3.3,10.3-3.1,15.8c0,0.6-0.4,1.2-0.9,1.4c-0.5,0.3-1.2,0.2-1.6-0.3c-5.2-4.8-16.4-6.4-23.9-3.4
			c-7.5,3-7.8,8.1-8.3,15.4c0,0.5-0.2,0.9-0.6,1.2c-0.4,0.3-0.8,0.4-1.3,0.3c-4.7-1.4-9.8-1.5-14.6-0.3c-4.8,1.4-7.1,5.1-6.6,7.6
			c0.1,0.5,0,1-0.3,1.4c-0.3,0.4-0.8,0.6-1.3,0.5c-4,0.1-7.9,1.6-11,4.3c-0.6,0.8-0.6,1.3-0.5,1.6c0.6,2.6,5.8,3.6,15.3,3.3
			c4-0.3,8-1,11.9-1.9c0.3-0.1,0.7-0.1,1,0c1.8,0.7,3.6,1,5.5,1.1c5.2,0,8.8-1.9,10.2-5.2c0.2-0.6,0.8-1,1.4-1L1548.8,243.2z"/>
	</g>
	<g id="freepik--cloud--inject-414_00000143607071121749601900000004417757410030450587_">
		<path class="st5" d="M792.4,112.7c-3.7-1.3-7.6-2-11.6-2c-3.7-0.2-4.9-1-5.7-1.8C767.6,98,753.8,94,742,99.4
			c-3.6-10.7-14.5-16.8-25.1-14c0-12.1-14.9-24.7-28.2-27.4c-12.8-2.6-23.9-1.2-31,7.7c-8.1-15.7-38.7-19.5-55.1-10.8
			c-9.4,5-17.4,10.1-21.2,19.3c-2.5,5.7-3.6,11.9-3.2,18.1c-6.6-5.8-19.5-7.2-28-3.6c-9.2,3.9-9.8,11.2-10.1,18.6
			c-5.5-1.6-11.4-1.6-16.9,0c-5.8,1.9-9.1,6.8-8.2,10.6c-4.6,0-15.6,3.9-14.2,9c1.5,5.7,14.1,4.8,18.8,4.6c4.4-0.5,8.8-1.3,13.1-2.4
			c2.2,0.8,4.6,1.2,6.9,1.2c8-0.2,11.4-3.9,12.6-7c4.1,8.5,18.1,14.7,28,17.1c18.6,4.6,44.8,1,55.9-13.6c1.4,2.7,3.3,5,5.7,6.9
			c5,4,11.1,6.4,17.4,6.9c7.6,0.6,28.1,1.2,33.6-11.5c4.2,8.3,22.5,11.7,36.3,9.4c5.3-1,10.5-2.7,15.4-5.2c3-1.8,6-3.7,8.8-5.8
			c2.2-1.7,5.1-1.9,7.6-0.7c9.8,3.4,20.5,3.2,30.2-0.7C798.2,122.7,799.7,115.9,792.4,112.7z"/>
		<path class="st7" d="M595.8,143.8c-5.5,0-11-0.6-16.3-1.9c-7.9-1.9-21.8-7.2-27.8-15.7c-3.1,3.8-7.8,5.9-12.6,5.5
			c-2.4,0-4.7-0.4-6.9-1.1c-4.2,1.1-8.6,1.9-12.9,2.3c-5.7,0.4-18.5,1.1-20.3-5.6c-0.4-1.7,0-3.4,1.1-4.7c3.5-3.5,8.1-5.7,13-6.2
			c0.7-5.2,4.5-9.4,9.4-10.6c5.2-1.5,10.7-1.7,15.9-0.4c0.3-6.6,1.5-14.2,10.9-18.1c8.9-3.4,18.8-2.7,27.1,2
			c0-5.5,1.2-10.9,3.5-15.8c4.1-9.9,13.1-15.3,21.9-20c16.5-8.8,46.2-5.4,56,9.7c6.9-7.2,17.1-9.5,31.1-6.7
			c13.1,2.6,28.1,14.8,29.4,27.1c10.3-1.8,20.5,3.9,24.7,13.9c12.2-4.7,25.9-0.4,33.5,10.6c0.2,0.2,0.9,0.9,4.6,1.2h1
			c3.7,0,7.5,0.7,11,2c4.9,2.2,5.7,5.5,5.7,7.2c-0.6,4.3-3.5,7.9-7.5,9.1c-10,4-21.1,4.3-31.3,0.7c-3.5-1-4.2-0.9-6.4,0.5l-2.9,2
			c-1.9,1.4-3.9,2.6-6,3.6c-5,2.5-10.3,4.3-15.8,5.4c-13,2.2-30.1-0.7-36.4-8.1c-6.6,10.6-23.8,10.8-33.8,10.2
			c-6.6-0.5-12.9-3-18.1-7.2c-1.9-1.5-3.6-3.4-5-5.5C626.9,139.3,611,143.8,595.8,143.8z M551.9,121.8c0.6,0,1.1,0.3,1.3,0.8
			c3.5,7.6,16.5,13.8,27,16.3c18.4,4.5,43.9,0.9,54.4-13.1c0.3-0.4,0.8-0.6,1.3-0.6c0.5,0.1,0.9,0.4,1.1,0.8
			c1.3,2.5,3.1,4.6,5.3,6.3c4.8,3.8,10.5,6.1,16.5,6.5c10,0.8,27.4,0.4,32.1-10.6c0.2-0.5,0.7-0.9,1.3-0.9c0.6,0,1.1,0.3,1.4,0.8
			c3.9,7.6,21.5,10.8,34.7,8.6c5.2-0.9,10.2-2.6,15-5.1c2-1.1,3.9-2.3,5.7-3.6c0.9-0.7,1.9-1.4,3-2.1c2.5-1.9,5.9-2.2,8.7-0.9
			c7.8,2.2,19.2,4,29.2-0.6c3.5-1.7,5.7-4.1,5.7-6.4s-1.4-3.3-3.9-4.4l0,0c-3.2-1.2-6.6-1.8-10-1.8h-1c-2.4,0.2-4.8-0.6-6.7-2.3
			c-7.1-10.4-20.3-14.2-31.6-9.1c-0.4,0.2-0.8,0.2-1.2,0c-0.4-0.2-0.7-0.5-0.8-1c-3.4-10-13.5-15.7-23.4-13.1
			c-0.8,0.2-1.6-0.3-1.8-1.1c0-0.1,0-0.2,0-0.4c0.2-11.3-14.7-23.4-27.1-25.9c-13.9-2.8-23.5-0.4-29.6,7.2c-0.3,0.4-0.8,0.6-1.3,0.5
			c-0.5,0-0.9-0.3-1.1-0.8c-7.7-15-37.5-18.6-53.2-10.2c-8.7,4.6-16.8,9.5-20.5,18.5c-2.4,5.5-3.5,11.5-3.1,17.5
			c0,0.9-0.7,1.5-1.5,1.5c-0.3,0-0.7-0.1-0.9-0.3c-5.9-5.2-18.3-6.7-26.5-3.3c-8.2,3.5-8.8,9.3-9.2,17.3c0,0.4-0.2,0.9-0.6,1.1
			c-0.3,0.3-0.8,0.4-1.2,0.3c-5.3-1.5-10.9-1.5-16.2,0c-5.3,1.7-7.9,5.9-7.2,8.8c0.2,0.8-0.3,1.6-1.1,1.8c-0.1,0-0.3,0-0.4,0
			c-4.5,0.1-8.8,2-12.2,5.1c-0.5,0.5-0.7,1.3-0.6,2c0.8,2.9,6.5,4.1,17.1,3.6c4.4-0.5,8.8-1.3,13.1-2.4c0.3-0.1,0.6-0.1,0.9,0
			c2,0.7,4.1,1.1,6.2,1c7.8-0.2,10.4-3.9,11.3-6C550.7,122.2,551.2,121.8,551.9,121.8L551.9,121.8z"/>
	</g>
</g>
<g id="freepik--character-2--inject-414">
	<g id="freepik--Character--inject-414">
		<path class="st9" d="M1519.9,719.8c22.5,3.6,58.6,2.2,98.3,9.2c13.1,2.3,27.4,16.3,33,24c5.4,7.7,9.5,16.2,12.1,25.2
			c0,0,9.3,15.5,12.4,13.8c3.1-1.7,13.8-14.9,18.2-28c4.4-13.1-1.5-22.8-16-38.1c-14.5-15.3-33.7-35.3-33.7-35.3
			c-2.1,0.9-4.4,1.4-6.6,1.5c-7.2,0.5-8.3,0.4-29-6.8c-28.8-10-39.9-15.4-50.7-15.4c0,0,49.4-33.1,65.4-43.6
			c20.1-13.3,48.1-34.8,46.5-60.9l-118.5,1.9c0,0-23.3,32.3-45.3,62.8c-24.2,33.5-36.9,51.4-25.4,71.3
			C1486.1,711.3,1500.4,716.7,1519.9,719.8z"/>
		<path class="st10" d="M1671.3,562.2c0.6,15.7,4.2,22.3-21.8,47.4s-87.3,59.3-87.3,59.3s3.6-1.1,21.4,5.5
			c17.8,6.6,27.2,9.4,27.2,9.4s2.5,21-1.9,29c-2.9,5.2-6.6,9.9-10.9,14c0,0-66.7-2.2-82.5-5.3c-15.8-3.1-35.4-9.7-40-22.7
			c-4.6-13.1-0.6-27.3,9.6-46.5c18.6-35.1,66.7-88.1,66.7-88.1L1671.3,562.2z"/>
		<path class="st11" d="M1571.3,670.4c-7.4-2-9.2-1.5-9.2-1.5c-13.5,7.6-23,12-23,12C1550.5,680.1,1561.6,676.5,1571.3,670.4z"/>
		<path class="st2" d="M1669.7,694.6c3.7,3.2,6.3,9.5,11.9,14.8c6.3,6.2,13.2,11.7,20.7,16.5l10.3,6.8l-1.9,2.7L1692,723
			c-5.7-3.8-16.2-7.6-18.7-5.3C1673.3,717.7,1660.6,707.8,1669.7,694.6z"/>
		<path class="st12" d="M1669.7,694.6c3.7,3.2,6.3,9.5,11.9,14.8c6.3,6.2,13.2,11.7,20.7,16.5l10.3,6.8l-1.9,2.7L1692,723
			c-5.7-3.8-16.2-7.6-18.7-5.3C1673.3,717.7,1660.6,707.8,1669.7,694.6z"/>
		<path class="st2" d="M1638,691.4c8.7-1.8,13.2-5.7,21.9-3c4.4,1.6,8.2,4.3,11.2,7.8c0.9,3,1.3,6.2,1.1,9.3
			c-0.2,6.4-1,7.8,2.5,13.2c3.5,5.4,4.2,6.8,13,13.8c7.4,5.4,11.6,13.9,11.3,22.9c-0.3,10.9-2.7,21.7-7.2,31.8
			c-6.3,15.8-19.2,20.9-22.3,12.3c-4.3-12.1-4.9-16.5-6.3-21.3c0,0,0.3-5,6.6-11.2c8.6-8.4,11.1-10.1,11.2-15.3
			c0.2-6.5-3.5-14.9-20.8-32.4C1641,699.7,1638,691.4,1638,691.4z"/>
		<path class="st9" d="M1714.8,773.6c-15-21.5-31.4-42-49-61.6c-10.5-12-14.7-16.8-26.1-44.5c-14.7-35.6-28.2-71.9-28.2-71.9
			c-11.4-3.9-22.5-8.5-33.4-13.6c-20.9-9.8-37.1-37.3-41.3-46.3c0,0,16.8,6.6,46-14.5c30-21.6,31.3-31,31.3-31
			c10.8,3.5,21.3,7.7,31.5,12.7c8.2,3.7,25.7,10,35.9,31.2c4.1,8.5,8.6,17.9,12.2,48.6c4.7,40,7.7,61,10.7,83.6
			c16.9,14.6,25.6,25.9,31.6,46.7c5,16.7,11.3,32.9,18.9,48.6c1.6,3.8,4.5,7,8.2,9c0,0,5,25.8,9.1,47.3s7.4,32.8-3.9,42
			c-11.3,9.2-41.8,18.3-45.5,18.1c-3.7-0.2,3.8-20.4,3.8-20.4c2.8-9.4,4-19.1,3.6-28.9C1729.6,818.9,1732.9,800.1,1714.8,773.6z"/>
		<path class="st13" d="M1615.8,488.8c19.9,6.7,42.6,13.6,58.3,29.3c15.7,15.7,18.5,32,21.6,56.7c3.1,24.7,10,89.3,10,89.3
			c7,6,13.3,12.6,18.7,20c7.7,10.7,17.7,48.9,17.7,48.9s-3.6,11-18,19.5s-20.5,6.7-20.5,6.7s-23.5-28.1-39.8-46.1
			c-16.3-18.1-17.6-23.8-26.3-43.6c-8.6-19.8-27.1-68.6-27.1-68.6s-36.5-13.9-47.4-24.5c-10.9-10.5-30.4-43.3-30.4-43.3
			L1615.8,488.8z"/>
		<path class="st2" d="M1783.6,790.9c1.2,4.9-0.5,11.8,1,19.7c1.5,9,3.9,17.8,7.2,26.3l4.6,11.9l-3.3,1.2l-8.4-21.7
			c-2.5-6.6-5.9-11.1-9.4-10.7C1775.4,817.8,1767.5,796.8,1783.6,790.9z"/>
		<path class="st12" d="M1783.6,790.9c1.2,4.9-0.5,11.8,1,19.7c1.5,9,3.9,17.8,7.2,26.3l4.6,11.9l-3.3,1.2l-8.4-21.7
			c-2.5-6.6-5.9-11.1-9.4-10.7C1775.4,817.8,1767.5,796.8,1783.6,790.9z"/>
		<path class="st2" d="M1760.7,768.1c4.2,4.8,13.5,6.6,19.3,14.1c2.4,3.2,3.7,7,3.8,10.9c-1.6,3.6-3,5.3-4.2,7.8
			c-2.5,4-3.9,8.6-4.1,13.3c-0.1,9.7,0.4,19.4,1.7,29c1.1,9.5,2.3,15.1-3.8,22.2c-4.8,5.5-22.2,14.3-35.2,16.9
			c-22.7,4.5-30,0-24.1-7.7c5.9-7.7,11.8-16.9,13.3-19c5.2-0.7,10.4-0.9,15.6-0.5c10.9,0.7,16,5,24.2-3.4c7.5-7.6,6.9-26.6-2.5-49.8
			C1753.8,775.3,1760.7,768.1,1760.7,768.1z"/>
		<g id="freepik--Top--inject-414">
			<path class="st14" d="M1282.2,502.9c-3,0.7-2.3,3.5,0.4,4.7c6.3,2.7,13.6-1.1,18.2-0.9c1.1,0.2,15.5,4.5,17.1,7.1
				c-3.4,0-14.2-0.5-17.6-0.2c-1,0-3.6,0.7-11.5,2.9c-1.4,0.2-2.8,0.7-4,1.4c-0.8,0.7-0.8,2.9,1.7,4c4.4,1.9,9.6-0.7,14.5-1
				c2.3-0.2,9.7-0.5,13.5,2.7c-6.8,1.1-10.6,3.1-19.5,8.2c-1,0.6-1,1.3-0.6,1.9c0.8,1.1,2,1.7,3.4,1.8c3.2,0,6.6-2.1,10.9-3.5
				c4.6-1.2,9.3-1.3,13.9-0.3c1.7,0.3,3.3,1,4.8,1.9c1.8,1.2,3.3,2.9,4.9,4.2c6.9,5.5,16.5,6.3,24.2,2.2c0.5-0.2,1-0.6,1.3-1.1
				c0.3-0.9,0.2-2-0.4-2.8c-4.5-8.5-12.7-14.5-19.8-21.1c-2.3-2.2-20.2-18.3-21-18.6c-0.3-0.2-24.2,4.2-24.9,4.4
				C1289.4,501.3,1285.2,502.3,1282.2,502.9z"/>
			<path class="st9" d="M1469.8,462.4c-4.8,6.4-43.1,56.2-43.1,56.2s-43.8-0.3-54.7-1.3c-15-1.4-22.6-8-29.4-13.7
				c-9.7-8.2-11.7-8-18.2-8.8c-4.1-0.6-13.9-2.9-14.2-3c-1.4-0.2-2.9,0-4.3,0.4c-0.8,0-3.9,0.8-4.7,0.9c-4.3,0.9-7,1.7-11.3,2.7
				c-1.3,0.2-2.7,0.6-3.9,1.1c-0.3,0.1-0.5,0.3-0.7,0.5c-0.2,0.5-0.1,1.1,0.4,1.5c1.7,2.1,4.3,3.3,7,3.4c2.7,0.1,5.5-0.1,8.2-0.7
				c1.7-0.2,2.5-0.5,5.9-1c1.3-0.1,2.7,0.1,3.9,0.6c6.2,2,12.1,4.7,17.6,8c-5.6,1.1-11.5,0.8-16.9-1.1c-5.1-1.8-6.2,4-0.3,8
				c6.7,4.5,12.7,2.8,21.5,9c8.7,6.2,5.7,17.6,20,19.2c7.9,0.4,15.7,1.2,23.4,2.7c11.5,2.3,48.6,13.2,57.2,14.3
				c18.7,2.4,19.2,1.6,43-26.9c33.5-40.2,38.9-48.3,38.9-48.3l-13.8-56.8C1490,437.2,1486.3,441,1469.8,462.4z"/>
			<path class="st13" d="M1488.5,438.7c-8.2,7.9-15.6,16.5-22.2,25.7c-19.3,24.9-40,53.3-40,53.3l-29,0.3c3.6,5,5.5,11,5.3,17.1
				c-0.2,6.9-4,13.3-10.1,16.9c0,0,14.1,3.9,30.7,8s22.7,3.6,26.9,2.4c4.2-1.2,7.8-6.1,15.4-14.7c7.6-8.6,40.1-49.7,40.1-49.7
				L1488.5,438.7z"/>
			<path class="st14" d="M1328,509.1c3.4-0.2,6.8,0.1,10.2,0.8c1.3,0.4-0.4-2.2-5.6-3.3c-5.3-1.1-8.4,0.7-9.9-0.2L1328,509.1z"/>
			<path class="st11" d="M1559.5,318.8c5.3,3.1,8.7,7.6,15.3,11.9c5.3,3.6,12.2,4.3,18.2,1.9c6.3-2.5,11-7.9,12.6-14.4
				c3.5,8.4,1.3,14.6-3.5,19.1c8.1-3.5,14-10.6,16-19c0.8-3.4,1-6.8,1.6-10.2c2.1-12,6.7-17,19.6-19.3c-7.2,3.6-9.7,9.5-9.5,17.4
				c0.2,7.9,3.2,18.4,1.9,26.2c-1.2,7.1-4.7,13.5-10.1,18.4c-5.8,5.5-13,9.3-20.8,11.2c6.2,1.6,12.4-0.4,18.3-2.9
				c-4,8.2-18,13.9-28.8,13.6c-13-0.3-23.7-10.1-31.6-20.3c-2.8-3.9-5.9-7.7-9.3-11.1c-3.5-3.4-8.1-5.5-13-5.9
				c-5.8-0.2-8.2,3.1-11.7,6.6c-3.5-1.9-8.5-4.4-8.7-7.7c-0.3-5.6,6.9-14,11.2-16.2C1537.3,312.8,1549.6,313,1559.5,318.8z"/>
			<path class="st2" d="M1520,321c1.4-2.1,9.9-2.9,16.1,1.8c6.3,4.7,11.2,12.4,6.2,18.2C1537.4,346.8,1510.7,329,1520,321z"/>
			<path class="st10" d="M1546.7,399.6c6.3-1,12.4-2.9,18.1-5.7c5.7,4.1,27.2,17.7,34.4,33.8c7.2,16.2,15.6,52.2,21,57.3
				c5.4,5.1,29.5,13.9,48.9,26.1c0,0-2.6,17-10.5,22.9c0,0-12.9-9.4-21.3-15.8c10,15.1,15.2,21.7,15.2,21.7s5.4,31.8-58.9,44.4
				c-18.4,3.4-37.4,1.4-54.6-5.7c0,0,6.5-26.2-6.4-39.7c-9.8-6.2-25.6-23.4-25.6-23.4s-20.3-9.7-23.3-25.7
				c-4.1-21.3,3-43.7,4.8-51.2c2.7-3.8,15.4-16,15.4-16L1546.7,399.6z"/>
			<path class="st2" d="M1539.6,403c2.2,8.4,0,11.7-4.1,25.4c-4.1,13.7-19.1,52.7-16,65.2c-6.4-8.8-15.1-20.7-18.1-33.2
				c-3-12.5-4.1-30.5,2.1-42.8l33.5-17.6L1539.6,403z"/>
			<g id="freepik--Head--inject-414">
				<g id="freepik--head--inject-414">
					<path class="st11" d="M1456.5,363.7c-15.9-20.9,1.8-47.9,39.7-49.8c10.6-0.5,32.8,2.7,35,17.3c14,3.6,19.7,20.1,12.1,39.8
						c-5.4,14.3-10.1,24-11.3,28.9L1456.5,363.7z"/>
					<path class="st9" d="M1537,364.9c-9.1-3.4-13.1,5.9-13.1,5.9c-5.6,3.8-9.5-7.4-10.9-10.7c-2.5-5.9-5-14.3-11.8-16.4
						c-5.1-1.6-10.7,0.5-15.1,3.4c-2.7,1.8-6,2.3-9.1,1.6c-2.7-0.6-3.9-4.8-6.4-6c-7.4-3.5-12.4,8.4-13.2,14c-1,7.5-1.2,15-0.6,22.6
						c1.7,25.2,11.7,36.3,16.1,38.5c6.9,3.5,11.5,3,20.2,1.9l9.3,12.7c2.1,11.1,6.2,21.7,12.2,31.4c5.3-16.3,20.7-36.1,24.8-56.8
						l-11.4-16.4c4,2.9,10,0.6,12.6-3.4C1545.9,379.1,1545.7,368.2,1537,364.9z"/>
					<path class="st15" d="M1492.7,394.2l-11.8,4.2c1,3.2,4.5,5,7.8,4c0.1,0,0.1,0,0.2-0.1C1492.1,401,1493.8,397.5,1492.7,394.2z"
						/>
					<path class="st16" d="M1492,396.9c-3.3,0.1-6.1,2.4-6.7,5.5c1.2,0.3,2.4,0.2,3.5-0.2c2.3-0.9,3.9-2.9,4.2-5.3
						C1492.6,397,1492.3,396.9,1492,396.9z"/>
					<path class="st14" d="M1493,419.7c8.2-1.6,29.2-10.5,32.1-29.3c0.5,8.6-2.8,17-9,23.1c-5.7,5-12.6,8.5-20.1,10.3L1493,419.7z"
						/>
				</g>
				<path class="st11" d="M1461.6,360.7l8.4-3c-0.8-2.2-3.2-3.4-5.5-2.7c0,0-0.1,0-0.1,0C1462.1,355.9,1460.9,358.4,1461.6,360.7z"
					/>
				<path class="st11" d="M1501.9,361.1l-8.6-2.5c0.5-2.3,2.8-3.7,5.1-3.2c0.1,0,0.2,0.1,0.3,0.1
					C1501.1,356.3,1502.5,358.8,1501.9,361.1z"/>
				<path class="st11" d="M1462.8,373c0,2,1.7,3.6,3.7,3.5c2,0,3.6-1.6,3.6-3.6c0-1.9-1.6-3.5-3.5-3.5
					C1464.5,369.4,1462.8,371,1462.8,373C1462.8,373,1462.8,373,1462.8,373z"/>
				<path class="st11" d="M1490.3,373.8c-0.1,2,1.4,3.7,3.4,3.8c0,0,0,0,0.1,0c2,0,3.7-1.6,3.8-3.6c0.2-2-1.2-3.7-3.2-3.9
					c-2-0.2-3.8,1.2-4,3.2C1490.3,373.4,1490.3,373.6,1490.3,373.8L1490.3,373.8z"/>
				<path class="st10" d="M1446.4,365.3c0.3,1.4,1,2.6,1.9,3.7c0.3,0.4,0.6,0.8,0.8,1.3c0.7,3.4,1.7,6.7,3,9.9
					c2,4.4,6.5,7.2,11.4,7.1c1.2,0.1,2.5,0,3.7-0.3h0.3c1-0.2,2-0.6,2.9-1.1h0.2l0.2-0.2l0.3-0.2l0.3-0.2l0.3-0.3l0.3-0.3
					c0.2-0.2,0.4-0.4,0.5-0.6c1-1.1,1.7-2.4,2.2-3.7c1.4-3.4,0.6-8.3,3.2-8.8h0.3h0.3c3.5,0,3.5,5.3,5.7,9.1
					c2.6,4.8,7.8,7.6,13.4,7.3h1h0.8c0.6,0,1.2-0.1,1.8-0.2h0.6l0.5-0.2h0.4c0.7-0.2,1.4-0.5,2-0.9l0.7-0.5c0.4-0.3,0.8-0.6,1.1-1
					c0.9-1,1.6-2.2,2.1-3.5c0.8-3.2,1.2-6.5,1.4-9.8c0.1-0.5,0.3-1,0.5-1.4c0.9-1,1.4-2.2,1.5-3.5c0-1.4-1-2.7-2.3-3.1l-1.9-0.3
					c-6.2-1-12.4-1-18.6,0c-5.8,1.5-7.7,3.3-11,3.3c-3.3-0.1-5.2-2-10.9-3.9c-5.7-1.3-11.6-1.6-17.5-1c-0.6,0-1.1,0.1-1.7,0.2
					C1447.2,362.3,1446.2,363.7,1446.4,365.3z M1485.5,369.2c0.4-0.5,1-1,1.6-1.3l0.3-0.2h0.2l0.8-0.4l0.7-0.3
					c0.8-0.3,1.6-0.5,2.5-0.7l1-0.2c0.8-0.2,1.7-0.3,2.6-0.4h0.6c3.7-0.6,7.5,0.2,10.6,2.1c1.4,1.2,1.1,6.3,0.7,8.9v0.2
					c0,0,0,0,0,0.2l-0.2,1l-0.2,0.7l0,0c0,0.3-0.2,0.7-0.3,1.1l0,0c-0.1,0.1-0.1,0.2-0.1,0.3v0.2c0,0.1,0,0.2,0,0.2l-0.1,0.3
					l-0.2,0.3l-0.2,0.4c-0.1,0.1-0.1,0.3-0.2,0.4c-1.8,2.5-4.9,3.8-8,3.4c-3.2,0.1-6.3-1-8.6-3.2l0,0c-1.5-1.5-2.5-3.3-3.1-5.3
					C1485.1,374.2,1484.5,370.7,1485.5,369.2z M1451.9,366.2c0.4-0.4,0.8-0.6,1.3-0.9l0,0l0.6-0.2h0.4h0.3h0.2l0,0h0.3l1.3-0.2h0.7
					h2.5c0.9,0,1.8,0.1,2.7,0.2c3.6,0.4,6.9,1.8,9.6,4.1c1.1,2.5,1.4,5.3,0.8,8c-0.1,0.7-0.2,1.3-0.4,1.9v0.1c0,0.1,0,0.1,0,0.2
					c0,0,0,0.1,0,0.1v0.2l-0.2,0.5l-0.2,0.4v0.2l-0.1,0.3l-0.1,0.2l0,0c-1.7,2.7-4.9,4.2-8.2,3.7c-1.5,0-3-0.4-4.3-1
					c-3.1-1.9-5.3-4.9-6.1-8.5C1451.9,372.5,1450.7,367.3,1451.9,366.2z"/>
				<path class="st10" d="M1510.1,364.2l17.3,2.1c-1.3,1.1-2.4,2.4-3.2,3.9l-14.1-1.7L1510.1,364.2z"/>
				<path class="st14" d="M1480.1,371.8l-1.3,20.6l-12.6-3.7l12.6-17.4C1479.3,371.5,1479.7,371.6,1480.1,371.8z"/>
				<path class="st17" d="M1528.6,385.9c0.1,1.8,1.6,3.2,3.4,3.1c1.8-0.1,3.2-1.6,3.2-3.3c-0.1-1.8-1.6-3.2-3.4-3.1c0,0,0,0,0,0
					C1529.9,382.7,1528.5,384.1,1528.6,385.9z"/>
			</g>
			<path class="st11" d="M1532.6,397.5l2.4,3.4c-0.8,11.3-2.8,22.4-6.1,33.3c-6.3,20.9-12.3,37.3-11.4,49.3
				c0.9,8.6,2.7,17.1,5.4,25.3c-2.3-13-0.3-26.3,5.6-38.2c6-12.3,18.8-25.5,19.4-31.8c0.6-6.3-8.2-9.6-8.2-9.6
				c4.6-4.3,8.6-9.2,11.9-14.5c3.8-6.9-0.5-16-0.5-16C1540.9,399.2,1535.8,396.1,1532.6,397.5z"/>
			<path class="st11" d="M1502.3,432.5c-0.7,7.2-0.1,14.4,1.7,21.4c3.9,14.1,17.3,44,17.3,44s-13.3-18.2-19.4-25.7
				c-6.1-7.5-10.3-13.5-5.2-26.6c-4.2-2.8-4-3.2-4.3-11.5c-0.2-4.6,0.1-9.1,1.1-13.6L1502.3,432.5z"/>
			<g id="freepik--Briefcase--inject-414">
				<path class="st10" d="M1875.7,589.1l-64.8-89.2c-1.7-1.8-4.1-2.9-6.6-3h-3.8c-1-0.1-2,0.2-2.7,0.9l0,0l-90.2,99.8l78,93.2
					l90.2-99.8l0,0C1876.3,590.5,1876.3,589.7,1875.7,589.1z"/>
				<path class="st11" d="M1764.1,691.2l19.1,0.4c2.5,0,3.6-1.2,2.4-2.8l-64.6-89.1c-1.7-1.8-4.1-2.9-6.6-3h-3.8
					c-2.5,0-3.7,1.3-2.7,3l50.3,88.4C1759.5,690,1761.7,691.1,1764.1,691.2z"/>
				<path class="st2" d="M1806.7,655.7c-0.7,0.3-1.4,0.1-1.9-0.4l-31.2-42.1c-0.3-0.5-0.1-1.1,0.4-1.4c0.1-0.1,0.2-0.1,0.3-0.1
					c0.7-0.3,1.5-0.2,2,0.3l31.2,42.1C1807.9,654.7,1807.4,655.4,1806.7,655.7L1806.7,655.7z"/>
				<path class="st2" d="M1848,610.9c-0.7,0.3-1.5,0.1-2-0.4l-31.2-42.1c-0.4-0.5,0-1.3,0.6-1.6c0.7-0.3,1.5-0.2,2,0.4l31.2,42.1
					c0.3,0.5,0.1,1.1-0.4,1.4C1848.3,610.8,1848.2,610.8,1848,610.9L1848,610.9z"/>
				<path class="st13" d="M1761.8,637.7c-3.5,3.8-10.9,3.8-13.6,0l-27.2-38c-1.7-1.8-4.1-2.9-6.6-3h-3.8c-1-0.1-2,0.1-2.7,0.7
					l90-99.5l0,0c0.7-0.7,1.7-1,2.7-0.9h3.8c2.5,0.1,4.9,1.2,6.6,3l27.1,37.6c3.8,5.4,3.2,12.8-1.6,17.4L1761.8,637.7z"/>
				<polygon class="st2" points="1792.3,598.5 1803,586.6 1807.2,592.3 1796.5,604.1 				"/>
			</g>
			<path class="st10" d="M1767.2,531.9c-7.5-7.6-19.1-20-22.4-18.9l0.3-4.8c0,0,3-1.6,10.4,4.8c6,5.3,15.5,14.7,15.5,14.7
				L1767.2,531.9z"/>
			<path class="st14" d="M1734.6,544.8c-4.3,0.4-8.6-0.9-11.9-3.6c-1.9-3-2.8-6.6-2.5-10.1c0.8-2.4,4.7-12.5,7.3-12.8
				s10.2,10.5,10.1,15.8C1737.4,537.8,1736.3,541.5,1734.6,544.8z"/>
			<path class="st9" d="M1755.7,517.9c-1.3-6.1-3-12.1-5.2-17.9c-2.1-5.1-4.6-10-7.5-14.7c-6.5-11.9-24.5-48.2-36.4-65.8l-25.6,32.7
				c0,0,31.3,35.3,35.4,41.6c2.4,3.7,0,10.4-0.3,14.7c-0.1,4.1,0.3,8.1,1.2,12.1c0.8,4.3,1.2,8.7,1.2,13.1c0,0.5,0,1.1,0.2,1.6
				c0.7,1.3,2.3,1.7,3.6,1.1c1.2-0.7,2.2-1.7,2.7-3c1.3-3,2.1-6.3,2.2-9.6c0-0.5,0.1-1,0.6-1.3c0.4-0.1,0.9,0,1.2,0.3
				c0.9,1,1.7,2.1,2.3,3.3c1.2,3.1,1.7,6.5,1.4,9.9c0.3,3.6-1.6,6.9-4.9,8.5c0.6,0.2,2.4,0.9,3.1,1c1.1,0.3,2.3,0.4,3.5,0.4
				c2.2-0.1,4.2-1.1,5.7-2.7c2.1-1.9,2.9-5,5.3-6.6c0.7-0.4,1.4-0.7,2.1-1c1.6-0.7,2.8-2,3.5-3.6c0.2-1.5,0.6-2.9,1.2-4.2
				c0.5-0.6,1-1.2,1.6-1.7C1755.8,523.8,1756.5,520.7,1755.7,517.9z"/>
			<path class="st10" d="M1723.8,529.2c-1.2,4.7,0.9,12.1,4.4,17.1c3.5,5.1,12,15.3,12,15.3l3.8-4.2c0,0-2.9-3.7-9-11.5
				c-5.6-7.2-6.2-12.2-6-14.6c0.2-2,1-3.8,2.3-5.3c0,0-1.3-4.4-3.2-3.8C1726.2,523.3,1725,524.5,1723.8,529.2z"/>
			<path class="st13" d="M1564.8,393.9c9.7-4.4,12.8-5.6,39.1-1.5s59.3,10.7,80.6,16s21.6,7.7,29.3,21.3
				c6.6,11.9,11.4,21.3,11.4,21.3s-1.6,5.3-13.6,12.2c-11.1,6.4-16.9,4.2-16.9,4.2l-15.2-15.4c0,0-68.1-7.3-80.4-8.8
				C1586.8,441.9,1562.5,433.1,1564.8,393.9z"/>
		</g>
	</g>
</g>
<g id="freepik--character-1--inject-414">
	<g id="freepik--character--inject-414">
		<g id="freepik--Bottom--inject-414">
			<g id="freepik--Leg--inject-414">
				<polygon points="123.1,814 137.8,817.5 139.3,806.9 127.6,808.8 				"/>
				<path class="st11" d="M125.1,784.3c0,0-5.5,7.5-7.3,9.8c-1.8,2.4,3.5,16.9,5.2,19.9l4.4-5.2c0.5,4.4,0.4,8.9-0.2,13.3
					c-0.3,4.8-2.2,13.1,0.3,21.3c3.7,12.2,14,24.1,26.5,33.3c12.5,9.2,22,11,27.5,10.7c5.5-0.3,8.8-2.8,10.1-6.8
					S125.1,784.3,125.1,784.3z"/>
				<path class="st13" d="M176.9,781.1l3.4-4.3c2.4,1.6-1.9,8.2-2.2,16.2c-0.7,12,0.2,24,2.6,35.7c5.1,20.9,11.7,36.3,13.9,45.7
					c3,12.5-18.2,14.8-38.4-0.7c-10-7.6-24.9-25.5-26-35.3c-1.1-9.8,2.1-21.6,1-29c-1.2-7.4-7.1-18-6-25.1c0.5-4,4.9-9.5,10.8-13.8
					c5.8-4.3,10.2-11.4,13.7-6.7l-1.2,2.5c-0.4,3.2-0.3,5.7,7.1,12.9C159.2,782.7,170.3,789.5,176.9,781.1z"/>
				<path class="st18" d="M160.9,781.9c4.2,2.4,9.4,4,13.5,1.5c0,0,0,0,0.2,0c-2.5,2.8-3.7,6.7-3,10.5c0.8,7,3.8,54.4,3.8,54.4
					s-4.9-40.8-5.9-48.6C167.9,788.3,166.5,786.1,160.9,781.9L160.9,781.9z"/>
				<path class="st18" d="M160.8,793.8c-0.5,0.7-1.5,0.8-2.2,0.2c0,0,0,0,0,0c-0.6-0.6-0.7-1.5-0.2-2.2c0.5-0.7,1.5-0.8,2.2-0.2
					c0,0,0,0,0,0C161.2,792.1,161.3,793.1,160.8,793.8z"/>
				<path class="st18" d="M162.3,804.9c-0.5,0.7-1.5,0.7-2.2,0.2c-0.7-0.6-0.7-1.5-0.2-2.2c0.5-0.7,1.5-0.7,2.2-0.2
					C162.7,803.2,162.8,804.2,162.3,804.9C162.3,804.9,162.3,804.9,162.3,804.9z"/>
				<path class="st18" d="M163.9,816c-0.5,0.7-1.5,0.7-2.2,0.2c-0.7-0.6-0.7-1.5-0.2-2.2c0.5-0.7,1.5-0.7,2.2-0.2
					C164.3,814.4,164.4,815.4,163.9,816C163.9,816,163.9,816,163.9,816z"/>
				<path class="st18" d="M165.4,827.2c-0.5,0.7-1.5,0.8-2.2,0.2c0,0,0,0,0,0c-0.6-0.6-0.7-1.5-0.2-2.2c0.5-0.7,1.5-0.8,2.2-0.2
					c0,0,0,0,0,0C165.9,825.5,166,826.5,165.4,827.2z"/>
				<path class="st18" d="M167,838.3c-0.5,0.7-1.5,0.7-2.1,0.2c0,0,0,0,0,0c-0.7-0.6-0.7-1.5-0.2-2.2c0.5-0.7,1.5-0.8,2.2-0.2
					C167.5,836.7,167.6,837.6,167,838.3z"/>
				<path class="st11" d="M159.1,793.3c-0.1-0.1-0.2-0.2-0.2-0.4c-0.1-0.3,0.2-0.7,0.5-0.7c6.4-1.1,12.9,0.4,18.3,4l0,0
					c0.2,0.2,0.2,0.6,0,0.9c-0.2,0.2-0.6,0.2-0.9,0c-5.1-3.4-11.3-4.7-17.3-3.8C159.3,793.3,159.2,793.3,159.1,793.3z"/>
				<path class="st11" d="M160.8,804.4c-0.1-0.1-0.2-0.2-0.2-0.4c-0.1-0.3,0.2-0.7,0.5-0.7c6.4-1.1,12.9,0.4,18.3,4l0,0
					c0.2,0.2,0.2,0.6,0,0.9c-0.2,0.2-0.6,0.2-0.9,0c-5.1-3.4-11.3-4.7-17.3-3.8C161,804.4,160.9,804.4,160.8,804.4z"/>
				<path class="st11" d="M162.3,815.5c-0.1-0.1-0.2-0.2-0.2-0.4c-0.1-0.3,0.2-0.7,0.5-0.7c6.4-1.1,12.9,0.4,18.3,4l0,0
					c0.2,0.2,0.2,0.6,0,0.9c-0.2,0.2-0.6,0.3-0.8,0c0,0,0,0,0,0c-5.1-3.4-11.3-4.8-17.3-3.8C162.6,815.6,162.4,815.6,162.3,815.5z"
					/>
				<path class="st11" d="M163.9,826.7c-0.1-0.1-0.2-0.2-0.2-0.4c-0.1-0.3,0.2-0.7,0.5-0.7c6.4-1.1,12.9,0.4,18.3,4l0,0
					c0.2,0.3,0.2,0.6,0,0.9c-0.2,0.2-0.6,0.2-0.9,0c-5.1-3.4-11.3-4.8-17.3-3.8C164.1,826.7,164,826.7,163.9,826.7z"/>
				<path class="st11" d="M165.5,837.8c-0.1-0.1-0.2-0.2-0.2-0.4c-0.1-0.3,0.1-0.6,0.4-0.7c0,0,0.1,0,0.1,0c6.4-1.1,12.9,0.4,18.3,4
					l0,0c0.2,0.3,0.2,0.6,0,0.9c-0.2,0.2-0.6,0.2-0.9,0c-5.1-3.4-11.3-4.8-17.3-3.8C165.8,837.8,165.6,837.8,165.5,837.8z"/>
				<path class="st11" d="M313.2,649.7c-18.5,27.9-22.4,32.9-43.3,55.1c-15,15.9-88.8,97.4-88.8,97.4c-36.2,2.8-36.8-42.7-36.8-42.7
					s32.8-48.6,41-64.2c8.4-16.2,23.5-39.4,42.3-51.8c10.2-6,14-24.9,18.4-43.7c4.4-18.8,17.2-74.4,17.2-74.4l114.4,40.9
					L313.2,649.7z"/>
			</g>
			<g id="freepik--leg--inject-414">
				<path class="st11" d="M210,648.8c-8-4-12.7-4.7-15.9-3.5c-3.2,1.1-15.2,11.2-15.7,23l2.7,4.9c-1.7,2.3-3.9,4.2-6.4,5.6
					c-4.2,2.3-13,4.5-20.3,15c-7.3,10.5-9.5,17-11.4,29.5c-1.9,12.5-1,28.9,7.2,31.5L210,648.8z"/>
				<path class="st13" d="M233.5,665.7c-0.4-2.8-2.4-3.7-4.8-5.9c-2.5-2.2-9.2-10.1-18.7-11.2c-11.3,1.9-18.4,9.8-24.3,22.7
					c-5.9,12.9-15.7,9.3-25.4,20.9c-8.2,9-13.3,20.6-14.5,32.8c-1.9,14.7-0.6,31.5,10,31.5c9.2,0,13.3-6.9,30-24.9
					c7.4-8.5,16.4-15.5,26.3-20.7c7.9-3.5,10.8-3.1,10.8-3.1L233.5,665.7z"/>
				<path class="st18" d="M175.5,738c0,0,7.5-11.5,32.3-29.9c4.7-3.5,8.8-7.8,12.1-12.7l0.7,11.4c0,0-5.8,0-14.7,5.6
					C194.9,719.9,184.7,728.4,175.5,738z"/>
				<path class="st10" d="M398.6,726.9c3.7-19.9-3.9-43.6-9.9-66.2c-7.8-28.6-17.5-56.5-29-83.7c0,0-78.1-98.3-101.8-60.3
					c-22.3,35.9-5.9,80.7,2.3,92.9c8.7,12.9,35.9,45.8,51.4,64.9c-12-5.8-18.4-6.7-39.9-8.4c-25.8-1.9-34.5-3-34.5-3
					c-11.7-1.1-27.6,27.3-17.6,50.2c0,0,97.3,34.2,118,40.2C364.6,761.6,393.4,754.6,398.6,726.9z"/>
				<path class="st11" d="M271.7,666.2l-4.8-0.4c12.6,1.9,24.8,5.7,36.2,11.3c11,5.3,17.2,9,17.2,9l-8.8-11.6
					C299.6,668.7,293.2,667.8,271.7,666.2z"/>
				<path class="st18" d="M172.7,728.1c0.3-0.8-0.1-1.7-0.9-2c0,0,0,0,0,0c-0.8-0.2-1.7,0.3-1.9,1.1c-0.2,0.7,0.2,1.5,0.8,1.8
					C171.5,729.3,172.4,728.9,172.7,728.1C172.7,728.1,172.7,728.1,172.7,728.1z"/>
				<path class="st18" d="M179.6,720.1c0.3-0.8-0.1-1.7-0.9-2c0,0,0,0,0,0c-0.8-0.3-1.7,0.1-2,0.9c-0.3,0.8,0.1,1.7,0.9,2
					c0,0,0,0,0,0C178.5,721.3,179.3,720.9,179.6,720.1C179.6,720.1,179.6,720.1,179.6,720.1z"/>
				<path class="st18" d="M187.7,713.1c0.1-0.9-0.6-1.6-1.4-1.7c-0.5,0-1,0.2-1.3,0.6c-0.3,0.8,0.1,1.7,0.9,2
					C186.7,714.2,187.5,713.8,187.7,713.1z"/>
				<path class="st18" d="M197.9,706.1c0.3-0.8,0-1.7-0.8-2.1c-0.8-0.2-1.7,0.3-1.9,1.1c-0.2,0.6,0.1,1.3,0.6,1.7
					C196.6,707.2,197.5,706.9,197.9,706.1z"/>
				<path class="st18" d="M207.8,700.6c0.4-0.8,0.1-1.7-0.6-2.1c-0.7-0.4-1.7-0.1-2.1,0.6c-0.4,0.7-0.1,1.7,0.6,2.1
					C206.5,701.6,207.4,701.3,207.8,700.6z"/>
				<path class="st11" d="M171.5,727c-0.1-0.1-0.3-0.1-0.4,0c-0.3,0.1-0.5,0.5-0.4,0.8c0,0,0,0,0,0c0,0.4,0.9,7.1,9.9,11l0,0
					c0.3,0.1,0.7,0,0.8-0.3c0,0,0,0,0,0c0.1-0.3,0-0.7-0.3-0.8c-8.4-3.5-9.2-10.1-9.2-10.2C171.7,727.2,171.6,727.1,171.5,727z"/>
				<path class="st11" d="M178.4,719c-0.1,0-0.3,0-0.4,0c-0.3,0.1-0.5,0.5-0.4,0.8c0,0.4,1,7.1,9.9,11l0,0c0.3,0.1,0.7,0,0.8-0.3
					c0,0,0,0,0,0c0.1-0.3,0-0.7-0.3-0.8c-8.4-3.6-9.1-10.1-9.2-10.2C178.7,719.2,178.6,719.1,178.4,719z"/>
				<path class="st11" d="M186.5,711.9c-0.1,0-0.3,0-0.4,0c-0.3,0.1-0.5,0.5-0.4,0.8c0,0,0,0,0,0c0,0.4,0.9,7.1,9.9,11l0,0
					c0.3,0.1,0.7,0,0.8-0.3c0,0,0,0,0,0c0.1-0.3,0-0.7-0.3-0.8c-8.4-3.7-9.2-10.1-9.2-10.2C186.8,712.2,186.7,712,186.5,711.9z"/>
				<path class="st11" d="M196.7,704.9c-0.1-0.1-0.3-0.1-0.4,0c-0.3,0.1-0.5,0.4-0.4,0.7c0,0,0,0,0,0c0,0.4,0.4,7.2,9.1,11.7l0,0
					c0.3,0.1,0.7,0,0.8-0.3c0.1-0.3,0-0.7-0.3-0.9c-8.2-4.2-8.5-10.7-8.5-10.9C197,705.2,196.9,705,196.7,704.9z"/>
				<path class="st11" d="M206.8,699.3c-0.1-0.1-0.3-0.1-0.4,0c-0.3,0.1-0.6,0.4-0.5,0.7c0,0.4-0.2,7.2,8.1,12.4l0,0
					c0.3,0.1,0.7,0,0.8-0.4c0.1-0.3,0-0.5-0.2-0.7c-7.7-4.9-7.5-11.5-7.5-11.6C207.1,699.6,207,699.4,206.8,699.3z"/>
			</g>
		</g>
		<g id="freepik--Arm--inject-414">
			<path class="st16" d="M631.5,460.5c3.1-0.1,3.2,2.8,1,4.8c-5.3,4.5-13.5,2.8-17.8,4.3c-1,0.5-13.7,8.8-14.4,11.9
				c3.3-0.9,13.7-4.5,16.9-5.2c1-0.2,3.7-0.3,11.9-0.4c1.4-0.2,2.9,0,4.3,0.3c0.9,0.4,1.6,2.8-0.5,4.4c-3.8,3.2-9.5,2-14.2,3.1
				c-2.3,0.4-9.6,2.3-12.3,6.4c6.9-0.8,11,0,21.1,2.8c1.2,0.3,1.3,1,1.1,1.8c-0.4,1.3-1.4,2.4-2.7,2.8c-3.1,1-7-0.3-11.6-0.4
				c-4.7,0.1-9.4,1.4-13.5,3.7c-1.6,0.8-2.9,1.9-4,3.3c-1.3,1.8-2.5,3.7-3.5,5.6c-5.1,7.4-14.1,11-22.8,9c-0.6-0.1-1.1-0.4-1.5-0.7
				c-0.5-0.8-0.7-1.9-0.4-2.8c1.9-9.8,8.2-18.1,13.1-26.8c1.6-2.8,14.3-24,14.9-24.7c0.6-0.7,24.7-2.8,25.3-2.8
				C624.1,461,628.5,460.8,631.5,460.5z"/>
			<path class="st19" d="M627,455.9c-0.2-0.2-0.5-0.3-0.8-0.3c-1.4-0.1-2.7-0.1-4.1,0c-4.4,0.3-7.2,0.3-11.7,0.6l-4.7,0.4
				c-1.5,0-2.9,0.3-4.2,0.9c-0.3,0.2-9.1,5.3-12.8,7c-6.1,2.8-8.1,3.1-15.1,14c-4.9,7.6-10.4,16.4-24.5,22
				c-10.2,4.1-59.4,19.7-59.4,19.7l-8.4,48.9c4.1,0,8.2-1.7,14.5-4.5c7.9-3.5,47.5-27.8,58-33.5c7.1-3.7,14.4-6.8,22-9.4
				c13.3-5.8,7.2-16.3,13.7-25s13-8.7,18.1-15.1c4.5-5.6,1.8-11.2-2.6-7.9c-4.7,3.4-10.2,5.5-16,5.9c4.4-4.8,9.4-9.1,14.7-12.9
				c1-0.9,2.3-1.5,3.7-1.8c3.3-0.4,4.3-0.4,5.9-0.6c2.7-0.2,5.4-0.7,7.9-1.6c2.6-0.9,4.7-2.8,5.8-5.4
				C627.3,457,627.5,456.3,627,455.9z"/>
			<path class="st16" d="M589,479.7c-3.3,0.8-6.5,2-9.6,3.6c-1.1,0.7-0.3-2.3,4.4-4.9s8.2-1.7,9.5-3L589,479.7z"/>
			<path class="st10" d="M418.8,416.5c14.2,4.2,20.1,6.9,28.9,19.7c8.7,12.8,42.1,81.1,42.1,81.1l50.6-13.6c0,0-5.7,4.4-5.5,16.4
				c0.5,14,5.9,19.1,5.9,19.1s-40.8,27.1-61.5,33.2c-14.1,4.1-22-2.5-29.6-14.1c-7.7-11.6-34.5-61.4-34.5-61.4L418.8,416.5z"/>
			<path class="st11" d="M489.7,517.3c-6.5,0.8-21.2,5.3-30.2,16.7c0-7.3,14.6-21.7,27.2-22.7L489.7,517.3z"/>
		</g>
		<g id="freepik--top--inject-414">
			<g id="freepik--Chest--inject-414">
				<path class="st13" d="M407.5,523.8c9.1-12.3,20.3-26.5,26.2-36.1c6.8-11.2,9.9-21,9.9-37.5c0-11.8-1-19.4-7.3-26.7
					c-4.3-5-9.1-9.5-26.2-20.7c-22.7-15-39.1-20.6-48.8-25.4c-5.7,2.3-20,9.3-20,9.3c-11,6.9-17.7,7.3-36.8,39.6
					c-10.8,18.2-21.1,40.4-32.9,63c-5.5,10.3-10.5,18.8-17.9,30.3c19.7,59,99,75,124,49.9C383.3,557.3,393.2,543.1,407.5,523.8z"/>
			</g>
			<g id="freepik--head--inject-414_00000179641753520295502120000017934306864621362877_">
				<path class="st11" d="M390.9,384.1c0.3-9.6-10.6-27.2-10.7-48.3c0-19.3,8.2-30,20.9-31c4.5-14.3,27-16.2,40.8-10.9
					c12.1,4,28.5,10.9,39.7,1.9c1.3,6.6-1,13.4-6.1,17.6c4.1,0,7.3-2.8,11.3-4.7c1,9.3-5.7,16.7-11.3,20.1c6.5,6.7,1.2,24.8-11.9,24
					C438.8,351.2,413.9,374.8,390.9,384.1z"/>
				<path class="st19" d="M419.7,425.8l11.6-17.1L399,372L384.3,394c1.8,26.5,20.8,38.5,24.7,47
					C413.9,438.6,420.3,433.3,419.7,425.8z"/>
				<path class="st16" d="M399.9,373.3c-1.5,6.9-1.1,14.1,1.3,20.7c1.7,5.1,6.2,14,26,20.9l4.2-6.1c-4.7-1.4-9.3-3.3-13.7-5.6
					c-3.3-1.7-6.3-4-8.8-6.9C402.5,388.6,400.8,376.2,399.9,373.3z"/>
				<path class="st19" d="M466,327.1c-1.9,1.2-3.9,2.2-6,3c-4.2,1.5-8.6,2.4-13,2.5c-9.4,0.2-18.7-1.2-27.6-4.2
					c0.5,7.7-5.7,14.1-8.2,16.1c-1.2,15.6-7.6,14-7.4,12.1c0.2-2.6-0.1-5.2-0.7-7.8c-1.6-5.2-6.9-8.3-12.2-7.1
					c-3.6,1-6.5,3.8-7.7,7.4c-2.2,5.2-2.3,11.2-0.3,16.5c1.2,4.5,4.4,8.2,8.6,10.1c7.2,2.8,8.5-2.4,8.5-2.4
					c0.9,6.3,1.6,13.2,5.5,19.4c4.2,6.7,10.6,11.7,18.1,14c8.2,3,17,3.8,25.6,2.3c5.5-1.5,16.5-4.9,20.4-37.5
					C472.3,347.6,468.6,332.6,466,327.1z"/>
				<path class="st11" d="M433.5,357.4c-0.2,2.3-2.3,3.9-4.5,3.6s-3.8-2.3-3.6-4.6c0.2-2.2,2.1-3.8,4.3-3.7
					C432,353.1,433.7,355.1,433.5,357.4z"/>
				<path class="st15" d="M440.2,386.3c-0.2,1.8-1.8,3.1-3.5,2.9c-1.7-0.2-3-1.8-2.8-3.6c0.2-1.7,1.7-3,3.4-2.9
					C439,382.8,440.3,384.4,440.2,386.3z"/>
				<path class="st11" d="M434.3,344.3l-9.8-1.7c0.6-2.8,3.2-4.7,6-4.2c2.7,0.5,4.4,3.1,3.9,5.8
					C434.3,344.2,434.3,344.2,434.3,344.3z"/>
				<path class="st11" d="M464.5,344.8l-9.9,1.5c-0.5-2.7,1.2-5.3,3.8-5.8c0.1,0,0.2,0,0.3,0C461.4,340.1,464,342,464.5,344.8z"/>
				<path class="st11" d="M464.5,357.4c-0.2,2.3-2.3,3.9-4.5,3.6c-2.2-0.3-3.8-2.3-3.6-4.6c0.2-2.2,2.1-3.8,4.3-3.7
					C463,353.1,464.6,355.1,464.5,357.4z"/>
				<path class="st16" d="M443.5,354.3l2,22.5l14-3.9c-1.9-7.8-6.2-14.9-12.3-20C442.9,350.6,443.5,354.3,443.5,354.3z"/>
			</g>
			<g id="freepik--briefcase--inject-414">
				<path class="st10" d="M211.3,555.8l-35.7,92.8c-1.7,4.5-5.8,5.9-10.5,6.6l-11.8,1.8c-2.8,0.7-5.7,0.2-8-1.5
					c-1.6-1.2-3.1-2.6-4.3-4.2c0,0,0,0-0.2-0.2l-0.4-0.5l-75.8-96.5c-5.6-7-7-16.6-3.8-25l32.4-84.4c0.9-2.1,2.8-3.6,5-4.1l20.1-3.1
					c2.2-0.2,4.4,0.6,5.9,2.3l86.2,109.4c0.7,0.9,1.1,2,1.3,3.1C211.8,553.6,211.7,554.7,211.3,555.8z"/>
				<path class="st11" d="M211.3,555.8l-35.7,92.8c-1.7,4.5-5.8,5.9-10.5,6.6l-11.8,1.8c-2.8,0.7-5.7,0.2-8-1.5
					c-1.6-1.2-3.1-2.6-4.3-4.2l0,0c3.1,3.3,6.9,2.5,8.7-2.1l33.6-87.4c0.6-1.6,0.7-3.3,0.4-5l27.9-4.4
					C211.8,553.6,211.7,554.7,211.3,555.8z"/>
				<path class="st13" d="M183.3,561.8c1-3.3,0.5-6.9-1.5-9.7l-81.4-103.4c-3.2-4.1-7.4-3.4-9.3,1.4l-30.2,79.1
					c-3.3,8.4-1.8,17.9,3.8,25l76,96.5c3.2,4.1,7.4,3.4,9.3-1.5L183.3,561.8z"/>
				<path class="st2" d="M111.7,438.6l86.1,110.3c2.5,3.2,3.1,7.4,1.6,11.2l-36.6,95.5l-2.1,0.4l37-96.4c1.2-3.2,0.7-6.7-1.4-9.4
					L109.6,439L111.7,438.6z"/>
				<path class="st20" d="M200.1,554.2c0.3,2,0.1,4-0.6,5.8l-36.6,95.5l-2.1,0.4l37-96.4c0.6-1.6,0.8-3.2,0.5-4.9L200.1,554.2z"/>
				<path class="st20" d="M198.3,554.5c-0.3-1.6-0.9-3.2-1.9-4.5l-86.7-111.1l2.1-0.3l86.1,110.3c1.2,1.5,2,3.4,2.3,5.4"/>
				<path class="st2" d="M146.8,466.1l-5.5,14.3l-6.8,1.1l7.3-19.1c0.1-0.6,0.7-0.9,1.2-0.8c0.3,0.1,0.5,0.2,0.7,0.5L146.8,466.1z"
					/>
				<path class="st21" d="M146.8,466.1l-5.5,14.3l-6.8,1.1l7.3-19.1c0.1-0.6,0.7-0.9,1.2-0.8c0.3,0.1,0.5,0.2,0.7,0.5L146.8,466.1z"
					/>
				<path class="st2" d="M180.1,495.8l-8.9,23.4l-6.5,1l-2.7-3.5l7.3-19.1c0.4-1.1,0.2-2.3-0.5-3.3L148,467.8l-4.3-5.6
					c-0.3-0.5-0.9-0.7-1.4-0.4c-0.2,0.1-0.4,0.4-0.5,0.7l-7.3,19.1l-2.7-3.5l8.9-23.2l0.1-0.3c0.5-0.9,1.4-1.6,2.4-1.8l2.7-0.4
					c1.1-0.1,2.3,0.3,3,1.2l30.7,39.1C180.2,493.6,180.4,494.7,180.1,495.8z"/>
				<path class="st20" d="M173.7,496.8l-8.9,23.3l-2.7-3.5l7.3-19.1c0.4-1.1,0.2-2.3-0.5-3.3L148,467.7l-4.3-5.6
					c-0.3-0.5-0.9-0.7-1.4-0.4c-0.2,0.1-0.4,0.4-0.5,0.7l-7.3,19.1l-2.7-3.5l8.9-23.1l0.1-0.3c0.4-0.7,1.2-0.7,1.7,0l30.7,38.9
					C173.8,494.5,174,495.7,173.7,496.8z"/>
			</g>
			<path class="st19" d="M358.4,377.2c-19.5-5.2-25.6-0.5-56.5,1.8c-20.1,1.5-43.5,2.4-66.2,6.8c-10.8,2.1-20.1,2.1-28.3,11.8
				c-14.5,17.3-29.9,37-38.2,45.4c-8.2,8.4-11,11.4-22,17.8c-1.1,0.7-2.1,1.7-2.7,2.8c-1,1.7-1.8,3.4-2.4,5.3
				c-0.4,1.2-0.8,2.4-1.2,3.6c-0.2,0.5-0.3,1-0.4,1.5c0.1,0.4,0.1,0.7,0,1.1c-0.7,2-1,4.1-0.7,6.2c0.1,0.3,0.1,0.6,0.2,0.9
				c0.4,1.1,1.1,2,2,2.8c0.6,0.5,1.2,1,1.6,1.6c0.9,1.5,0.4,3.3,0.5,5.1c0.1,1.8,1,3.5,2.4,4.7c1.7,1.5,4.2,2.1,5.1,4.2
				c0.2,0.6,0.4,1.3,0.6,1.9c1.3,4.1,11.6,7.8,11.8,7.7l4.8-12.6c0.6-1.1,0.4-2.5-0.4-3.5l-2.3-3.2c2.7-4.4,5.5-7.8,6.7-7l6.7,8.6
				c0.7,1,0.9,2.3,0.4,3.4c-0.4,1-1,2.8-1.4,3.8c2.1-2,4-4.1,5.7-6.4c5.5-9,2.4-20.5,7.1-26.4c11-13.6,38.4-35.4,44.7-41.5l77.8,3
				C336,419.6,352.5,400.6,358.4,377.2z"/>
			<path class="st10" d="M361.2,377.3c-14.5-7.8-22.2-6.1-49-4c-16.7,1.3-62.9,8.6-83.6,12.8c-15,3-15.2,2.8-22,10.8
				c-6.7,8-22.9,29.6-22.9,29.6s0.2,7.5,9.3,14.8c9.1,7.4,15.3,8.4,15.3,8.4l28.1-23l75.7,4c12.8,1.3,25.5-2.7,35.4-11
				C363.7,405.8,361.2,377.3,361.2,377.3z"/>
			<path class="st13" d="M185.6,423.9l-7.4,9.2c2.2,5.7,5.9,10.7,10.8,14.3c8.8,7.3,14,7.2,14,7.2l8.9-7.8
				c-5.5-2.3-10.7-5.4-15.4-9.3C191.9,433.9,188.2,429.3,185.6,423.9z"/>
		</g>
		<polygon class="st2" points="403.4,441.4 392.6,421.1 380,419.6 393.4,448.5 		"/>
		<polygon class="st18" points="403.4,441.4 392.6,421.1 380,419.6 393.4,448.5 		"/>
		<path class="st2" d="M408.8,444c6.2-2.3,14.9-18.3,14.9-18.3l3.6,2.4c0,0-4,16.6-17.4,25.6C409.9,453.8,407.6,447.2,408.8,444z"/>
		<path class="st18" d="M408.8,444c6.2-2.3,14.9-18.3,14.9-18.3l3.6,2.4c0,0-4,16.6-17.4,25.6C409.9,453.8,407.6,447.2,408.8,444z"
			/>
		<path class="st2" d="M289.4,460.5c54.4,37.1,98,6.4,103.9-2.8l6.5,4.1c-3.7,13.7-39.7,61.8-106.3,38.4
			c-13.5-5.1-34.5-26.8-33.7-32.4C260.6,462.3,284,456.9,289.4,460.5z"/>
		<path class="st18" d="M399.6,462.9c0-0.4,0.2-0.8,0.3-1.1l-6.6-4.1c-0.6,1-1.4,1.9-2.2,2.7C393.6,462.2,396.6,463.1,399.6,462.9z"
			/>
		<path class="st2" d="M403.4,441.4c3,1.5,5.5,2.6,5.5,2.6s2.3,8,0.6,11.2c-2,3.6-5.6,6.1-9.6,6.8c-2.6-0.3-5-1.8-6.5-4.1
			c-0.9-3-0.9-6.2,0-9.2C395.4,445.5,401.4,441.2,403.4,441.4z"/>
		<path class="st10" d="M392.6,381.7l-5.2,7.8c-1,14.3,1,23.3,11.5,34.1c4.3,5.1,7.7,11,10,17.4c0,0-6.3-8.7-12.3-6.1
			c-7.8,3.5-12.8,7.6-15.3,5.6s-11.2-17.5-11.2-31.7c0.1-8.5,1.7-16.9,4.8-24.8C383.5,382.7,388.3,378.1,392.6,381.7z"/>
		<path class="st10" d="M409,441c11.4-1.6,11.9,7.4,14.2,6.5s11.9-29.2,8.2-38.7L409,441z"/>
	</g>
</g>
</svg>
